<svg width="500" height="171" viewBox="0 0 500 171" fill="none" xmlns="http://www.w3.org/2000/svg">
<g clip-path="url(#clip0_557_2975)">
<path d="M409.597 64.9685H424.127C425.3 64.9685 426.932 66.6036 427.116 67.7551C427.576 70.8182 426.726 72.9139 423.484 73.1903C419.253 73.5588 414.793 72.96 410.608 73.006C410.263 73.006 409.965 73.2133 409.62 73.1903V79.5236C409.62 79.9842 410.792 81.3891 411.505 81.2048H439.233C443.463 81.1818 443.647 88.8279 439.9 89.4036H404.837C401.918 89.1733 401.343 86.9854 401.182 84.4291C400.538 74.3188 401.688 63.4945 401.182 53.3151C401.435 50.4594 402.239 48.8012 405.297 48.5479H439.923C443.463 49.1236 443.417 56.0327 440.153 56.5394C431.324 57.1151 421.598 55.8024 412.862 56.5394C412.333 56.5854 411.091 56.7697 410.654 57C410.378 57.1612 409.643 58.2206 409.643 58.4279V64.9915L409.597 64.9685Z" fill="#5CBED4"/>
<path d="M103.095 32.9794C103.784 33.1406 103.348 34.7988 102.658 34.7527L102.911 35.3745C101.83 38.4376 99.347 40.7636 96.8869 42.5139L106.934 61.6291L106.658 62.0667C106.796 62.7345 105.279 63.2642 104.888 62.7345L104.428 62.8036L94.2659 43.6424C88.8168 45.0703 83.2758 43.3891 79.5282 39.1515L39.2238 64.7612C39.4767 65.6133 39.7756 66.4655 40.2584 67.2024H101.255L101.531 67.617C102.198 67.7552 101.968 69.5055 101.301 69.6206L101.094 70.0582L40.4424 69.8279C40.2584 70.5879 40.0975 71.417 39.9135 72.3152L39.3847 72.4994C40.0055 72.9139 38.9249 74.5721 38.2811 74.2727C38.4881 75.4473 36.0509 77.4509 34.9473 76.9442C34.9473 77.7042 33.5219 78.0267 33.177 77.3818C26.6933 78.4873 21.6352 72.7758 23.7504 66.5115C25.7047 60.7309 33.2 59.0267 37.4994 63.3564L78.3556 37.1939C78.9074 36.6182 77.9418 35.2133 77.6889 34.2921C74.677 23.2836 85.713 14.0485 96.0362 19.023C101.094 21.4642 103.968 27.4291 103.095 32.9564V32.9794Z" fill="#BABC2E"/>
<path d="M267.186 49.2619C269.164 47.3504 274.865 48.0873 274.636 51.7722L274.452 86.6401C274.383 90.5091 269.118 90.2558 266.795 88.5055C263.6 86.1104 258.403 80.2837 255.46 77.1746C251.782 73.2825 248.218 68.4691 244.493 64.8304C243.252 63.6098 241.849 62.8958 241.597 65.2679C240.861 71.8316 242.194 79.7079 241.597 86.3867C241.367 88.92 239.435 89.9334 237.044 89.8182C234.17 89.7031 233.342 88.137 233.136 85.4885C232.285 74.6413 233.802 62.6885 233.136 51.7031C233.297 50.2291 233.641 48.617 235.297 48.3176C237.481 47.9261 240.033 48.2255 241.665 49.8376C249 57.3455 255.644 65.6364 263.094 73.0522C264.266 74.2267 265.968 74.7794 266.221 72.6146C266.979 66.097 265.508 58.0594 266.221 51.5188C266.29 50.851 266.703 49.7225 267.186 49.2619Z" fill="#0A587B"/>
<path d="M206.235 47.6957C221.801 46.406 231.25 56.5854 230.032 71.9466C228.215 94.7697 193.797 96.9345 188.256 75.5624C184.784 62.2048 191.866 48.8703 206.258 47.6957H206.235Z" fill="#0B587B"/>
<path d="M162.735 48.3636C169.426 47.6727 176.967 48.7321 183.749 48.2945C187.382 48.7321 187.773 56.1248 183.52 56.5163C176.691 57.1612 165.333 54.9272 159.493 58.2436C151.952 62.5272 151.561 74.0424 158.459 79.1321C163.977 83.2084 176.346 80.7672 183.29 81.389C186.095 81.6424 186.715 83.8993 186.485 86.3866C186.279 88.7127 185.083 89.6799 182.83 89.8412C177.68 90.2327 169.564 90.1636 164.39 89.8412C138.801 88.206 139.238 50.7587 162.689 48.3636H162.735Z" fill="#0B587B"/>
<path d="M295.029 48.3636C301.674 47.7187 309.1 48.7091 315.837 48.2945C319.86 48.686 319.883 56.1478 315.837 56.5163C308.847 57.1612 297.282 54.8351 291.374 58.4739C283.372 63.3794 284.108 76.3915 292.753 80.2836C298.179 82.7248 309.077 80.8133 315.4 81.3891C316.986 81.5272 317.998 82.0569 318.504 83.623C319.469 86.5478 318.573 89.5648 315.193 89.8412C309.905 90.3018 297.075 90.3248 292.155 89.1042C271.141 83.8533 273.118 50.4824 295.052 48.3636H295.029Z" fill="#0B587B"/>
<path d="M460.385 48.3636C466.984 47.6727 474.502 48.7551 481.193 48.2945C484.389 48.3406 484.711 53.1769 483.492 55.2496C482.963 56.1709 482.204 56.4242 481.193 56.5163C474.203 57.1842 462.638 54.8351 456.73 58.4739C448.384 63.5866 449.625 77.1054 458.891 80.606C464.11 82.5866 474.525 80.8593 480.526 81.389C484.044 81.6884 484.343 83.9454 483.975 87.0775C483.745 88.966 482.25 89.703 480.526 89.8642C475.583 90.2787 467.559 90.1636 462.524 89.8642C436.129 88.3212 436.911 50.8509 460.385 48.3866V48.3636Z" fill="#5CBED4"/>
<path d="M112.636 62.9648C113.165 62.5042 114.269 63.4715 113.97 64.0703C116.683 67.2485 116.223 71.7854 113.188 74.503C112.659 74.9636 111.694 75.1479 111.763 75.9309L119.12 106.124C119.465 106.768 120.591 106.423 121.35 106.561C129.949 108.081 133.099 118.744 126.523 124.502C122.454 128.048 116.729 127.634 112.636 124.364L90.4493 144.262C89.8285 144.515 89.0927 143.156 89.5526 142.696L89.3686 142.258L111.004 122.936C106.704 116.648 109.9 108.45 116.936 106.216L109.601 76.5988C107.072 76.8982 104.957 75.8158 102.911 74.48L84.9083 87.1697L84.4254 86.9624C83.8047 87.2618 83.1379 85.9261 83.5288 85.3964L83.3908 84.9358L101.508 72.0618C100.956 71.0255 100.887 70.2194 101.278 69.6206C101.278 69.5285 101.462 67.8933 101.508 67.617C100.704 67.0182 101.945 65.1758 102.451 64.4388C102.934 63.7709 104.083 62.1358 104.842 62.7115C104.934 62.6654 106.451 62.0897 106.612 62.0436C106.934 61.0994 108.728 61.3067 109.647 61.4448C110.613 61.583 112.521 61.9054 112.613 62.9418L112.636 62.9648Z" fill="#0B587B"/>
<path d="M362.257 48.3406L395.273 48.2715C398.929 48.7091 399.25 56.0327 395.043 56.4933C391.962 56.8388 388.099 56.0788 385.065 56.4933C383.639 56.7006 383.271 57.4606 383.156 58.7963C382.352 67.4327 384.03 77.52 383.156 86.1333C382.949 88.206 382.053 89.3575 379.937 89.5648C376.696 89.9103 374.971 89.0351 374.718 85.6957C374.052 77.0824 375.523 67.3175 374.718 58.7963C374.557 57.046 374.052 56.7006 372.35 56.4933C369.292 56.1479 365.614 56.8388 362.602 56.4703C358.647 55.9866 358.67 48.8933 362.211 48.2945L362.257 48.3406Z" fill="#5CBED4"/>
<path d="M321.654 49.0085C323.079 48.686 327.93 48.8242 329.149 49.6303C331.793 51.3576 335.426 58.3588 338.024 60.9612C338.989 61.9285 339.495 61.9285 340.461 60.9612C343.243 58.1976 345.611 53.3151 348.37 50.4363C349.221 49.5382 350.071 49.0545 351.313 48.9394C352.255 48.8473 357.153 48.7782 357.544 49.3769C357.865 49.8376 357.337 50.92 357.061 51.3576C352.554 57.2303 348.462 63.4024 343.703 69.0679C343.243 74.4109 344.162 80.4218 343.657 85.6727C343.473 87.5382 342.875 88.6897 340.875 88.8969C337.84 89.2194 335.058 89.2654 334.759 85.6727C334.299 80.3527 335.15 74.4339 334.713 69.0448C329.931 63.4024 325.838 57.2073 321.355 51.3345C320.872 50.4594 320.251 49.2618 321.608 48.9624L321.654 49.0085Z" fill="#0B587B"/>
<path d="M113.97 64.0703C113.97 64.0703 112.751 63.0339 112.636 62.9648L112.406 62.5503L125.948 46.4521C123.649 44.6097 122.431 41.8461 122.592 38.8982L102.865 35.2364L102.681 34.7527C102.796 34.3612 103.072 33.3709 103.118 32.9794L123.396 36.7794C125.719 29.1794 136.892 28.903 139.514 36.4339C142.135 43.9648 135.145 49.9527 128.179 47.3042L113.97 64.0933V64.0703Z" fill="#5CBED4"/>
<path d="M83.5517 140.024C84.0576 139.057 86.2188 139.932 87.1154 140.324C88.0121 140.715 89.9434 141.705 89.5526 142.673C89.5985 142.742 90.4033 144.147 90.4492 144.239C91.4609 146.979 90.0584 150.687 87.6443 152.184C82.1262 155.57 75.7116 150.042 78.0337 144.008C77.4819 143.617 78.2637 142.212 78.9304 142.442C78.5855 141.59 81.0227 139.932 81.8044 140.439C81.6204 139.748 83.2988 139.31 83.5747 140.001L83.5517 140.024Z" fill="#B5BC12"/>
<path d="M54.2604 122.936C54.8122 123.327 53.8005 124.755 53.1568 124.502C51.0875 126.529 47.6158 126.713 45.2246 125.216C41.1321 122.659 41.546 116.395 45.8224 114.299C45.5925 113.632 47.3169 112.964 47.5928 113.632C48.0526 112.71 49.869 113.194 50.7426 113.493C53.4097 114.392 55.318 117.017 55.387 119.827C55.4099 120.794 55.295 122.798 54.2374 122.959L54.2604 122.936Z" fill="#0B587B"/>
<path d="M34.9474 76.9442H35.4072C39.5687 89.0351 43.7532 101.103 47.9147 113.194L47.5928 113.608C47.3399 113.655 46.1213 114.115 45.8224 114.276L33.177 77.4048C33.7518 77.3127 34.4186 77.1745 34.9474 76.9672V76.9442Z" fill="#5DBED4"/>
<path d="M78.8845 142.488C78.8845 142.488 78.0338 143.916 77.9878 144.054L53.1338 124.502C53.1338 124.502 54.1914 123.028 54.2374 122.936L54.6282 122.682L78.9305 141.959L78.8615 142.465L78.8845 142.488Z" fill="#5DBED4"/>
<path d="M355.888 120.034L357.176 120.08L360.992 125.815V120.034H362.096V127.588C361.613 127.588 361.038 127.749 360.647 127.358L356.992 121.807V127.588H355.888V120.034Z" fill="#10597C"/>
<path d="M311.054 102.715L312.342 102.761L316.159 108.496V102.715H317.262V110.269C316.779 110.269 316.205 110.43 315.814 110.039L312.158 104.488V110.269H311.054V102.715Z" fill="#145A7D"/>
<path d="M397.388 102.715L398.676 102.761L402.492 108.496V102.715H403.596V110.269C403.113 110.269 402.538 110.43 402.147 110.039L398.492 104.488V110.269H397.388V102.715Z" fill="#145A7D"/>
<path d="M288.408 120.034L289.695 120.08L293.512 125.815V120.034H294.615V127.588C294.133 127.588 293.558 127.749 293.167 127.358L289.511 121.807V127.588H288.408V120.034Z" fill="#145A7D"/>
<path d="M231.365 127.588C231.365 127.588 230.561 127.611 230.492 127.565C230.354 127.45 230.698 126.759 230.147 126.92C229.848 127.012 229.388 127.634 228.767 127.749C222.1 129.131 223.456 117.155 229.756 120.195C231.135 120.863 231.779 123.235 230.262 122.36C229.986 122.199 229.71 121.347 229.135 121.047C226.422 119.596 224.261 123.373 225.939 125.792C227.388 127.864 230.377 126.966 230.262 124.479C229.181 124.295 227.434 125.124 227.824 123.581H231.365C231.25 124.156 231.503 127.45 231.365 127.588Z" fill="#12597C"/>
<path d="M449.326 127.588C448.821 128.094 448.476 126.966 448.43 126.92C448.2 126.759 447.533 127.519 447.073 127.657C443.211 128.878 441.003 124.271 443.119 121.254C444.728 118.951 448.981 119.412 449.119 122.475C447.855 122.774 448.108 121.531 447.28 121.093C444.429 119.596 442.475 123.235 443.808 125.676C445.004 127.841 448.522 127.104 448.223 124.479C447.142 124.318 445.648 125.078 445.993 123.581H449.326C449.211 124.156 449.464 127.427 449.326 127.588Z" fill="#10597C"/>
<path d="M208.512 102.715L209.799 102.761C210.88 104.742 212.167 106.792 213.616 108.496V102.715C213.616 102.715 214.512 102.669 214.512 102.715V110.269C214.076 110.269 213.662 110.338 213.271 110.062C212.236 109.325 210.926 105.64 209.615 104.719V110.269H208.512V102.715Z" fill="#10597C"/>
<path d="M406.493 125.815V120.034C406.493 120.034 407.39 119.988 407.39 120.034V127.588C406.953 127.588 406.539 127.657 406.148 127.381C405.136 126.667 403.665 122.982 402.492 122.038V127.588H401.389V120.034C401.826 120.034 402.239 119.965 402.63 120.241C403.734 121.024 405.044 124.916 406.493 125.815Z" fill="#10597C"/>
<path d="M183.428 120.034L184.646 120.264L188.302 125.815V120.034H189.405V127.588L188.118 127.542L184.301 121.807V127.588C184.301 127.588 183.405 127.634 183.405 127.588V120.034H183.428Z" fill="#10597C"/>
<path d="M268.658 108.496V102.715C268.658 102.715 269.554 102.669 269.554 102.715V110.269C269.118 110.269 268.704 110.338 268.313 110.062C267.232 109.302 265.991 105.663 264.657 104.719V110.269H263.554V102.715C263.99 102.715 264.404 102.646 264.795 102.922C265.945 103.752 267.232 107.575 268.658 108.496Z" fill="#10597C"/>
<path d="M249.069 102.554C255.07 101.448 255.07 111.536 249.069 110.453C245.344 109.762 245.275 103.245 249.069 102.554Z" fill="#11597C"/>
<path d="M346.117 110.269V102.715H350.002C350.301 102.715 351.52 103.521 351.773 103.844C352.83 105.202 352.692 108.496 351.313 109.578C351.198 109.67 350.094 110.269 350.002 110.269H346.117Z" fill="#10597C"/>
<path d="M301.674 119.873C307.307 118.975 307.537 128.785 301.444 127.772C297.673 127.127 297.673 120.518 301.674 119.873Z" fill="#11597C"/>
<path d="M196.464 119.873C202.189 118.952 202.304 128.901 196.234 127.772C192.463 127.058 192.624 120.495 196.464 119.873Z" fill="#11597C"/>
<path d="M347.611 119.873C353.175 118.975 353.474 128.785 347.381 127.772C343.657 127.15 343.45 120.541 347.611 119.873Z" fill="#11597C"/>
<path d="M302.57 102.554C307.951 101.633 308.594 109.901 303.835 110.476C298.823 111.075 298.432 103.268 302.57 102.554Z" fill="#12597C"/>
<path d="M414.655 119.873C420.242 119.182 420.265 128.716 414.379 127.795C410.723 127.219 410.378 120.402 414.655 119.873Z" fill="#11597C"/>
<path d="M214.351 126.851C212.351 124.847 213.202 120.333 216.214 119.873C222.146 118.951 221.87 129.016 215.984 127.772C215.639 127.703 214.581 127.104 214.351 126.851Z" fill="#11597C"/>
<path d="M434.405 119.873C439.946 119.136 440.13 128.762 434.175 127.749C430.243 127.081 430.381 120.402 434.405 119.873Z" fill="#10597C"/>
<path d="M200.028 102.554C205.362 101.679 205.936 109.924 201.292 110.476C196.211 111.075 195.82 103.245 200.028 102.554Z" fill="#10597C"/>
<path d="M283.097 126.045V120.057C283.097 120.057 283.993 120.011 283.993 120.057V127.611C283.625 127.565 283.005 127.726 282.706 127.565C282.246 127.312 279.901 122.406 278.889 121.83V127.611C278.889 127.611 277.992 127.657 277.992 127.611V120.057C278.314 120.057 278.636 120.011 278.958 120.103C279.625 120.31 282.2 125.331 283.097 126.068V126.045Z" fill="#0C587B"/>
<path d="M224.491 104.949C223.065 105.179 223.594 104.696 223.065 104.051C222.146 102.945 219.823 103.36 220.053 104.834C220.283 106.308 224.215 105.525 224.675 107.552C225.548 111.352 218.582 111.536 218.743 107.828C219.915 107.528 219.593 108.473 220.283 109.072C221.502 110.131 224.238 109.601 223.594 107.759C223.134 106.423 218.444 107.482 218.973 104.189C219.364 101.725 224.721 101.978 224.514 104.949H224.491Z" fill="#11597C"/>
<path d="M361.889 102.715C361.889 102.715 361.935 103.613 361.889 103.613H357.682V105.824H361.337C361.751 105.824 361.751 106.93 361.337 106.93H357.682V109.371H361.889C361.889 109.371 361.935 110.269 361.889 110.269H356.555V102.715C357.245 102.853 361.705 102.531 361.889 102.715Z" fill="#14597C"/>
<path d="M393.388 102.715C393.388 102.715 393.434 103.613 393.388 103.613H389.18V105.824H392.836C393.25 105.824 393.25 106.93 392.836 106.93H389.18V109.371H393.388C393.388 109.371 393.434 110.269 393.388 110.269H388.053V102.715C388.743 102.853 393.204 102.531 393.388 102.715Z" fill="#13597C"/>
<path d="M234.262 102.715C234.262 102.715 234.308 103.613 234.262 103.613H230.055V105.824H233.825V106.93H230.055V109.371H234.262C234.262 109.371 234.308 110.269 234.262 110.269H228.928V102.715C229.618 102.853 234.078 102.531 234.262 102.715Z" fill="#145A7D"/>
<path d="M262.22 120.034C262.22 120.034 262.266 120.932 262.22 120.932H258.013V123.373H262.013C262.013 123.373 262.059 124.272 262.013 124.272H258.013V126.713H262.22C262.22 126.713 262.266 127.611 262.22 127.611H256.886V120.057C257.576 120.195 262.036 119.873 262.22 120.057V120.034Z" fill="#14597C"/>
<path d="M386.743 120.034C386.743 120.034 386.789 120.932 386.743 120.932H382.536V123.373H386.536C386.628 123.627 386.444 124.272 386.214 124.272H382.558V126.713H386.766C386.766 126.713 386.812 127.611 386.766 127.611H381.432V120.057C382.122 120.195 386.582 119.873 386.766 120.057L386.743 120.034Z" fill="#10597C"/>
<path d="M168.782 120.034C168.782 120.034 168.828 120.932 168.782 120.932H164.574V123.373H168.345C168.345 123.373 168.391 124.272 168.345 124.272H164.574V126.713H168.782C168.782 126.713 168.828 127.611 168.782 127.611H163.448V120.057C164.138 120.195 168.598 119.873 168.782 120.057V120.034Z" fill="#10597C"/>
<path d="M397.158 122.475C396.491 123.097 395.549 120.725 393.985 120.771C389.87 120.886 391.387 128.97 395.342 126.528C396.33 125.93 395.71 124.364 397.181 124.686C397.434 128.233 392.238 128.947 390.881 125.999C389.364 122.705 391.87 118.445 395.641 120.126C396.239 120.402 397.641 122.061 397.181 122.452L397.158 122.475Z" fill="#13597C"/>
<path d="M335.012 122.475C333.494 122.636 334.069 121.07 332.345 120.794C328.482 120.172 328.413 127.634 332.391 126.874C334.069 126.551 333.839 124.985 334.138 124.732C334.207 124.686 335.288 124.479 335.196 125.008C334.368 129.453 327.838 128.739 328.344 123.281C328.735 119.251 334.391 118.399 335.012 122.498V122.475Z" fill="#12597C"/>
<path d="M178.117 122.452C178.117 122.452 177.91 121.623 177.427 121.255C174.852 119.297 172.3 123.074 174.001 125.791C174.921 127.265 177.151 127.404 177.933 125.745C178.346 124.87 177.634 124.502 179.22 124.686C179.358 127.887 175.036 128.901 173.219 126.575C170.713 123.327 174.024 118.03 177.887 120.333C178.576 120.748 179.749 122.268 178.645 122.475C178.507 122.498 178.231 122.521 178.117 122.429V122.452Z" fill="#12597C"/>
<path d="M464.662 122.452C464.294 122.222 464.294 120.448 462.202 120.794C459.167 121.301 459.535 126.528 462.11 126.92C463.098 127.058 464.041 126.667 464.478 125.768C464.915 124.87 464.179 124.525 465.765 124.709C465.949 127.887 461.489 128.924 459.765 126.598C457.281 123.235 460.592 118.053 464.432 120.356C465.122 120.771 466.294 122.291 465.191 122.498C465.053 122.521 464.777 122.544 464.662 122.452Z" fill="#12597C"/>
<path d="M414.471 104.926C412.609 105.133 412.999 102.945 410.677 103.452C406.447 104.396 409.781 112.204 412.793 108.91C413.528 108.104 412.885 106.999 414.471 107.367C413.689 112.388 407.045 111.052 407.619 105.939C408.079 101.932 413.229 101.011 414.494 104.926H414.471Z" fill="#12597C"/>
<path d="M193.429 104.926C191.934 105.271 192.118 103.775 190.785 103.475C188.21 102.899 187.129 105.985 188.003 108.058C188.785 109.924 191.337 110.223 192.233 108.288C192.578 107.551 191.866 107.229 193.452 107.39C192.739 112.25 186.256 111.213 186.577 106.193C186.853 102.024 192.187 100.919 193.452 104.926H193.429Z" fill="#11597C"/>
<path d="M290.178 104.949C288.615 105.341 289.166 103.752 287.58 103.452C284.821 102.922 283.947 106.469 285.028 108.45C285.764 109.785 288.063 110.062 288.89 108.68C289.396 107.828 288.867 107.137 290.385 107.413C289.304 112.687 282.66 110.914 283.556 105.571C284.177 101.886 289.327 101.264 290.155 104.972L290.178 104.949Z" fill="#10597C"/>
<path d="M378.075 104.949C376.604 105.272 377.178 104.419 376.42 103.844C373.546 101.679 371.063 106.769 373.316 108.933C374.213 109.809 375.914 109.855 376.719 108.818C377.362 107.966 376.742 107.091 378.305 107.413C377.385 112.503 370.764 111.075 371.477 105.801C372.005 101.909 377.086 101.126 378.075 104.972V104.949Z" fill="#11597C"/>
<path d="M280.2 110.269C278.429 110.891 278.774 108.404 278.406 108.081C278.268 107.966 275.21 108.012 275.072 108.196C274.475 109.048 274.934 110.776 273.325 110.292C273.647 109.325 275.808 103.084 276.199 102.853C276.59 102.623 277.28 102.646 277.51 103.107L280.2 110.315V110.269Z" fill="#11597C"/>
<path d="M427.553 102.738C427.898 102.945 429.898 109.394 430.473 110.246C428.45 110.937 429.232 108.634 428.496 108.127C428.174 107.92 425.53 107.92 425.277 108.242C424.679 108.956 425.116 110.684 423.392 110.246C423.99 109.371 425.967 102.945 426.312 102.738C426.45 102.646 427.438 102.646 427.576 102.738H427.553Z" fill="#11597C"/>
<path d="M325.01 102.738L327.93 110.269C325.907 110.776 326.62 109.141 325.953 108.173C325.815 107.989 322.757 107.966 322.619 108.058C322.182 108.45 322.458 110.914 320.826 110.246L323.585 102.922C323.861 102.577 324.573 102.669 325.01 102.738Z" fill="#11597C"/>
<path d="M325.033 127.588C323.263 128.21 323.608 125.722 323.24 125.4C323.102 125.285 320.044 125.331 319.906 125.515C319.331 126.344 319.86 128.071 318.159 127.611C318.596 126.644 320.596 120.448 321.033 120.172C321.355 119.965 322.021 119.988 322.274 120.287L325.056 127.611L325.033 127.588Z" fill="#0F597C"/>
<path d="M475.951 127.588C474.318 128.256 474.594 125.792 474.157 125.4C474.042 125.285 471.007 125.285 470.87 125.4C470.433 125.792 470.709 128.256 469.076 127.588C469.513 126.644 471.582 120.379 471.95 120.149C472.318 119.919 473.054 119.965 473.284 120.402L475.974 127.611L475.951 127.588Z" fill="#0F597C"/>
<path d="M244.677 120.057L247.367 127.588C245.666 128.048 246.195 126.344 245.62 125.492C245.482 125.308 242.424 125.262 242.286 125.377C241.941 125.676 242.148 128.279 240.493 127.565L243.344 120.149L244.677 120.034V120.057Z" fill="#10597C"/>
<path d="M310.365 120.08C310.641 120.264 311.974 125.561 312.503 126.275C312.825 126.275 314.181 120.748 314.595 120.195C314.802 119.896 315.423 120.126 315.722 120.057C315.377 121.024 313.423 127.404 312.917 127.588C312.71 127.657 311.859 127.68 311.744 127.588C311.307 125.147 309.836 122.728 309.307 120.356C309.192 119.85 310.204 119.988 310.365 120.08Z" fill="#155A7D"/>
<path d="M377.638 120.034C378.029 121.554 376.282 120.725 375.201 120.932V127.588H374.098V120.932C373.017 120.748 371.27 121.554 371.66 120.034H377.661H377.638Z" fill="#10597C"/>
<path d="M159.677 120.034C160.068 121.554 158.321 120.725 157.24 120.932V127.588H156.137V120.932C155.056 120.748 153.309 121.554 153.699 120.034H159.7H159.677Z" fill="#10597C"/>
<path d="M242.24 102.715V108.818C242.24 111.213 236.86 111.052 237.573 107.828C239.205 107.529 238.47 108.335 239.021 109.141C239.711 110.154 241.114 109.279 241.114 108.588V102.692H242.217L242.24 102.715Z" fill="#195B7E"/>
<path d="M424.035 120.034V126.69H428.036C428.036 126.69 428.082 127.588 428.036 127.588H422.932V120.034H424.035Z" fill="#155A7D"/>
<path d="M332.575 102.715V109.371H336.575C336.575 109.371 336.621 110.269 336.575 110.269H331.471V102.715H332.575Z" fill="#12597C"/>
<path d="M206.074 120.034V126.69H209.73C209.96 126.69 210.144 127.312 210.052 127.588H204.948V120.034H206.051H206.074Z" fill="#1A5B7E"/>
<path d="M419.805 102.715H418.701V110.269H419.805V102.715Z" fill="#225E80"/>
<path d="M383.409 102.715H382.306V110.269H383.409V102.715Z" fill="#225E80"/>
<path d="M454.867 120.034H453.764V127.588H454.867V120.034Z" fill="#225E80"/>
<path d="M236.699 120.034H235.596V127.588H236.699V120.034Z" fill="#225E80"/>
<path d="M273.325 120.034H272.221V127.588H273.325V120.034Z" fill="#225E80"/>
<path d="M340.346 120.034H339.242V127.588H340.346V120.034Z" fill="#225E80"/>
<path d="M295.512 102.715H294.408V110.269H295.512V102.715Z" fill="#225E80"/>
<path d="M435.347 108.933C435.393 110.154 435.577 111.674 434.014 111.812C433.945 111.236 434.612 111.144 434.681 110.592C434.75 109.97 434.175 110.384 434.037 110.246C433.531 109.647 434.428 108.496 435.347 108.933Z" fill="#2F6385"/>
<path d="M349.68 118.053C349.106 118.744 348.508 119.758 347.45 119.596C348.117 118.56 348.163 117.731 349.68 118.053Z" fill="#215E80"/>
<path d="M436.244 118.053C435.853 118.859 435.278 119.781 434.244 119.596C434.75 118.698 435.003 117.777 436.244 118.053Z" fill="#245F81"/>
<path d="M237.596 118.053C237.251 118.422 236.216 120.149 235.596 119.596C235.527 119.55 236.216 118.122 236.285 118.076C236.538 117.915 237.228 118.099 237.573 118.053H237.596Z" fill="#205D80"/>
<path d="M104.865 62.7346C103.348 63.5176 101.807 65.9588 101.531 67.617H40.1665C39.6377 67.617 38.649 64.6691 38.741 64.5309L79.6432 38.5527C83.3678 43.0206 88.8169 44.7479 94.4498 43.0897L104.865 62.7576V62.7346Z" fill="white"/>
<path d="M38.2812 74.2957L38.649 73.9963L59.8244 86.8933L60.1922 87.3539C55.203 98.3394 62.8363 109.279 74.8379 108.196L75.1598 108.588L82.1953 140.139L81.8274 140.508C81.0457 140.807 79.4592 141.867 78.9534 142.511L54.3064 122.959C56.6515 118.307 52.8119 112.895 47.6388 113.631L34.9933 76.9903C36.3269 76.4606 37.4764 75.4703 38.3271 74.3188L38.2812 74.2957Z" fill="white"/>
<path d="M83.5518 85.3964C83.7587 85.6728 84.2185 86.5709 84.4484 86.9625C84.7014 87.0085 84.9773 87.1006 85.1612 87.3079C85.621 87.8606 86.1268 89.4497 86.3798 90.2097C88.7019 97.8097 84.4944 105.801 76.9992 108.312L83.9656 139.702L83.5978 140.07C83.1839 140.116 82.2183 140.37 81.8274 140.508L74.7 108.542C71.0673 108.749 68.1933 108.427 65.0205 106.561C58.3529 102.6 56.4906 94.2631 59.8474 87.4231L38.3271 74.3188C38.5801 73.9734 39.2928 72.8909 39.4307 72.5455L39.7986 72.2461L60.6521 85.5115C65.1124 79.8922 72.8147 78.0497 79.3213 81.4121C80.8847 82.2182 83.3219 83.6922 83.5978 85.4194L83.5518 85.3964Z" fill="#5CBED4"/>
<path d="M101.301 69.6206C101.324 70.3115 101.83 71.5091 102.129 72.177L83.5288 85.3964C78.5856 79.2933 69.2739 78.4182 63.2271 83.3927C62.7673 83.7842 60.79 86.0642 60.5831 86.0412L39.3618 72.5224C39.7066 71.6473 39.8446 70.3576 39.7986 69.4133L101.278 69.6436L101.301 69.6206Z" fill="white"/>
<path d="M102.635 34.7527L123.051 38.5297C122.73 41.7078 124.063 44.5636 126.615 46.406L112.636 62.9648C110.958 61.9284 108.521 61.5139 106.635 62.0666L96.1972 42.1915C99.0712 40.7636 101.669 37.8157 102.635 34.7527Z" fill="white"/>
<path d="M206.465 56.3552C216.053 55.2727 222.904 61.7673 221.364 71.4861C219.088 85.8109 197.2 84.8436 196.096 70.4036C195.59 63.7479 199.476 57.1612 206.465 56.3552Z" fill="white"/>
<path d="M84.4484 86.9394L103.026 73.8582C105.072 75.4703 107.279 76.5297 109.946 76.0691L117.51 106.699C110.245 108.242 107.118 116.879 111.487 122.844L111.418 123.143L89.5526 142.696C88.38 141.107 85.529 139.863 83.5517 140.024L76.4243 107.943C85.4141 105.248 89.2537 95 84.4254 86.9394H84.4484Z" fill="white"/>
<path d="M249.529 103.429C253.161 102.899 253.506 109.348 250.103 109.601C246.701 109.855 246.425 103.89 249.529 103.429Z" fill="white"/>
<path d="M347.22 109.371V103.59C349.657 103.337 351.451 103.705 351.359 106.561C351.267 109.21 349.542 109.601 347.22 109.371Z" fill="white"/>
<path d="M302.111 120.771C305.49 120.472 305.904 126.713 302.502 126.943C299.099 127.173 298.708 121.07 302.111 120.771Z" fill="white"/>
<path d="M198.901 121.462C200.809 123.258 199.338 128.072 196.142 126.759C192.578 125.308 195.613 118.353 198.901 121.462Z" fill="white"/>
<path d="M348.071 120.771C351.52 120.587 351.75 126.736 348.462 126.943C344.783 127.196 344.783 120.932 348.071 120.771Z" fill="white"/>
<path d="M303.007 103.429C306.663 102.922 306.893 109.371 303.582 109.601C300.087 109.832 299.834 103.867 303.007 103.429Z" fill="white"/>
<path d="M415.092 120.771C418.724 120.564 418.678 127.841 414.471 126.851C411.988 126.252 411.827 120.955 415.092 120.771Z" fill="white"/>
<path d="M216.674 120.748C220.352 120.425 220.352 126.828 217.064 126.92C213.524 127.035 213.616 121.001 216.674 120.748Z" fill="white"/>
<path d="M433.209 121.462C434.336 120.402 436.474 120.702 437.187 122.107C438.244 124.271 437.026 127.542 434.244 126.828C432.174 126.275 431.853 122.728 433.209 121.462Z" fill="#FEFFFF"/>
<path d="M200.234 103.429C204.028 102.692 204.373 109.371 201.039 109.601C197.476 109.855 197.361 104.005 200.234 103.429Z" fill="#FEFFFF"/>
<path d="M277.762 107.16H275.532L276.659 103.821L277.601 106.101L277.762 107.16Z" fill="#F7F8FA"/>
<path d="M427.139 104.051C427.254 104.166 427.921 106.722 428.036 107.16H425.829C425.691 107.022 426.519 104.696 426.703 104.373C426.795 104.212 426.795 103.659 427.162 104.051H427.139Z" fill="#F7F8FA"/>
<path d="M325.47 107.16H323.033L324.16 103.821L325.47 107.16Z" fill="#F6F7FA"/>
<path d="M322.826 124.479H320.366L321.493 121.162L322.826 124.479Z" fill="#FBFBFC"/>
<path d="M473.744 124.479H471.306L472.41 121.162L473.744 124.479Z" fill="#FBFBFD"/>
<path d="M245.137 124.479H242.7L243.804 121.162L245.137 124.479Z" fill="#FBFBFC"/>
</g>
<defs>
<clipPath id="clip0_557_2975">
<rect width="500" height="171" fill="white"/>
</clipPath>
</defs>
</svg>
