<svg width="295" height="37" viewBox="0 0 295 37" fill="none" xmlns="http://www.w3.org/2000/svg">
<path d="M22.9205 12.6136C22.7727 12.0114 22.5398 11.483 22.2216 11.0284C21.9034 10.5625 21.5057 10.1705 21.0284 9.85227C20.5625 9.52273 20.017 9.27841 19.392 9.11932C18.7784 8.94886 18.1023 8.86364 17.3636 8.86364C15.7727 8.86364 14.4148 9.24432 13.2898 10.0057C12.1761 10.767 11.3239 11.8636 10.733 13.2955C10.1534 14.7273 9.86364 16.4545 9.86364 18.4773C9.86364 20.5227 10.142 22.2727 10.6989 23.7273C11.2557 25.1818 12.0852 26.2955 13.1875 27.0682C14.2898 27.8409 15.6591 28.2273 17.2955 28.2273C18.7386 28.2273 19.9375 28.017 20.892 27.5966C21.858 27.1761 22.5795 26.5795 23.0568 25.8068C23.5341 25.0341 23.7727 24.125 23.7727 23.0795L25.4091 23.25H17.4318V16.5H32.9091V21.3409C32.9091 24.5227 32.233 27.2443 30.8807 29.5057C29.5398 31.7557 27.6875 33.483 25.3239 34.6875C22.9716 35.8807 20.2727 36.4773 17.2273 36.4773C13.8295 36.4773 10.8466 35.7557 8.27841 34.3125C5.71023 32.8693 3.70455 30.8125 2.26136 28.142C0.829546 25.4716 0.113636 22.2955 0.113636 18.6136C0.113636 15.7273 0.551136 13.1705 1.42614 10.9432C2.3125 8.71591 3.53977 6.83523 5.10795 5.30114C6.67614 3.75568 8.48864 2.59091 10.5455 1.80682C12.6023 1.01136 14.8068 0.613635 17.1591 0.613635C19.2273 0.613635 21.1477 0.90909 22.9205 1.5C24.7045 2.07954 26.2784 2.90909 27.642 3.98864C29.017 5.05682 30.125 6.32386 30.9659 7.78977C31.8068 9.25568 32.3182 10.8636 32.5 12.6136H22.9205ZM37.4645 36V9.81818H46.6009V14.7955H46.8736C47.3509 12.9545 48.1065 11.608 49.1406 10.7557C50.1861 9.90341 51.4077 9.47727 52.8054 9.47727C53.2145 9.47727 53.6179 9.51136 54.0156 9.57955C54.4247 9.63636 54.8168 9.72159 55.1918 9.83523V17.8636C54.7259 17.7045 54.152 17.5852 53.4702 17.5057C52.7884 17.4261 52.2031 17.3864 51.7145 17.3864C50.794 17.3864 49.9645 17.5966 49.2259 18.017C48.4986 18.4261 47.9247 19.0057 47.5043 19.7557C47.0838 20.4943 46.8736 21.3636 46.8736 22.3636V36H37.4645ZM69.3224 36.4773C66.527 36.4773 64.1179 35.9432 62.0952 34.875C60.0838 33.7955 58.5327 32.25 57.4418 30.2386C56.3622 28.2159 55.8224 25.7955 55.8224 22.9773C55.8224 20.2727 56.3679 17.9091 57.4588 15.8864C58.5497 13.8636 60.0895 12.2898 62.0781 11.1648C64.0668 10.0398 66.4134 9.47727 69.1179 9.47727C71.0952 9.47727 72.8849 9.78409 74.4872 10.3977C76.0895 11.0114 77.4588 11.9034 78.5952 13.0739C79.7315 14.233 80.6065 15.642 81.2202 17.3011C81.8338 18.9602 82.1406 20.8295 82.1406 22.9091V25.0909H58.7543V19.9091H73.4815C73.4702 19.1591 73.277 18.5 72.902 17.9318C72.5384 17.3523 72.044 16.9034 71.419 16.5852C70.8054 16.2557 70.1065 16.0909 69.3224 16.0909C68.5611 16.0909 67.8622 16.2557 67.2259 16.5852C66.5895 16.9034 66.0781 17.3466 65.6918 17.9148C65.3168 18.483 65.1179 19.1477 65.0952 19.9091V25.5C65.0952 26.3409 65.2713 27.0909 65.6236 27.75C65.9759 28.4091 66.4815 28.9261 67.1406 29.3011C67.7997 29.6761 68.5952 29.8636 69.527 29.8636C70.1747 29.8636 70.7656 29.7727 71.2997 29.5909C71.8452 29.4091 72.3111 29.1477 72.6974 28.8068C73.0838 28.4545 73.3679 28.0341 73.5497 27.5455H82.1406C81.8452 29.3636 81.1463 30.9432 80.044 32.2841C78.9418 33.6136 77.4815 34.6477 75.6634 35.3864C73.8565 36.1136 71.7429 36.4773 69.3224 36.4773ZM98.5256 36.4773C95.7301 36.4773 93.321 35.9432 91.2983 34.875C89.2869 33.7955 87.7358 32.25 86.6449 30.2386C85.5653 28.2159 85.0256 25.7955 85.0256 22.9773C85.0256 20.2727 85.571 17.9091 86.6619 15.8864C87.7528 13.8636 89.2926 12.2898 91.2812 11.1648C93.2699 10.0398 95.6165 9.47727 98.321 9.47727C100.298 9.47727 102.088 9.78409 103.69 10.3977C105.293 11.0114 106.662 11.9034 107.798 13.0739C108.935 14.233 109.81 15.642 110.423 17.3011C111.037 18.9602 111.344 20.8295 111.344 22.9091V25.0909H87.9574V19.9091H102.685C102.673 19.1591 102.48 18.5 102.105 17.9318C101.741 17.3523 101.247 16.9034 100.622 16.5852C100.009 16.2557 99.3097 16.0909 98.5256 16.0909C97.7642 16.0909 97.0653 16.2557 96.429 16.5852C95.7926 16.9034 95.2813 17.3466 94.8949 17.9148C94.5199 18.483 94.321 19.1477 94.2983 19.9091V25.5C94.2983 26.3409 94.4744 27.0909 94.8267 27.75C95.179 28.4091 95.6847 28.9261 96.3438 29.3011C97.0028 29.6761 97.7983 29.8636 98.7301 29.8636C99.3778 29.8636 99.9688 29.7727 100.503 29.5909C101.048 29.4091 101.514 29.1477 101.901 28.8068C102.287 28.4545 102.571 28.0341 102.753 27.5455H111.344C111.048 29.3636 110.349 30.9432 109.247 32.2841C108.145 33.6136 106.685 34.6477 104.866 35.3864C103.06 36.1136 100.946 36.4773 98.5256 36.4773ZM124.592 21.2727V36H115.183V9.81818H124.115V14.7955H124.388C124.956 13.1364 125.956 11.8352 127.388 10.892C128.831 9.94886 130.513 9.47727 132.433 9.47727C134.286 9.47727 135.893 9.90341 137.257 10.7557C138.632 11.5966 139.695 12.7557 140.445 14.233C141.206 15.7102 141.581 17.3977 141.57 19.2955V36H132.161V21.2727C132.172 19.9773 131.842 18.9602 131.172 18.2216C130.513 17.483 129.592 17.1136 128.411 17.1136C127.638 17.1136 126.962 17.2841 126.382 17.625C125.814 17.9545 125.376 18.4318 125.07 19.0568C124.763 19.6705 124.604 20.4091 124.592 21.2727Z" fill="#F9FFFA"/>
<path d="M188.232 14.1818H178.618C178.55 13.3864 178.368 12.6648 178.072 12.017C177.788 11.3693 177.391 10.8125 176.879 10.3466C176.379 9.86932 175.771 9.50568 175.055 9.25568C174.339 8.99432 173.527 8.86364 172.618 8.86364C171.027 8.86364 169.68 9.25 168.578 10.0227C167.487 10.7955 166.658 11.9034 166.089 13.3466C165.533 14.7898 165.254 16.5227 165.254 18.5455C165.254 20.6818 165.538 22.4716 166.107 23.9148C166.686 25.3466 167.521 26.4261 168.612 27.1534C169.703 27.8693 171.016 28.2273 172.55 28.2273C173.425 28.2273 174.209 28.1193 174.902 27.9034C175.595 27.6761 176.197 27.3523 176.709 26.9318C177.22 26.5114 177.635 26.0057 177.953 25.4148C178.283 24.8125 178.504 24.1364 178.618 23.3864L188.232 23.4545C188.118 24.9318 187.703 26.4375 186.987 27.9716C186.271 29.4943 185.254 30.9034 183.936 32.1989C182.629 33.483 181.01 34.517 179.078 35.3011C177.146 36.0852 174.902 36.4773 172.345 36.4773C169.141 36.4773 166.266 35.7898 163.72 34.4148C161.186 33.0398 159.18 31.017 157.703 28.3466C156.237 25.6761 155.504 22.4091 155.504 18.5455C155.504 14.6591 156.254 11.3864 157.754 8.72727C159.254 6.05682 161.277 4.03977 163.822 2.67614C166.368 1.30114 169.209 0.613635 172.345 0.613635C174.55 0.613635 176.578 0.914771 178.43 1.51704C180.283 2.11932 181.908 3 183.305 4.15909C184.703 5.30682 185.828 6.72159 186.68 8.40341C187.533 10.0852 188.05 12.0114 188.232 14.1818ZM202.077 1.09091V36H192.668V1.09091H202.077ZM219.484 36.4773C216.643 36.4773 214.212 35.9148 212.189 34.7898C210.166 33.6534 208.615 32.0739 207.536 30.0511C206.456 28.017 205.916 25.6591 205.916 22.9773C205.916 20.2955 206.456 17.9432 207.536 15.9205C208.615 13.8864 210.166 12.3068 212.189 11.1818C214.212 10.0455 216.643 9.47727 219.484 9.47727C222.325 9.47727 224.757 10.0455 226.78 11.1818C228.803 12.3068 230.354 13.8864 231.433 15.9205C232.513 17.9432 233.053 20.2955 233.053 22.9773C233.053 25.6591 232.513 28.017 231.433 30.0511C230.354 32.0739 228.803 33.6534 226.78 34.7898C224.757 35.9148 222.325 36.4773 219.484 36.4773ZM219.553 29.5227C220.348 29.5227 221.036 29.2557 221.615 28.7216C222.195 28.1875 222.643 27.4261 222.962 26.4375C223.28 25.4489 223.439 24.2727 223.439 22.9091C223.439 21.5341 223.28 20.358 222.962 19.3807C222.643 18.392 222.195 17.6307 221.615 17.0966C221.036 16.5625 220.348 16.2955 219.553 16.2955C218.712 16.2955 217.99 16.5625 217.388 17.0966C216.786 17.6307 216.325 18.392 216.007 19.3807C215.689 20.358 215.53 21.5341 215.53 22.9091C215.53 24.2727 215.689 25.4489 216.007 26.4375C216.325 27.4261 216.786 28.1875 217.388 28.7216C217.99 29.2557 218.712 29.5227 219.553 29.5227ZM253.848 24.5455V9.81818H263.257V36H254.325V31.0227H254.053C253.484 32.6932 252.49 34 251.07 34.9432C249.649 35.875 247.962 36.3409 246.007 36.3409C244.178 36.3409 242.575 35.9205 241.2 35.0795C239.837 34.2386 238.774 33.0795 238.013 31.6023C237.263 30.125 236.882 28.4318 236.871 26.5227V9.81818H246.28V24.5455C246.291 25.8409 246.621 26.858 247.268 27.5966C247.928 28.3352 248.848 28.7045 250.03 28.7045C250.814 28.7045 251.49 28.5398 252.058 28.2102C252.638 27.8693 253.081 27.392 253.388 26.7784C253.706 26.1534 253.859 25.4091 253.848 24.5455ZM277.52 36.3409C275.656 36.3409 273.94 35.8523 272.372 34.875C270.815 33.8977 269.565 32.4148 268.622 30.4261C267.69 28.4375 267.224 25.9318 267.224 22.9091C267.224 19.75 267.713 17.1818 268.69 15.2045C269.679 13.2273 270.952 11.7784 272.509 10.858C274.077 9.9375 275.724 9.47727 277.452 9.47727C278.747 9.47727 279.884 9.70455 280.861 10.1591C281.838 10.6023 282.656 11.1989 283.315 11.9489C283.974 12.6875 284.474 13.5 284.815 14.3864H284.952V1.09091H294.361V36H285.02V31.7045H284.815C284.452 32.5909 283.929 33.3864 283.247 34.0909C282.577 34.7841 281.759 35.3352 280.793 35.7443C279.838 36.142 278.747 36.3409 277.52 36.3409ZM280.997 29.1136C281.861 29.1136 282.599 28.8636 283.213 28.3636C283.838 27.8523 284.315 27.1364 284.645 26.2159C284.986 25.2841 285.156 24.1818 285.156 22.9091C285.156 21.6136 284.986 20.5057 284.645 19.5852C284.315 18.6534 283.838 17.9432 283.213 17.4545C282.599 16.9545 281.861 16.7045 280.997 16.7045C280.134 16.7045 279.395 16.9545 278.781 17.4545C278.179 17.9432 277.713 18.6534 277.384 19.5852C277.065 20.5057 276.906 21.6136 276.906 22.9091C276.906 24.2045 277.065 25.3182 277.384 26.25C277.713 27.1705 278.179 27.8807 278.781 28.3807C279.395 28.8693 280.134 29.1136 280.997 29.1136Z" fill="#025810"/>
</svg>
