<svg width="393" height="852" viewBox="0 0 393 852" fill="none" xmlns="http://www.w3.org/2000/svg">
<g clip-path="url(#clip0_553_2346)">
<path d="M0 230V0H393V225C391.45 228.24 388.14 228.66 383.08 226.25L371.66 221.28C354.65 218.43 337.68 215.38 320.75 212.12C311.33 213.06 303.4 211.29 294.72 208.03C268.22 206.88 241.51 205.39 214.6 203.56C202.55 199.19 193.06 199.05 181.08 203.75C176.56 204.84 171.93 204.91 167.2 203.95C150.56 207.45 134.3 207.86 118.42 205.17C116.5 209.63 111.29 210.2 107.05 210.06C98.56 208 90.82 208.88 83.82 212.7C56.78 217.49 30.1 223.61 3.77 231.07L0 230Z" fill="#1C173B"/>
<path d="M393 741V852H-1.95317e-05V801L2.22998 799.91C14.22 804.44 29.54 801.19 39.05 792.77C37.7 791.23 37.11 790.54 38.99 789C37.09 788.45 37.12 787.68 37.61 786.09C24.17 780.42 12.71 788.01 2.28998 796.06L-0.0200195 795V755L0.69998 752.94C10.95 751.15 14.23 747.75 1.89998 752.04L-0.0200195 751V736L2.48998 733.3C20.36 728.19 36.85 723.75 55.52 725.32C62.68 727.59 70.2 727.61 78.07 725.38C121.22 716.47 169.01 709.5 212.49 719.1C234.2 716.13 252.78 715.44 275.15 718.17L318.33 724.59C340.09 723.9 359.87 728.45 380.47 735.9C385.59 736.55 389.76 738.24 392.99 741H393Z" fill="#F0C1BA"/>
<path d="M393 225V260C392.72 262.41 392.51 262.66 390.31 262.95C389.23 263.1 373.36 260.44 371.33 259.99C362.48 258 355.95 254.7 347.98 250.59C344.19 248.53 341.5 248.64 337.66 250.61C323.36 247.11 308.42 243.82 293.34 241.9C286.36 242.71 279.93 242.06 274.06 239.93C270.64 242.13 268.46 242.7 265.87 239.08C261.85 240.84 258.57 240.08 255.32 237.26C241.48 237.78 227.73 237.89 214.07 237.58L206.27 235.27C190.34 238.09 175.34 239.99 159.57 237.26C142.07 240.81 124.3 242.59 106.26 242.59L87.01 247.16C79.28 248.47 67.2 249.7 61.99 242.99C59.78 243.68 59.22 242.51 58.39 240.76C54.72 248.07 49.72 254.56 41.79 257.16C44.3 257.87 45.36 259.15 44.99 260.99C48.57 264.73 44.68 267.78 40.79 269.34L32.56 272.05C23.68 277.55 13.72 281.02 2.66998 282.46L-0.0200195 280.99V229.99C7.49998 227.95 15.87 226.11 23.22 223.73C42.54 217.47 63.32 215.72 83.26 210.77C85.97 210.1 88.51 207.78 91.72 207.23C98.65 206.04 110.19 210.51 115.55 206.02C116.57 205.17 116.73 203.02 117.62 202.91C118.51 202.8 120.12 203.76 121.48 203.78C126 203.85 126.55 204.71 129.56 205C140.9 206.11 154.55 203.16 166.49 201.99C169.84 201.66 172.71 203.01 175.24 202.78C181.5 202.21 190.52 198.42 196.41 197.94C203.1 197.39 210.09 201.18 217.47 201.99C238.82 204.33 260.09 202.28 281.52 205.94C287.39 206.94 290.61 205.76 294.4 205.99C297.09 206.15 304.65 209.51 307.51 209.95C311.9 210.63 317.93 209.73 322.13 210.23C338.71 212.22 354.85 217.82 371.23 219.2C376.65 219.66 386.25 228.18 392.96 224.99L393 225Z" fill="#272548"/>
<path d="M70 262C73.88 264.44 77.98 266.1 82.31 266.96C139.34 258.12 197.21 253.93 254.34 256.7C284.69 260.69 314.71 266.64 344.41 274.56C352.34 273.59 358.62 273.58 365.67 277.71C372.94 277.21 378.82 278.86 383.3 282.65C388.62 282.13 391.85 283.25 392.99 286V313L390.52 314.38C364.29 307.32 337.78 301.51 311 296.92C308.8 296.44 296.77 292.41 296.39 291.59C296.01 290.77 296.5 288.9 296.99 288C295.95 286.96 294.9 286.24 293.84 285.83C277.71 286.8 267.32 282.13 254.84 272.01C250.97 270.88 248.02 269.21 245.99 267C242.06 265.97 237.92 265.97 233.99 267C232.14 269.89 222.66 273.72 219.99 271L211.59 274.7C185.33 279.37 158.63 280.73 132.07 282.04C120.27 283.73 108.51 283.37 96.8 280.97C81.02 288.9 63.72 294.08 44.91 296.5C36.02 300.85 28.06 304.65 17.94 304.46L7.89999 308.82C3.72999 310.83 1.08999 310.56 -0.0100098 308.01V281.01C7.74999 279.33 17.64 277.42 24.85 274.37C27.54 273.23 29.58 271.24 31.73 270.25C36.67 267.97 45.62 267.85 44.99 261.01L47.57 260.47C51.94 263.88 55.61 268.12 57.94 273.17L62.35 265.68C65.17 261.03 67.72 259.81 69.99 262.02L70 262Z" fill="#333557"/>
<path d="M393 260V286C389.85 284.24 386.31 285.46 382.89 284.57C381.07 284.1 381.24 282.36 379.05 281.48C374.39 279.6 370.16 280.56 365.73 279.76C362.35 279.15 359.47 276.54 356.44 276.05C352.6 275.44 346.3 277.03 343.87 276.48C318.48 270.77 292.56 263.76 266.45 260.05C255.97 258.56 244.97 257.88 234.54 258.06C223.77 258.24 214.44 258.4 203.57 258.03C198.01 257.84 193.45 257.68 187.61 258.1C154.16 260.49 121.28 263.93 88.6501 267.34C86.5401 267.56 84.3201 268.9 82.3801 268.96C79.2501 269.04 70.2501 266.14 70.0101 262.01C69.4901 260.08 70.9001 258.44 74.2201 257.09L66.9901 253.01C64.1101 250.81 59.4801 246.46 62.0101 243.01C67.6601 246.01 76.7901 246.54 83.2701 245.78C91.3401 244.84 102.03 240.13 110.36 240.38C119.9 240.68 127.62 240.31 137.46 238.95C142.99 238.19 157.31 234.73 162.38 235.27C165.6 235.61 171.36 236.75 174.46 236.88C184.71 237.34 195.92 234.27 205.64 233.31C208.62 233.02 213.24 235.71 214.49 235.62C220.16 235.23 219.84 235.67 225.47 236.04C235.2 236.68 245.77 234.25 255.4 235.26C257.15 235.45 258.53 237.7 260.58 238.01C262.83 238.34 265.11 236.97 266.39 237.22C267.67 237.47 268.57 239.72 269.63 239.92C270.76 240.12 272.04 238.15 273.55 237.98C275.82 237.71 277.48 239.83 279.54 239.98C284.73 240.35 289.59 239.18 296.25 240.25C305.37 241.71 317.03 243.49 326.04 245.46C329.33 246.18 332.8 248.63 335.77 248.81C338.74 248.99 340.34 246.56 343.41 247C348.7 247.75 359.87 254.86 365.78 256.72C371.31 258.47 376.77 258.44 382.26 259.24C385.8 259.76 388.67 262.45 392.99 260.01L393 260Z" fill="#2C2C4E"/>
<path d="M6.99998 567C9.27998 563.44 23.47 562.79 25.88 565.47C44.14 588.17 63.61 609.49 84.32 629.43C88.35 633.3 88.25 635.49 84 636C82.83 648.41 90.23 662.66 98.14 672.3L98 675C100.52 679.34 96.73 690.83 90.39 685.36L80.35 676.37C77.85 675.24 76.06 673.79 74.99 672L73.55 670.34C79.98 654.81 69.76 655.04 72.8 670.58L70.99 671.99L69.44 672.12C66.07 665.03 62.26 658.32 57.99 651.99L57.61 649.59L64.99 643.99L64.3 642.77C69.45 638.53 64.59 631.92 59.26 629.83C59.31 634.53 57.71 636.42 54.47 635.52C47.66 624.16 36.9 633.55 44.6 642.81L43.98 645C45.43 647.93 43.27 648.6 37.51 647.01C35.4 647.09 36.08 650.53 36.88 651.85C42.17 660.56 48.23 656.75 54.86 652.04L56.98 653C62.11 656.89 66.86 665.28 68.89 671.68C68.99 671.99 68.56 672.47 67.98 673C69.16 676.15 68.65 691.84 67.47 693.82C64.48 698.84 58.42 689.85 56.96 687.28C51.03 679.82 47.72 678.34 47.03 682.84L45.2 694.89C43.57 700.87 35.37 696.31 37.97 692L34.74 691.66C32.43 689.02 16.96 676.1 14.57 677.98C14.3 684.15 13.2 689.58 11.29 694.26L7.97998 694C6.91998 696.87 0.59998 696.21 -0.0200195 693V564C3.02998 564.03 5.35998 565.03 6.97998 567H6.99998Z" fill="#414361"/>
<path d="M393 566V690C391.91 691.81 389.76 692.86 386.54 693.16C377.2 699.64 373.35 699.25 375 692C373.32 690.05 372.68 687.19 373.08 683.42C372.97 682.65 372.74 682.06 372.44 681.38C370.94 677.92 350.41 694.9 348.32 697.42C345.27 700.17 342.18 699.08 341.72 695.05C335.6 697.84 333.36 697.16 335 693.01C332.99 690.4 336.28 685.87 339 689.01C340.15 686.95 342.52 686.05 346.1 686.29C362.26 679.96 346.1 677.78 341.36 686.21L339 686C338.15 686.44 336.61 686.39 336.6 685.84C336.58 683.35 345.67 665.31 347.65 661.56C347.82 661.23 348.36 661.09 349 661.01L350.7 659.41L363.13 662.26C370.89 666.76 388.36 655.9 377.89 650.19L377.14 647.63C381.87 641.64 383.88 633.95 373.39 634.81L372 633L369.87 632.1C367.75 620.02 352.99 616.02 347.5 628.08C346.9 636.69 344.41 639.37 340.03 636.14C337.7 631.58 334.72 626.45 330.42 632.52C326.78 637.65 328.13 645.88 329 651C334.54 653.71 340.25 655.93 346.15 657.65L347 660C346.83 666.81 341.36 675.83 337 681C335.21 683.05 334.62 682.69 335 680L332.39 680.08C325.01 674.41 314.45 674.36 305.59 675.7L303.99 674.01C300.81 676.22 298.76 674.96 297.85 670.25C294.39 672.2 291.77 672.45 289.99 671.01C287.92 667.49 292.55 658.76 295.99 657.01L298.71 651.49C324.26 626.89 349.13 601.73 373.32 576.03C375.49 571.31 378.38 567.97 382 566.01C376.58 559.01 391.56 560.67 393 566.01V566Z" fill="#414361"/>
<path d="M102 705C114.14 706.15 126.54 707.46 139.21 708.91C196.7 706.73 256.47 706.26 312.86 712.8C316.02 711.88 319.07 711.62 322 712C324.08 710.81 326.41 711.14 329 713L330.85 711.2C344.52 713.91 357.92 717.7 371.03 722.56L372 725C379.46 724.3 387.83 727.59 393 733V741C375.77 737.9 357.55 729.23 340.22 727.28C334.28 726.61 328.33 727.46 322.51 726.99C296.87 724.89 272.95 717.8 245.44 717.96C235 718.02 221.13 721.48 211.48 721.08C207.34 720.91 202.76 718.67 198.37 718.13C168.12 714.39 134.69 717.83 104.66 722.18C93.06 723.86 70.85 730.2 60.57 728.93C58.18 728.64 56.15 727.24 53.5 727.01C35.09 725.41 17.53 731.68 -0.0100098 736.02V730.02C8.19999 723.2 21.23 720.1 31.99 720.02C34.13 716.22 41.22 713.84 44.99 716.02L46.66 713.52C54.2 711.42 61.82 709.69 69.52 708.34L71.99 710.02C72.32 709.23 72.65 709.23 72.99 710.02C73.64 710.74 74.31 710.72 74.99 710.02C73.66 708.56 74.22 708.03 75.99 709.02L77 706.66C84.79 705.07 92.63 703.89 100.53 703.08L101.99 705.02L102 705Z" fill="#E7B7B1"/>
<path d="M86 336C87.15 336.73 87.53 337.73 87.64 338.99C88.96 355.27 90.23 360.7 97.02 375.57C97.54 376.7 97.56 377.82 97.01 378.99L95.4 381.26C76.66 387.18 57.71 392.64 38.54 397.64C33.2 401.94 26.74 403.88 19.15 403.46L9.88001 408.62C4.92001 411.69 1.63001 411.81 0.0100098 408.99V364.99L3.01001 362.25C21.55 356.74 40.11 350.69 57.01 341.99C58.89 341.45 60.31 342.69 61.25 345.7L68.66 339.36L71.01 339.98C72.64 339.04 74.87 338.57 77.69 338.58C80.81 335.96 83.59 335.09 86.01 335.98L86 336Z" fill="#48516F"/>
<path d="M86 336C80.69 338.57 77.62 343.29 71 340C68.12 341.47 65.64 339.29 63.55 333.47C63.04 333.6 54.26 339.28 57.91 339.8L57 342.01C57.15 344.48 55.47 344.55 54.02 345.53C47.58 349.87 27.48 356.42 18.96 359.47C12.85 361.66 6.37 363.67 0 365.01V324.01C0.43 321.04 2.6 319.78 6.53 320.24L13.31 320.66C15.66 317.38 19.14 315.44 23.75 314.85C25.03 312.31 26.87 310.85 29.27 310.46C35.92 312.6 39.01 312.88 44.63 308.85C60.74 306.36 75.42 301.09 88.69 293.02L92 293L92.77 294.69C90.37 307.88 88.49 321.22 87.36 334.56L86 336Z" fill="#3B3F5F"/>
<path d="M284 308C285.87 307.49 287.86 308.14 289.97 309.95C318.4 314.99 348.7 320.93 377.75 328.35C382.38 331.19 386.4 331.46 391.67 330.96L393 333V348L391.46 350.05C373.71 348.25 355.57 341.8 339.51 334.33L340 332.01C336.43 334.38 332.51 336.9 328.13 339.22C322.16 342.38 311.54 345.41 305.5 344.01C304.35 345.09 286.83 346.09 286.16 345.34C285.84 344.98 285.65 344.51 285.5 344.01L284.99 345.37C278.89 346.96 272.99 349.19 267.31 352.06L265 351.01L261.6 347.78C257.68 338.48 254.26 329.01 250.99 319.47C246.72 307.05 243.56 281.76 261.14 301.52C267.17 307.58 273.14 309.9 281.5 307.03L284 308.01V308Z" fill="#3E4363"/>
<path d="M97 379C100.35 379.69 106.79 386.24 102 388L100.83 390C93.09 390.51 85.48 391.84 78 394C78.72 398.22 80.66 402.14 83.8 405.76L83 408C83.97 409.58 83.91 410.26 82 410L71.76 423.72L69 424C64.7 425.66 60.14 427 55.33 428L35.69 436.64C32.79 437.27 23.82 436.65 22 434C18.76 433.54 16.76 430.54 16 425C16.32 428.37 3.73 447.47 2.48 447.94C1.65 448.25 0.85 448.34 0 448V409C7.05 410.21 14.56 402.27 19.73 401.23C23.11 400.55 26.52 401.41 30.07 400.57C33.62 399.73 34.83 396.78 38.16 395.66C50.3 391.59 66.45 388.32 79.05 384.55C85.02 382.76 90.67 379.74 97 379Z" fill="#525F7A"/>
<path d="M220 271C218.36 276.22 209.38 282.38 204 283L198.45 285.98C187.07 284.09 175.41 284.19 163.47 286.28C143.95 289.06 123.66 291.09 104.02 288.77C103.88 291.06 103.32 292.09 101 291C98.63 291.12 96.62 286.96 96.29 284.62L95 284C94.38 287.82 93.38 290.82 92 293C85.31 298.38 78.1 301.8 69.95 304.45C61.27 307.28 52.14 308.49 43.72 311.22C42.17 311.72 41.62 313.54 39.48 313.98C35.19 314.86 30.11 312.16 28.91 312.43C26.67 312.94 26.23 315.5 24.92 316.42C22.92 317.83 20.17 317.45 18.06 318.56C16.45 319.41 15.16 322.02 14.04 322.45C12.14 323.17 3.62999 320.69 -0.0100098 324V308C6.66999 308.99 12.56 303.46 17.98 302.4C21.22 301.77 24.52 302.31 28.78 301.28C34.62 299.87 40.6 295.42 44.92 294.43C57.47 291.56 70.49 289.2 83.04 285.55C86.72 284.48 90.84 281 92.87 280.53C101.89 278.47 112.86 281.11 121.47 281.47C125.02 281.62 129.16 280.17 132.5 280.01C161.13 278.6 192.08 277.02 219.99 271H220Z" fill="#343657"/>
<path d="M297 288C297.22 288.62 296.49 289.13 297.62 290.08C298.12 290.5 308.38 294.15 309.93 294.57C319.79 297.26 330.86 298.24 340.33 300.08C354.25 302.79 368.72 307.08 381.98 310.52C385.61 311.46 389.42 311.84 393 313V333C389.66 332.78 385.99 333.46 382.72 332.78C380.87 332.39 379.26 330.75 377.23 330.27C354.37 324.97 332.66 319.86 310.27 315.23C301.7 313.46 290.76 315.48 284 308L283.49 306.73C288.11 301.24 292.27 295.33 296 289C295.72 288.06 296.05 287.72 297 288Z" fill="#383C5D"/>
<path d="M365 417C366.24 421.89 367.16 423.32 370.71 419.33L373 420L375.55 419.86C380.29 423.93 385.86 426.82 392.25 428.53L392.99 431V460C391.53 462.21 388.87 462.41 385.02 460.62C370.26 451.38 355.31 444.15 338.18 440.6C336.38 441.41 334.98 441.21 333.99 440L331.82 439.5C325.44 429.47 318.57 419.68 311.21 410.13L311.99 409C310.17 406.72 315.72 402.39 317.99 404L319.8 402.52C323.17 400.49 352.31 411.73 355.76 415.57C361.81 412.92 364.89 413.39 364.99 417H365Z" fill="#56647F"/>
<path d="M393 398V431C385.24 427.67 378.67 426.78 373 420L370.8 420.58C369.34 418.07 367.4 416.88 365 417C361.88 413.94 357.28 418.17 355.65 417.85C354.58 417.64 353.27 415.43 351.72 414.78C345.01 411.95 337.65 409.12 330.99 406.52C327.02 404.97 322.17 404.95 318 404.01L317.18 401.72C321.46 394.86 325.23 387.53 327.73 379.81L330 379.02C332.01 374 337.09 377.69 339.23 380.82L344.17 380.49C359.9 385.92 375.7 391.16 391.58 396.23L393.01 398.02L393 398Z" fill="#4F5B77"/>
<path d="M393 365V398C385.32 395.78 377.4 394.2 369.8 391.7C362.2 389.2 352.92 384.29 344.85 382.6C341.97 382 339.44 383.05 338.58 382.84C337.36 382.55 335.29 376.72 330 379C329.66 378.32 329.35 377.64 329.19 376.92C328.5 373.93 334.01 350.72 335.34 345.53C335.5 344.92 336.18 344.44 337.01 344C338.93 342.95 340.82 344.34 342.69 348.15C358.28 351.98 373.17 356.89 387.35 362.87C390.01 362.86 391.9 363.57 393.01 365.01L393 365Z" fill="#474F6E"/>
<path d="M20 536L10.14 564.9L7 567C3.58 566.91 2 567.48 0 564V448L16 425L17.04 429.03C16.78 449.56 16.09 469.89 14.97 490.02C14.59 504.51 14.46 519.69 20.68 533.04L20 536Z" fill="#747295"/>
<path d="M393 460V481C388.54 483.74 384.44 474.89 383 471C381.4 476.02 379.06 478.36 376 478C372.88 480.43 369.7 481.6 366.45 481.5C356.31 474.35 345.75 470.24 334.06 465.94C326.28 459.13 323.08 457.24 312.6 459.8L311 458L311.97 455.46C317.36 453.93 322.51 451.89 327.43 449.33L330 450C329.92 447.42 330.03 447.38 332 449C331.5 444.95 332.17 441.95 334 440C338.03 437.35 341.6 439.01 345.98 440.52C351.78 442.52 361.71 445.65 366.75 447.75C372.32 450.07 379.2 456.23 385.01 458.49C387.45 459.43 390.37 459.96 393 460Z" fill="#5D6D86"/>
<path d="M383 471C387.75 473.03 388.25 479.55 393 481V566C390.02 566.09 385.23 561.93 382.93 563.44C382 564.06 382.29 565.53 382 566C379.74 568.44 378.02 568.9 376 566L374.73 563.86C379.12 556.41 381.03 549.84 379.45 540.98C378.53 531.62 377.75 522.36 378 513C377.23 512.91 376.06 512.58 376.09 512.09C376.7 502.48 378.15 485.7 380.3 476.75C380.8 474.65 381.48 472.68 383 471Z" fill="#69668A"/>
<path d="M393 348V365C386.53 366.54 382.15 362.14 377 360.5C365.31 356.78 353.33 353.71 341.69 349.81L337 344C335.12 342.37 336.81 339.1 338 337C334.32 335.78 337.27 331.64 340 332C340.75 333.64 349.43 336.63 351.94 337.56C362.08 341.3 375.8 345.89 386.77 347.75C388.85 348.1 390.91 348.09 393 348.01V348Z" fill="#404564"/>
<path d="M393 690V733C386.07 730.19 379.09 727.39 372 725C370.24 723.89 370.59 722.58 371.78 721.18L382.31 710.38C386.62 707.23 383.73 705.78 373.64 706.03C368.63 704.78 371.07 692.93 375 692C373.45 700.62 382.58 692.57 385.8 691.3C388.01 690.43 390.62 690.01 393 690Z" fill="#305C56"/>
<path d="M8 694C12.49 692.72 19.35 693.52 22 698L20.13 700.53C18.27 701.02 9.26 703.79 9.12 704.51C8.95 705.4 20.81 714.99 23.25 715.63L24 718C26.67 716.09 32.04 715.95 32 720C21.23 723.06 10.48 726.02 0 730V693C2.41 693.83 5.85 693.5 8 694Z" fill="#396C58"/>
<path d="M39 789C37.82 793.28 31.2 795.75 26.82 797C23.09 798.06 6.11 800.41 2.43 800.32L0 799.01V795.01C4.13 793.11 6.82 789.86 10.98 787.49C16.37 784.42 23.13 781.5 29.38 782.1C30.73 782.23 38.31 784.02 39.01 784.5C40.97 785.85 38.85 787.67 38.99 789H39Z" fill="#D6A29C"/>
<path d="M39 789C39.32 791.93 44.62 790.75 39.02 795.52C30.08 803.14 10.52 807.06 0 801V799C9.94 795.41 21.3 797.75 31 793.5C33.85 792.25 35.86 789.62 39 789Z" fill="#AE8080"/>
<path d="M0 755V751C1.72 748.99 14.09 746.14 13.98 749.5C13.9 751.99 2.59 755.03 0 755Z" fill="#DCAAA5"/>
<path d="M25.01 206.99C24.58 206.56 24.05 201.72 27.49 203.01C31.34 204.44 26.65 208.64 25.01 206.99Z" fill="#6A7895"/>
<path d="M19.99 201.01C20.72 201.74 19.62 205.46 17.51 205C13.81 204.19 18.06 199.08 19.99 201.01Z" fill="#61698F"/>
<path d="M133 785C130.39 791.28 119.71 793.6 112.91 793.93C95.2299 792.64 78.8999 796.15 62.1999 802.15L58.9999 801C58.6299 799.22 59.2699 797.21 60.1299 795.63C62.7599 790.75 91.0199 771.2 96.7399 770.24C110.54 767.92 124.55 774.15 133 785Z" fill="#B4B6CA"/>
<path d="M133 785C136.63 789.66 137.58 789.84 133 795L133.15 797.71C127.78 806.02 89.07 813.77 78.68 812.73C74.87 812.35 67.43 811.18 67 807C64.97 806 59.43 803.07 59 801C69.81 797.92 82.44 793.15 93.63 792.13C102.77 791.29 112.23 793.12 121.23 790.73C125.71 789.54 128.84 786.54 133 785Z" fill="#8488A4"/>
<path d="M378 767L377.3 768.17C356.92 762.34 336.67 756.04 316.54 749.27L316 747C317.15 745.73 317.14 745.38 318.97 744.49C325.5 741.32 339.85 736.84 346.82 738.68C350.33 739.61 363.03 746.96 366.01 749.49C372.33 754.87 374.13 760.66 378 767Z" fill="#F8D2CC"/>
<path d="M380 771C381.36 773.13 385.49 776.32 385.85 777.67C387.47 783.69 377.2 779.25 374.49 779.01C358.98 777.67 334.3 774.92 320.66 766.84C319.79 766.33 314.23 761.74 314.09 761.34C313.16 758.5 315.73 757.29 316 756C317.46 752.33 321.01 753.33 326.67 758.99C338.55 762.64 350.99 764.49 364 764.54C369.35 765.49 376.55 766.9 380 771Z" fill="#AE8082"/>
<path d="M67 807C76.49 811.67 81.03 811.41 91.21 809.71C104.22 807.53 124.29 804.81 133 795C139.61 797.87 131.37 804.81 127.91 807.41C121.33 812.37 100.43 815.71 91.37 816.87C86.46 817.5 67.81 819.56 65.44 814.99C64.07 812.35 67.46 809.94 67 806.99V807Z" fill="#B18283"/>
<path d="M378 767C378.84 768.38 379.41 770.08 380 771C364.02 762.72 340.95 768.26 325.75 760.75C322.74 759.27 319.43 753.8 316 756C316.62 753.04 314.19 750.06 314.32 748.44C314.39 747.45 315.66 747.38 316 747L378 767Z" fill="#E3B4AE"/>
<path d="M72 752C59.76 758.23 43.74 759.32 29.82 758.85L27 757C27.81 749.83 40.48 740.27 47.6 740.09C51.27 740 72.21 748.12 72.91 750.66C73.12 751.44 72.03 751.86 72 752Z" fill="#DCA7A0"/>
<path d="M244 779L248.35 776.94C261.41 776.99 274.36 776.45 287.19 775.32C287.17 777.98 283.95 769.57 287 769.01C289.16 769.48 292.26 773.92 291.85 776.29C291.59 777.81 290.02 778.84 289.57 780.08C288.97 781.7 289.14 783.52 288.45 784.96C284.71 792.85 265.91 789.05 258.99 787.52C254.52 786.53 241.36 784.03 244 779.01V779Z" fill="#AD7F80"/>
<path d="M96.13 750.87C91.77 743.85 109.78 738.44 114.52 738.01C118.02 737.69 135.28 737.05 128.99 744.48C124.99 749.21 98.66 754.93 96.14 750.86L96.13 750.87Z" fill="#DFACA6"/>
<path d="M286 769C285.53 773.3 277.43 775.52 273.43 776.07C267.19 776.94 256.69 777.54 250.53 776.9L248 775C248.19 774.8 248.05 773.43 249.02 772.56C257.76 764.68 279.02 753.82 286 769Z" fill="#F8D0CA"/>
<path d="M72 752C70.67 758.28 62.68 760.75 56.78 762.28C49.99 764.04 25.69 768.56 27 757C35.03 756.45 44.53 756.83 52.39 755.89C56.82 755.36 62.88 753.18 67.64 752.12C68.86 751.85 71.29 750.3 72 752Z" fill="#AE8080"/>
<path d="M261 822C261.63 824.94 259.48 826.59 254.54 826.97L245 828C239.78 827.59 229.93 825.9 224.72 824.78C223.4 824.49 219.7 822.8 221.98 821.49C223.32 820.72 232.67 818.34 234.6 818.11C241.09 817.35 256.24 817.23 260.99 822H261Z" fill="#DAA7A1"/>
<path d="M244 779C245.03 777.04 246.6 776.45 248 775C257.7 774.87 267.32 775.78 276.8 773.3C280.52 772.33 283.63 769.79 286 769C286.21 768.93 286.77 768.95 287 769L288.96 776.43L287.31 777.81L244 778.99V779Z" fill="#D5A3A0"/>
<path d="M245 828C250.55 825.77 256.68 826.95 261 822C268.18 829.21 249.46 828.35 245 828Z" fill="#BF8E8B"/>
<path d="M45.0001 261C43.9901 260.25 37.4301 258.17 39.0001 256.01C39.2401 255.69 44.6901 253.95 46.3301 252.83C50.5701 249.94 53.7901 245.13 56.2101 240.68C57.2301 238.81 56.7801 234.49 59.2401 238.29C60.1101 239.63 61.0601 241.46 62.0001 243C63.8801 246.09 63.35 247.28 66.99 250.51C69.55 252.78 76.6601 255.55 77.0001 256.01C78.3101 257.8 71.6001 260.85 70.0001 262C69.6201 262.27 68.4201 262.23 67.5001 262.96C62.1001 267.22 61.96 273.08 57.01 277C55.43 270.32 50.3701 264.98 45.0001 261Z" fill="#6C728F"/>
<path d="M195 205C195.82 204.18 203.1 204.89 200.53 209.03C197.21 214.39 192.84 207.16 195 205Z" fill="#DEAE68"/>
<path d="M97 214C97.11 215.39 97.1 216.67 96.48 217.98C93.47 224.3 86.17 212.18 97 214Z" fill="#EDBD6D"/>
<path d="M365.01 226C363.87 225.19 363.5 219.9 367.49 221.01C371.05 222 367.81 227.98 365.01 226Z" fill="#C89F7C"/>
<path d="M31.99 228.99C30.06 230.92 25.81 225.81 29.51 225C31.62 224.54 32.72 228.26 31.99 228.99Z" fill="#7787AE"/>
<path d="M234 267C237.91 265.96 242.1 265.96 246 267C259.6 268.58 266.25 280.86 277.58 282.92C282 283.72 291.83 283 295.36 284.14C297.63 284.87 296.6 286.86 297 288C296.63 288.28 296.36 288.73 296 289C284.99 313.43 262.85 309.91 250 289.08C246.1 289.7 249.97 323.8 250.72 328.91C251.14 335.67 251.73 348.86 248.59 355.1C240.29 371.58 201.35 367.31 186.18 363.42L185.01 360.99L182.59 359.3C179.21 346.86 171.12 336.19 161.5 327.83L161.01 324.99L161.33 322.84C172.94 310.24 185.02 297.96 197.58 286.02L204.02 282.99C209.44 278.33 214.38 275.33 220.02 270.99C224.92 269.93 228.68 267.51 234.02 266.99L234 267Z" fill="#BEBC7A"/>
<path d="M246 267C242.91 266.64 237.14 266.7 234 267C236.67 265.33 243.13 265.3 246 267Z" fill="#373A5B"/>
<path d="M68 531C68.37 530.69 68.76 530.42 69.19 530.3C70.85 529.82 83.97 551.65 84.73 554.51C84.13 555.76 84.22 557.25 85 559C88.24 558.27 89.53 563.19 87 565C96.48 577.66 105.37 590.72 113.67 604.17C115.83 604.19 116.75 605.35 118 607L121.01 608.87C129.34 623.89 141.67 635.21 158 642.83C160.39 645.81 160.96 655.75 158.5 658.07L159 662.01C161.75 663.95 161.73 667.06 159 669.01C158.94 671.87 156.68 671.74 156 669.01C151.99 666.94 150.94 660.41 151 656.01L148.48 655.41C145.74 649.3 141.39 644.61 135.43 641.54L135 639.01L131.96 639.69C117.7 634.63 102.55 634 86.52 637.81L84 636.01C85.46 634.33 86.77 635.86 85.01 633.51C76.74 622.54 60.5 609.06 50.49 598.02C41.46 588.06 32.92 577.49 24.58 566.93C21.03 564.34 11.71 567.13 7.01001 567C11.32 557.94 13.63 548.03 17.27 538.71C17.88 537.14 17.54 535.48 20.01 536L31.61 539.74L32.51 542C34.12 538.65 45.66 538.99 48.01 542L45.46 541.1L30.63 505.87C29.9 503.66 31.31 502.69 33.33 502.12C35.53 501.5 66.43 525.86 68 531Z" fill="#5D5A7D"/>
<path d="M135 639C139.81 643.74 129.24 659.82 123 658C122.3 659.83 121.34 659.33 119.95 658.44L121 661L122.37 662.87C121.32 668.26 114.9 684.57 108 682C105.07 684.08 97.01 678.59 98 675C89.11 666.56 82.34 649.58 81.06 637.42C80.81 635.09 82.26 636.13 84 636C102.84 634.58 117.52 629.43 135 639Z" fill="#BADF50"/>
<path d="M98 675C100.66 677.52 104.8 680.1 108 682L111.37 681.64C117.49 685.29 124.36 687.12 131.41 687.8L133 690C135.8 687.82 153.06 688.64 154.72 690.07C156.59 691.67 148.38 698.37 146 699C147.68 700.16 147.1 701.08 145 701C144.56 702.57 143.03 702.83 140.41 701.8C127.65 704.37 114.84 705.44 102 705C98.88 704.91 78.44 708 76 709C74.95 708.56 74.58 707.9 74.69 706.89C76.13 693.81 74.63 686.3 71.5 674.37L73.01 674C71.05 671.93 72.52 670.68 75.01 672C80.62 671.21 90.87 684.4 93.52 685C96.68 685.71 96.1 676.96 98.01 675H98Z" fill="#386B59"/>
<path d="M72 710C63.88 710.98 53.11 713.91 45 716L42.66 715.44C40.75 710.39 38.32 705.07 33.37 702.37L33 699.99C30.63 696.89 33 687.51 38 691.99C39.38 693.35 40.32 696.35 42.99 695.99C44.3 689.58 43.69 682.63 47.54 676.96C50.25 676.96 56.49 683.78 58.51 685.98C59.84 687.43 63.81 695.11 65.99 692.99C65.54 686.23 67 679.62 67.99 672.99C72.47 673.92 75.13 688.19 75.61 693.28C76.06 698.01 76.27 707.99 71.99 709.99L72 710Z" fill="#3B7059"/>
<path d="M44 645C32.68 634.75 47.3 619.8 55.51 633.99C58.26 635.39 55.71 628.91 58.6 628.04C62.89 626.76 70.89 636.81 68.08 641.27C67.66 641.94 66.02 642.78 65 644C59.66 649.94 47.62 653.87 44 645Z" fill="#F46A5F"/>
<path d="M38 692C32.87 690.74 35.53 697.07 33 700C32.67 700.86 32.34 700.86 32 700C30.46 702.45 21.99 701.18 22 698C17.31 696.81 12.31 695.01 8 694C11.06 694.03 10.55 692.63 11.01 690.5C11.58 687.86 11.74 676.37 13.66 675.93C19.64 674.56 33.69 687.74 38 691.99V692Z" fill="#305B57"/>
<path d="M65 644C63.09 646.27 60.08 650.2 58 652C59.31 653.45 58.72 654.01 57 653C55.96 653.83 48.21 658.58 47.29 658.79C36.21 661.27 30.47 646.69 36.72 645.13C38.5 644.69 40.46 645.78 42.41 645.94C43.13 646 43.87 644.98 44 645C45.4 645.15 47.79 647.38 49.73 647.77C56 649.05 59.58 646.13 65 644Z" fill="#C74546"/>
<path d="M71 672C73.2 670.72 73.91 671.72 73 674C71.43 677.29 76.56 688.13 76.98 693.51C77.4 698.89 76.41 703.71 76 709C75.87 709.05 75.02 709.93 75 710C74.44 711.91 73.56 711.91 73 710C72.67 710 72.32 709.96 72 710C76.46 700.01 74.22 687.83 70.78 677.72C70.05 675.57 68.54 674.25 68 673C66.98 670.62 66.76 668.3 65.17 665.33C62.84 660.97 59.7 657.11 57 653C57.35 652.72 57.64 652.31 58 652C64.49 657.12 66.42 665.89 71 672Z" fill="#718A7C"/>
<path d="M75 672C74.67 672.67 73.29 673.38 73 674C71.92 673.69 71.59 672.79 71 672C70.46 668.3 68.52 656.95 74.51 656.94C80.5 656.93 76.46 669.07 75 672Z" fill="#D86B66"/>
<path d="M363 554C365.01 552.21 367.17 553.21 369.49 557C371.34 560.3 373.51 563.3 376 566C378 566.06 380 565.96 382 566C378.4 571.88 375.01 577.72 370.51 583.01L296 657L294.24 655.7C294.68 653.05 297.79 634.17 296.47 634.05C294.51 633.88 274.72 638.31 270.85 639.19C266.87 641 263.26 641.6 260 641C259.28 643.51 257.39 645.63 254.32 647.36C252.1 650.61 249.66 652.49 247 653C246.93 658.16 245.26 661.49 242 663C238.63 663.86 235.68 665.87 233.14 669.01L231 668C229.8 660.22 229.36 652.61 229.67 645.16C254.69 636.63 273.96 622.59 274.18 593.97C274.52 592.53 275.79 592.54 278 593.99L279.55 592.43C286.45 593.81 293.81 591.8 300.01 588.7L291.47 586.42C288.39 585.48 282.93 582.51 287.01 579.99L286.53 577.7C290.16 573.02 298.59 563.36 303.52 560.68C305.63 559.53 309.69 557.5 311.01 559.99C314.72 556.2 320.95 553.04 326.01 554.99C327.98 556.41 328.12 559.29 326.44 563.63C333.89 579.94 352.8 572.34 349.39 555.83L351.01 553.99L353.48 552.65C357.09 554.16 359.67 554.71 363.01 553.99L363 554Z" fill="#5D5A7E"/>
<path d="M375 692C374.82 693.88 371.67 702.74 372.99 704C376.96 704.36 381.63 704.46 385.51 705C386.74 705.17 387.41 704.48 387.02 706.51C385.94 712.15 373.87 719.05 372 725C360.93 721.27 339.95 714.01 329 713C325.98 713.46 324.04 712.83 326.27 710.36C326.47 707.74 332.6 692.95 333.55 692.81C334.02 692.74 334.51 692.85 335.01 693C334.52 697.54 340.06 692.31 342.4 693.05C344.74 693.79 343.08 697.92 345.5 696.99C346.9 696.45 356.32 687.4 359.08 685.57C370.77 677.81 376.72 673.74 375.01 692H375Z" fill="#3B735B"/>
<path d="M372 633C376.14 635.1 373.42 642.55 371.28 645.83C364.41 656.39 339.25 656.19 329 651C328.05 649.79 326.76 649.81 326.21 647.29C324.78 640.72 327.66 624.28 336.98 628.52C339.78 629.79 341.08 636.52 343.48 635.99C346.52 629.99 343.37 627.16 349.47 621.97C358.79 614.05 370.94 621.76 371.99 632.99L372 633Z" fill="#F76A60"/>
<path d="M296 657C294.65 662.1 291.78 666.19 290 671C290.97 673.74 286.84 678.04 284 677C277.13 680.62 266.78 664.5 272 659C273.08 655.73 272.42 655.06 270 657C264.25 659.83 254.91 645.32 260 641C271.71 634.75 286.64 636.08 298.99 631C299.76 632.06 296.81 653.93 296 657Z" fill="#B9DF51"/>
<path d="M290 671C290.57 670.67 297.91 667.96 298.34 668.08C301.56 669.01 299.22 675.42 304 674C305.34 676.52 303.14 677.82 301 676C300.65 678.02 299.06 679.43 296.21 680.23C294.24 682.42 292.51 683.01 291 682L290.48 685.34C286.77 690.23 283.61 695.45 281 701C284.78 702.37 282.55 703.75 279 703L276.63 704.75C267.07 703.17 257.53 702.26 248 702C245.74 702.32 245.41 701.66 247 700C242.47 698.28 234.09 692.99 235 688C236.55 686.43 238.68 685.82 240 688C241.26 686.74 242.39 686.83 242.74 688.55C249.5 689.2 256.37 687.65 262.91 685.85L266 687C267.33 684.49 270.19 682.7 274.57 681.64C277.67 678.75 280.82 677.21 284 677C286.02 675.26 287.05 672.72 290 671Z" fill="#3C735A"/>
<path d="M372 633C379.81 631.55 385.38 635.4 382.07 643.58C381.12 645.92 378.83 646.74 379 648.99C388 649.93 380.79 662.25 374.73 664.23C368.67 666.21 355.68 662.9 349 661C347.1 662.89 346.58 662.59 347 660C340.36 657.91 333.5 656.7 329 651C344.52 652.21 374.27 657.26 372 633Z" fill="#CA4344"/>
<path d="M304 674C312.67 671.86 329.54 672.68 335 680L334.51 682.21C330.9 684.21 327.79 687.02 325.2 690.64L323 690C322.34 695.46 312.89 703.58 308 701C300.48 704.18 295.46 685.35 304.47 684.73L303 684C299.18 684.85 297.37 677.55 301 676C301.92 675.63 303.26 674.18 304 674Z" fill="#B4D952"/>
<path d="M335 680C335.27 680.36 336.5 680.62 337 681C336.27 689.88 331.02 698.74 326 706C320.54 706.65 320.35 693.83 323 690C326.62 686.61 329.49 681.2 335 680Z" fill="#345D56"/>
<path d="M349 661C346.85 668.62 340.65 676.7 338.41 684.05C338.03 685.32 339.01 685.9 339 686C340.55 686.96 340.55 687.96 339 689C335.85 689.78 336.01 691.45 335 693C332.28 697.18 328.86 705.22 327.43 710.01C326.71 712.44 327.22 711.76 329 713C323.7 712.51 327.65 716.51 323 716.99C323.1 714.6 325.82 711.46 322 712C321.13 711.72 321.14 711.38 322 711C322.29 709.39 324.07 706.47 326 706C329.64 697.72 333.24 689.21 337 681C340.21 674 344.54 667.36 347 660C347.85 660.27 348.59 660.88 349 661Z" fill="#74897E"/>
<path d="M339 689C337.23 688.57 338.93 686.65 339 686C342.87 680.87 345.63 678.15 352.54 678.95C359.45 679.75 352.97 685.63 349.71 687.22C345.85 689.1 342.19 688.22 339 689.01V689Z" fill="#E76E68"/>
<path d="M168 698L175.5 695.57C190.17 695.09 204.95 694.97 219.59 695.95L224.01 698L224.74 696.76C227.09 697.96 229.51 699.04 232.01 700C232.8 697.24 235.25 697.17 236.01 700C240.07 701.11 244.07 701.77 248.01 702C248.76 701.51 248.51 699.89 250.48 699.93C258.7 700.08 270.35 702.1 279.01 703C282.37 701.01 284.22 701.19 284.56 703.55C287.3 703.44 289.45 703.93 291.01 705C301.17 704.91 311.25 706.18 321.24 708.81L322.01 711V712C310.9 718.29 297.48 712.76 285.5 712C260.95 710.47 235.96 709.08 211.55 708.95C180.62 708.79 148.44 713.85 117.63 708.87C112.36 708.02 106.7 705.12 102.01 704.99L139.56 699.96C141.65 699.25 143.49 700.71 145.01 700.99C148.26 699.82 153.3 699.86 157.01 699.99C157.09 697.08 159.59 696.39 161.01 698.99C164.58 696.88 166.92 696.55 168.01 697.99L168 698Z" fill="#C3948F"/>
<path d="M45 716C40.73 717.1 36.28 718.78 32 720C29.61 718.67 27.02 718.88 24 718C24.08 715.67 24.55 713.17 25.4 710.51C22.13 709.52 9.64001 705.28 17.63 702.92L28.56 704.92C28.82 701.74 29.97 700.1 32 700C32.3 700.11 32.72 699.89 33 700C39.74 702.77 42.67 709.69 45 716Z" fill="#8BAF4F"/>
<path d="M74.9999 710C74.7499 711.15 75.3199 714.69 74.9999 715.01C70.0499 715.72 72.8099 713.56 72.9999 710C73.6699 709.98 74.3299 710.01 74.9999 710Z" fill="#A39D8F"/>
<path d="M111 389C110.1 391.92 102.33 390.93 102 388C102.91 384.53 98.32 382.34 97.31 380.67C96.87 379.95 97.12 379.2 97 379C88.8 364.98 85.88 352.33 86 336C86.09 322.78 89.24 306.06 92 293C92.77 289.34 92.76 287.04 95 284C96.73 285.74 97.61 287.13 95.31 288.18C92.96 295.63 91.27 317.33 90.7 326.11C89.25 348.67 92.32 371.8 110.66 386.43L111 389Z" fill="#AC3E3C"/>
<path d="M71 340L60.5 348.98C58.87 346.64 58.65 344.67 57 342C55.91 340.24 54.49 338.93 53.02 337.5C58.04 335.26 61.43 333.87 64.5 329C65.85 333.06 66.73 337.88 70.99 339.99L71 340Z" fill="#9699B1"/>
<path d="M37.01 384.99C36.58 384.56 36.05 379.72 39.49 381.01C43.34 382.44 38.65 386.64 37.01 384.99Z" fill="#525F7A"/>
<path d="M296 289C295.43 294.53 288.3 305.13 284 308C280.8 310.14 273.49 310.55 269.73 309.77C263.68 308.52 255.36 296.04 251.51 295.96C245.94 295.84 250.84 311.56 251.72 314.79C255.06 327.06 260.48 339.14 265.01 351L265.18 353.23C259.14 357.48 252.52 362.26 249.99 369.49L248.01 370C247.48 372.74 245.71 373.29 244.01 371C225.66 373.7 208 380.45 190.75 387.78L187.01 387C185.16 387.56 184.54 386.96 185.01 385C183.39 381.68 183.05 377.66 184 372.97C183.22 368.39 183.56 364.4 185.01 361C198.5 365.28 239.57 369.4 246.78 354.27C247.86 352.01 248.84 345.18 248.99 342.49C249.88 326.71 245.24 308.06 246.98 292.48C247.19 290.63 248.12 285.97 251.02 287.46C253.77 288.88 257.01 295.6 259.46 298.03C266 304.52 275.88 305.93 283.92 301.42C289.74 298.16 291.02 292.76 295.99 288.99L296 289Z" fill="#979563"/>
<path d="M340 332C337.97 333.18 338.33 335.13 338 337C337.54 338.67 336.87 339.34 336 339C333.45 338.5 335.31 336.83 335.73 337.82C336.74 340.15 312.48 348.86 308.37 347.68C288.05 347.52 266.17 351.15 254.16 369.01L251.99 370C251.26 373.04 249.31 372.51 247.99 370C249.19 363.32 259.27 354.26 264.99 351C268.81 348.82 281.5 344 285.49 344H305.49C309.1 344 319.78 341.39 323.53 340.04C329.54 337.87 334.63 334.02 339.5 330.01C340.52 329.97 339.76 331.49 339.99 332H340Z" fill="#CAE171"/>
<path d="M22 434C22.88 434.57 23.72 435.16 24.47 435.87C27.72 438.92 39.49 464.27 39.98 468.92C40.09 469.94 40.06 470.97 40 472C49 483 56.68 497.18 60 511C63.56 512.28 71.41 528.3 70.61 530.77C70.33 531.63 68.99 531.54 68 531C59.27 523.21 47.43 514.75 37.9 507.6C36.94 506.88 32.73 503.23 32.01 504L48 542H32.5C31.93 542 22.28 539.18 21.65 538.83C19.7 537.75 20.46 536.8 20 536C9.68004 518.2 13.28 488.34 13.99 468.49C14.51 453.97 14.88 439.47 16 425C17.02 424.92 21.2 432.48 22 434Z" fill="#9D9FB7"/>
<path d="M244 371L242.98 373.52C233.09 379.69 223.64 386.57 214.63 394.17L211 394C211.04 394.46 211.05 394.91 210.91 395.32C210.33 397.05 179.79 404.47 175.88 405.14C165.47 407.08 129.39 413.75 121.76 408.58C121.11 408.14 120.55 407.59 120 407.01L115.71 408.05C103.83 404.29 91.98 400.4 80.16 396.4L78 394.01C83.02 389.27 95.33 387.93 102 388.01C104.49 388.04 108.11 388.76 111 389.01C136.67 397.23 159.67 395.95 185.49 386.22L187 387.01C202.88 381.48 216.6 373.73 233.62 371.13C236.27 370.72 241.49 370.04 244 371.01V371Z" fill="#BEBC7B"/>
<path d="M69 424L69.86 426.17C64.76 432.27 61.01 439.31 59 447C61.44 447.23 62.43 448.7 62 451C64.17 454.24 67.62 456.45 72.34 457.63L73 460L72.64 462.42C67.73 464.43 63 466.46 58.95 469.99L41.79 473.67L40 472C33.84 459.52 28.49 446.28 22 434L35.35 434.7C46.5 430.71 56.54 422.56 69 424Z" fill="#5B6A84"/>
<path d="M120 407C121.64 409.57 113.75 413.34 111 414.62C107.34 416.33 94.66 421.17 93 417C89.75 417.72 81.85 411.53 83 408C81.6 406.37 76.73 398.89 76.36 397.03C75.85 394.44 76.88 395.05 78 394C93.5 396.21 103.83 404.73 120 407Z" fill="#BD3A3F"/>
<path d="M92.9999 417C93.4399 417.64 93.9699 418.72 93.5799 419.03C90.9099 421.16 71.0399 435.29 69.6199 435.62C68.6699 435.84 67.9899 435.95 66.9999 435L66.1899 432.44C71.0999 424.71 76.3699 417.23 81.9999 410C82.2899 409.32 82.6999 408.68 82.9999 408C85.5899 411.02 90.3899 413.83 92.9999 417Z" fill="#BCB97C"/>
<path d="M66.9999 435C67.6399 439.99 63.8399 445.63 58.9999 447C56.9799 439.24 64.3899 430.05 68.9999 424C72.4899 419.41 77.98 414.32 82 410C79.05 417.01 71.2899 427.55 66.9999 435Z" fill="#949369"/>
<path d="M204 283C190.46 294.64 176.59 309.6 164.33 322.72C163.26 323.86 162.76 324.67 161 325L158.22 325.27C144 317.48 129.23 310.69 113.91 304.92C108.86 301.98 100.93 296.78 101.01 291.01C102.64 290.53 101.33 287.18 102.58 286.95C107.06 286.14 112.08 288.01 116.46 288.06C123.38 288.14 130.26 286.88 137.55 286.97C147.81 287.09 147.71 286.33 156.6 285.1C164.98 283.94 179.18 282.83 187.65 282.32C191.87 282.06 198.33 285.71 204.01 283.02L204 283Z" fill="#373A5B"/>
<path d="M101 291C112.23 309.38 143.62 311.35 161 325C171.85 333.52 182.33 347.21 185 361C186.53 368.93 186.1 377.05 185 385C184.92 387 181.03 387.95 180 386L178.52 382.75C184.53 342.99 153.08 320.83 118.88 311.5C109.9 307.89 102.25 302.35 97.33 294.03C95.38 292.81 93.16 337.32 93.3 339.64C94.26 355.57 99.06 373.76 112.75 383.08C114.9 385.18 116.78 388.35 113 389C112.47 389.41 111.8 389.41 111 389C107.01 386.44 100.31 377.95 97.83 373.67C81.82 346.03 92.7 313.58 95 284C95.35 283.52 96.34 281.51 96.99 282C97.82 284.97 99.41 288.38 101 291Z" fill="#D2E56E"/>
<path d="M337 344C334.68 355.22 333.1 367.99 330 379C328.37 384.78 321.59 399.32 318 404C317.44 404.73 312.95 408.51 312 409C311.85 410.13 310.52 410.47 308 410C309.48 412.58 305.87 417.38 303 416C304.31 420.14 298.46 422.66 294.68 421.56C293.15 421.12 274.22 407.37 274.04 406.09C273.93 405.34 274.51 404.61 275 404L277.33 401.28C284.9 398.45 296.46 396.12 304 399C304.57 398.02 305.57 398.02 307 399C309.21 397.07 310.78 398.14 310 401C315.75 400.33 320.25 390.72 322.65 385.29C327.04 370.95 331.16 356.52 335 342C332.26 340.89 333.16 338.9 336 339C336.32 338.33 337.46 337.63 338 337C337.59 339.29 337.48 341.7 337 344Z" fill="#BA3B3F"/>
<path d="M312 409C316.29 417.23 332.47 431.48 334 440C334.6 443.32 334.11 446.39 332 449C329.44 446.98 327.41 444.02 325.93 440.13C322.57 436.79 320.59 433.41 320 430C316.03 423.62 312.03 416.95 308 410C310.09 408.37 311.37 409.33 312 409Z" fill="#939568"/>
<path d="M365 417C366.23 416.14 369.08 413.2 369.99 414C369.56 417.59 371.45 418.14 373 420L366.01 426C366.11 422.75 364.34 420.51 362 418.5C361.79 418.05 364.11 417.63 365 417Z" fill="#9298B2"/>
<path d="M211 394C220.9 394.62 230.9 395.3 241 396.05L249 394L251.69 392.8C259.37 395.02 266.82 397.82 274.06 401.19L275 404C275.29 404.17 275.96 405.74 277.03 406.42C280.37 408.54 294.26 419.44 295.72 419.85C298.52 420.63 300.98 417.87 302.99 416C309.35 416.36 317.64 424 319.99 430C325.68 435.74 329.88 440.99 331.99 449C331.36 449.78 330.4 449.7 329.99 450L325.4 448.66C304.66 430.01 279.69 418.97 252.99 413L251.11 414.32C241.73 411.31 230.31 409.4 220.23 409.72C191.1 410.63 164.09 414.95 135.57 419.89L132.99 419.01L128.45 420.97C105.39 425.2 81.33 431.33 65.51 449.88L61.99 451C61.86 450.75 60.13 451.36 58.99 447C61.86 443.17 64.6 439.15 66.99 435L92.99 417C99.16 417.72 104.38 413.89 110.27 412.78L119.99 407C137.76 409.5 156.39 407.08 174 403.51C180.19 402.25 208.02 393.53 210.99 394H211Z" fill="#6A6485"/>
<path d="M376 478C375.73 479.07 375.43 480.12 375.01 481.11C373.17 485.44 353.73 509.06 349.9 511.52C348.99 512.1 348 512.57 346.99 513C345.68 514.48 344.52 514.75 343.52 513.82C335.22 504.13 326.53 493.78 319.99 483C317.16 484.82 314.6 487.25 312.32 490.3L308.99 491L305.27 493.3C295.94 490.27 286.32 488.25 276.4 487.24C273.46 488.73 271.33 488.65 270 487L268.23 484.96C268.01 482.99 268.1 464.86 268.71 464C269.01 463.57 269.49 463.27 270.01 463L271.51 461.36C283.95 461.11 296.47 459.63 309.07 456.93L311.01 457.99C314.12 457.56 323.32 456.22 325.46 457.01C328.74 458.22 330.28 461.27 333.32 463.18C339.35 466.97 347.58 468.42 354.01 471.49C357.31 473.07 365.26 479.1 366.98 479.58C369.55 480.3 373.03 477.23 376.02 477.99L376 478Z" fill="#64778F"/>
<path d="M378 513C379.4 527.23 373.79 541.03 366.23 552.83L363 554C362.24 555.07 361.82 556.38 360.37 556.81C357.19 556.13 354.11 554.89 351 554C348.06 555.57 344.72 554.57 341 551C339.86 552.07 337.74 552.29 334.64 551.66C333.67 553.83 333.1 554.98 331 553C329.52 556.1 327.85 556.77 326 555C321.11 556.87 315.84 558.11 311 560L310.14 557.5C319.37 544.1 330.15 530.67 340.72 517.63C341.51 516.66 342.54 515.87 343.61 515.09C344.68 514.31 345.83 513.63 347.01 513C356.31 501.48 366.03 489.09 376.01 478C377.26 476.61 381.83 471 383.01 471L378.01 513H378Z" fill="#9C9EB6"/>
<path d="M330 450C324.05 454.37 317.78 455.15 311 458C301.8 459.27 292.76 461.91 283.49 462.99C279.53 463.45 273.59 464.32 270 463L268.64 462.31C268.32 447.77 265.17 434.19 259.17 421.57C256.24 418.73 254.18 415.87 253 413C255.71 411.58 260.77 413.18 263.64 413.86C289.53 420.01 310.32 432.54 330 450Z" fill="#322C3D"/>
<path d="M376 566C375.53 565.99 374.92 567.33 373.48 566.11C370.07 563.21 367.84 555.49 363 554C372.5 540.61 375.37 528.98 378 513C378.97 516.44 379.67 520.95 379.99 524.51C380.7 532.3 381.99 544.11 381.83 551.53C381.75 555.39 377.45 562.19 376 566Z" fill="#767597"/>
<path d="M32 700C31.63 701.17 30.25 706.74 29.94 706.97C29.09 707.59 18.37 704.26 16 705.01L28 709.01C26.5 711.93 27.54 716.28 23.99 718C16.38 715.78 11.84 708.4 5 704.49C10.3 701.28 16 699.43 21.99 698C24.82 698.72 29.15 698.99 31.99 700H32Z" fill="#B0D654"/>
<path d="M153 435L153.5 432.63C170.3 427.53 188.29 422.11 205.56 418.94C255.88 409.73 269.69 424.59 268.76 475.02C268.45 492.1 263.9 504.54 249.68 515.16C259.66 531.39 269.43 548 278.99 564.99C283.41 566.11 287.51 575.65 286.99 579.99C287.2 580.29 286.99 581.37 287.53 581.95C291.12 585.82 299.71 585.23 303.97 588.49C298.67 593.05 284.17 596.71 277.99 593.99C277.06 593.53 276.21 593.61 275.34 594.46C267.05 582.08 258.68 569.65 250.24 557.18L257.86 571.22C281.6 599.65 240.5 618.44 217.02 624.76C166.82 638.28 109.42 627.43 122.31 562.21L112.98 576.45C108.97 579.18 104.17 581.02 99.9899 577.99L97.4899 578.79C93.4799 574.62 89.9799 570.02 86.9899 564.99C86.1299 563.13 86.4299 561.41 84.9899 558.99C81.3299 552.17 88.5199 550.95 90.9899 555.99C102.57 564.19 112.06 551.61 115.67 541.88L117.99 541.99C120.7 535.93 123.42 536.87 126.14 544.82L133.04 522.47C130.5 520.42 129.48 518.26 129.99 515.99L127.34 515.54C124.63 512.1 119.13 500.46 121.99 496.99C117.29 490.33 117.17 476.39 117.97 467.97L119.99 464.99C116.77 459.85 116.94 448.6 120.99 443.99C122.34 439.94 138.34 435.41 141.81 436.38C142.48 436.57 142.36 438.03 141.99 438.99L143.66 439.65L151 433.76L152.99 434.99L153 435Z" fill="#BBE150"/>
<path d="M278 594C274.78 593.44 276.29 595.63 276.05 597.5C272.25 627.03 258.11 636.72 231.14 646.14C231.14 653.38 230.66 660.77 231 668C233.01 668.24 232.92 669.23 231 670L228.94 669.27L228.13 658.96C227.54 658.36 213.93 663.56 213.23 666.11L211 666C208.38 666.93 208.15 666.06 210 664L208.62 663.86C207.9 660.36 207.12 656.74 206.28 653.01C198.49 652.93 190.66 652.85 182.79 652.75C182.34 655.68 181.41 658.43 180 661L181.99 662.35C184.1 671.87 181.99 698.43 168 698C166.27 698.13 162.82 698.68 161 699C160.65 697.3 161.57 695.9 163.76 694.8C169.37 688.86 181.36 672.56 172.84 666.17C170.08 664.11 161.51 659.57 159 662C156.43 657.28 159.53 648.58 156.46 644.04C155.75 642.99 144.43 637.38 141.87 635.63C131.24 628.36 122.95 619 118 607C114.42 605.65 110.96 597.49 114 595C111.81 591.4 111.21 586.67 112.19 580.81C107.75 582.86 104.69 582.59 103 580C100.86 582.41 99.02 580.91 100 578C110.36 582.21 113.27 571.54 118.42 564.92L125.99 552C123.89 565.86 121.14 580.28 124.28 594.22C137.27 651.96 255.79 624.53 262.77 591.27C264.79 581.63 259.9 579.02 255.83 571.67C250.69 562.39 244.34 551.23 241.43 541.06C241.16 540.1 240.17 537.75 241.99 538.01C250.29 557.01 264.69 572.66 274.75 590.76C275.5 591.7 277.02 593.57 278 594.01V594Z" fill="#86AE44"/>
<path d="M94 501C95.86 501.15 96.88 502.65 97.06 505.48L114.75 542.25C115.61 545.02 114.26 548.61 111.99 546.99L108.95 545.8C106.86 541.04 90.42 515.34 86.83 515.91C85.71 516.09 85.7 529.11 88.36 530.54C93.97 538.4 97.23 546.77 98.14 555.63L95.98 556.98C94.78 557.94 93.12 557.61 90.98 555.98C89.95 555.78 85.23 554.74 84.99 554.98V558.98C81.56 553.21 71.38 534.01 67.98 530.98C69.96 530.41 68 527.96 67.5 526.96C64.72 521.51 62.56 516.18 59.98 510.98L61.2 508.62C64.4 505.77 81.87 491.89 84.95 491.36C90.39 490.44 95.78 496.19 93.97 500.98L94 501Z" fill="#79789A"/>
<path d="M123 658L126.28 657.35L140.41 669.8C141.83 669.94 148.57 658.97 148.88 656.83L151 656C152.94 660.06 155.18 664.4 156 669L157.52 670C158.5 676.72 158.66 683.39 158 690C160.25 694.35 152.7 697.77 149 699C148.12 700.79 146.98 700.72 146 699C148.2 695.34 151.99 694.6 154 691.01C146.88 691.48 139.97 690.79 133 690C132.09 689.74 131.54 689.19 131.39 688.28L135.18 679C138.11 673.08 126.71 666.08 121.77 663.64L121 661C111.21 655.41 100.07 651.14 92 643.01L123 658Z" fill="#84A946"/>
<path d="M161 699C159.65 699.24 158.34 699.74 157 700C154.6 699.74 152.18 699.84 149.74 700.3L149 699C151.68 695.45 155.52 694.02 158 690L157.18 688.82C159.09 682.76 158.63 676.18 157.88 669.95L159 668.99C158.89 666.69 158.94 664.29 159 661.99C159.04 660.51 158.51 658.06 159.49 657C163.51 660.42 177.84 664 178.1 669.47C178.51 678.02 169.52 695.36 161 698.99V699Z" fill="#BAE051"/>
<path d="M151 656C151.22 659.35 142.89 672.05 140.5 672.04C138.34 672.03 127.26 658.81 123 658C128.54 655.32 135.42 645.09 135 639C143.62 643.72 146.67 646.95 151 656Z" fill="#9BBF4C"/>
<path d="M100 578C100.89 578.52 101.59 579.74 103 580L105.29 581.02C107.6 586.08 110.5 590.75 114 595C114.33 597.62 116.85 604.21 118 607L112.51 605.99C104.95 592.7 93.28 578.58 87 565C91.72 569.8 93.95 574.5 100 578Z" fill="#767494"/>
<path d="M159 669C159.03 669.61 159.96 670.96 160.01 672.45C160.18 678.36 161.1 684.99 158 690C154.84 690.48 156.12 688.72 156.28 686.8C156.8 680.92 157.05 674.9 156 669H159Z" fill="#3D6748"/>
<path d="M133 690C122.28 688.78 117.45 687.6 108 682C115.9 678.91 117.86 667.94 121 661C123.51 662.43 125.65 662.82 128.48 665.02C129.91 666.14 137.58 673.68 137.86 674.72C138.79 678.14 133.78 686.14 133.01 690H133Z" fill="#A2C54E"/>
<path d="M149 699C151.48 698.99 155.36 698.24 157 700C150.86 701.18 152.42 702.37 145 701C145.36 700.35 145.62 699.64 146 699C147 699 148 699 149 699Z" fill="#3D4036"/>
<path d="M347 513C337.61 524.63 327.9 537.12 318.59 549.09C316.05 552.35 312.99 556.41 311 560C308.58 560.95 305.5 561.7 303.49 562.99C298.45 566.21 291.78 575.7 287 580C283.63 575.31 281.98 569.88 279 565C278.16 563.4 278.16 562.4 279 562C278.54 561.33 277.89 560.28 278.26 559.8C280.92 556.39 299.11 534.79 300.91 533.86C306.02 533.14 311.4 533.43 317.04 534.71C320.88 519.17 321.25 502.95 318.16 486.06L320.01 482.99C328.26 489.38 335.73 502.4 343.02 510.48C344.19 511.78 345.04 512.95 347.01 512.99L347 513Z" fill="#79779A"/>
<path d="M270 657C274.87 652.74 279.49 648.11 284.5 644C285.63 643.07 286.12 641.57 288 642.01C288.43 643.89 286.94 644.38 286.01 645.51C281.93 650.43 276.57 654.57 272.01 659.01L270.99 662.66L261.04 672.33C259.98 675.32 264.62 682.02 266.51 684.43L266.02 687.01C257.43 689.72 250.32 690.97 241.17 690.83C240.66 690.33 241.28 687.99 240.02 688.01C236.83 684.99 237.65 677.11 238.18 672.57C237.93 667.88 239.21 664.7 242.02 663.01C243.27 658.97 244.68 656.46 247.02 653.01L249.01 653.73C252 668.15 256.03 670.74 261.11 661.5C263.97 658.23 266.94 656.74 270.02 657.01L270 657Z" fill="#87AB48"/>
<path d="M270 657C267.57 659.12 264.83 660.84 262.45 662.95C259.66 665.43 259.23 669.8 254.52 669.05C251.28 668.53 246.65 656.63 246.99 653C250.6 647.67 254.19 644.1 259.99 641C259.59 647.3 264.27 654.53 269.99 657H270Z" fill="#A1C54C"/>
<path d="M242 663C239.36 671.52 239.93 679.18 240 688C239.42 688 236.98 689.67 235 688C234.72 688.87 234.38 688.86 234 688C230.84 684.65 227.98 673.79 231 670C230.95 669.34 231.03 668.66 231 668C234.39 666.37 238.08 658.75 242 663Z" fill="#346153"/>
<path d="M351 554C352.88 560.77 350.82 568.23 344.93 572.43C339.83 576.07 337.49 574.93 332.32 572.18C323.04 567.25 325.22 564.37 326 555C327.64 554.37 329.36 553.66 331 553L332.55 554.39L328.64 563.58C328.61 565.2 338.37 571.15 340.99 571C348.49 562.84 349.38 557.87 343.66 556.1C340.33 554.33 339.44 552.63 340.99 551C344.37 551.74 347.67 553.05 350.99 554H351Z" fill="#7F6675"/>
<path d="M284 677C276.61 683.38 275.27 684.08 266 687C263.16 683.58 257.91 676.37 259.15 671.72C259.7 669.67 269.73 661.21 272 659C271.12 665.59 277.28 675.77 284 677Z" fill="#A5C94E"/>
<path d="M303 684C309.27 681.84 316.36 680.11 323 680.01L304.46 685.95C303.4 686.35 301.96 686.98 301.44 688C301.07 688.72 303.51 703.14 308.01 701C307.94 704.38 302.86 705.77 301.01 703L291.26 703.99C286.25 704.03 284.33 703.86 281.01 701C281.68 693.1 285.53 687.17 291.01 682C292.48 682.25 293.44 683.55 293.9 685.9L301.03 682.65L303.01 684.01L303 684Z" fill="#86AA49"/>
<path d="M301 676C300.62 678.98 301.43 681.52 303 684C297.9 685.76 291.35 692.75 291 682C295.54 677.72 295.7 678.14 301 676Z" fill="#99BC4F"/>
<path d="M235 688C238.25 693.01 243.61 694.96 247 700C244.03 701.96 240.96 701.97 238 700C234.6 698.74 227.41 687.36 234 688H235Z" fill="#8AB151"/>
<path d="M281 701C284.67 696.85 288.05 698.02 284 702.99H301C301.24 703.85 301.08 704.55 300.42 705.06L291 705C286.6 705.1 282.78 703.4 279 703C281.73 703.73 280.73 701.31 281 701Z" fill="#638257"/>
<path d="M238 700C240.99 700.02 244.01 699.99 247 700C247.41 700.61 248.07 701.04 248 702C245.02 703.97 238.16 703.06 236 700C236.31 698.11 237.1 698.22 238 700Z" fill="#484B3C"/>
<path d="M326 706C325.57 706.97 325.98 709.63 324.82 710.86L322 711L291 705C292.91 704.96 298.59 703.5 301 703C304.34 702.31 304.75 702.34 308 701C315.77 697.8 317.19 695.44 323 690C323.93 694.61 322.51 702.69 326 706Z" fill="#3D735B"/>
<path d="M180 661C184.18 648.7 195.49 666.44 198.6 672.27C201.61 669.52 204.67 666.39 207.79 662.9L209.99 664C210.16 664.92 210.93 665.68 210.99 666C213.98 666.79 214.44 669.13 211.99 671C213.97 681.14 218.11 689.67 224.42 696.59L223.99 698C207.58 697.13 184.23 696.81 167.99 698C182.34 692.55 179.85 673.68 179.99 661H180Z" fill="#335F58"/>
<path d="M231 670C231.46 676.49 233.77 681.88 234 688C234 688.12 232.88 688.75 233.13 690.22C233.58 692.92 238.08 696.46 238 700C237.33 700 236.66 700.03 236 700C234.68 699.94 233.31 700.11 232 700C220.85 695.27 214.19 685.6 212 671C211.62 669.27 211.34 667.74 211 666C214.07 659.62 224.23 658.92 229.99 656L231 670Z" fill="#BAE052"/>
<path d="M232 700C229.31 699.77 225.4 698.07 224 698L218.99 693.51C214.23 686.85 213.65 678.6 212 671C217.69 682.24 219.73 693.69 232 700Z" fill="#81A74D"/>
<path d="M248 370C249.31 369.87 250.68 370.09 252 370C255.18 370.64 256.38 379.97 253 381C255.83 381.42 255.72 383.15 253 384C256.17 385.09 252.09 394.55 249 394C248.38 395.11 247.09 396.99 245.98 397.48C242.17 399.19 221.23 396.57 215.57 395.91C213.37 395.65 211.64 394.1 211 393.99C221.78 388.15 232.63 374.8 244 370.99C245.56 370.47 246.21 370.17 248 369.99V370Z" fill="#BC393F"/>
<path d="M185 385C185.95 385.15 186.67 386.12 187 387C173.22 391.8 154.05 398.21 139.52 396.98C134.41 396.55 114.99 391.55 111 389C111.66 389.06 112.34 388.93 113 389L116.02 387.3C128.93 389.32 141.89 389.98 154.9 389.29L158 391C158.52 388.12 162.68 387.25 164 390C166.53 386.75 176.44 383.7 180 386C181.45 385.64 183.63 384.78 185 385Z" fill="#6E9241"/>
<path d="M336 339C335.7 339.63 335.27 341.15 335 342C331.17 356.34 327.12 370.61 322.85 384.81C320.35 390.52 316.06 399.96 310 401C309.42 400.34 307.83 399.71 307 399C298.46 394.19 289.63 390.21 280.58 386.54L279.87 385.12C287.23 378.78 294.79 372.59 302.55 366.54C293.7 372.94 284.92 379.27 276.21 385.51C275.13 385.88 256.91 383.02 254.15 382.48C253.41 382.34 253.1 381.72 253 381C253.33 376.8 252.01 372.94 252 370C251.97 362.89 270.65 351.63 277.04 349.54C298.43 342.56 311.48 351.02 334.46 336.96C337.65 335.01 335.61 337.57 336 339Z" fill="#8AC23F"/>
<path d="M120 465C119.91 475.36 119.75 486.88 122 497C120.8 498.56 118.99 498.25 116.58 496.08C109.64 497.19 102.8 499.34 96.07 502.51L94 501C93.7 500.36 89.4 493.72 89.02 493.48C83.95 490.32 71.45 504.17 66.91 507.41C64.8 508.92 62.69 510.65 60 511C53.55 497.94 46.46 485.08 40 472L58.58 468.08C63.09 463.42 67.61 462.84 73 460C76.28 458.96 79.9 459.2 83.84 460.71C96.27 461.58 108.32 463.01 120 465Z" fill="#677B92"/>
<path d="M133 419L132.89 421.91C127.89 427.25 125.03 434.12 123.54 441.21L121 444C119.92 450.92 120.06 458.01 120 465C116.8 467.29 113.6 465.15 110.49 465C97.42 464.41 85.67 464.18 73 459.99C70.87 459.29 63.74 456.33 62.43 455.01C60.17 452.73 62.1 451.19 62 450.99C79.41 428.9 104.8 423.36 131.05 418.43C132.3 418.2 132.9 419.01 133 418.99V419Z" fill="#312C3D"/>
<path d="M180 386C174.31 387.43 170.18 389.1 164 390L161.09 388.09C152.35 372.47 140.88 358.62 126.69 346.53C119.3 339.47 114.24 330.95 109.56 322.27C114.33 332 120.22 341.21 127.97 348.87C141.24 360.04 151.6 373.02 159.03 387.82L158 391C140.53 392.86 129.71 390.66 113 389C114.68 385.32 107.51 382.06 105.61 379.89C92.66 365.22 89.39 341.33 92.01 322.5L96.01 288L102.02 297.47C112.82 310.43 130.61 312.41 145.04 319.45C171.23 332.21 185.53 356.73 180 385.99V386Z" fill="#8AC240"/>
<path d="M304 399C294.03 398.94 284.49 401.34 275 404C267.78 399.71 257.03 396.75 249 394C249.48 393.15 252.88 384.63 253 384C253.51 383.49 254.04 383.03 254.66 382.76C257.04 381.73 277.77 386 281.49 387.18C289 389.56 299 393.38 304 399Z" fill="#BEBC7B"/>
<path d="M253 381C259.77 379.94 269.91 386.08 275.98 383.48C276.95 383.06 278.29 381.04 279.66 380.17C296.02 369.72 305.98 361.59 320.52 349.03C322.46 347.36 325.53 344.64 327.99 344.01C313.96 360.06 298.66 373.6 281 385.51L299.04 393.45C301.99 395.03 304.44 396.83 306.99 399C305.99 399 304.99 399 303.99 399C289.18 388.82 270.7 384.98 252.99 384C253.16 383.13 252.91 381.97 252.99 381H253Z" fill="#64993A"/>
<path d="M310 401C327.56 386.04 326.35 361.41 335 342C328.32 362.81 328.68 387.7 311.5 403.98C310.17 403.47 310.3 401.34 310 401Z" fill="#D8D16B"/>
<path d="M320 430C315.21 425.18 308.4 420.28 303 416C304.46 414.65 306.6 411.1 308 410C310.26 409.87 310.6 411.49 311.62 412.88C314.6 416.91 317.35 421.47 319.51 425.99C320 427.01 322.01 429.4 320 430Z" fill="#BBB77E"/>
<path d="M253 413C267.68 420.69 269.47 448.44 270 463C270.26 470.19 270.87 480.07 270 487C270.9 487.26 271.91 487.91 271.76 488.72C270.76 494.02 269.35 499.37 267.18 504.32C258.35 515.44 260.7 523.35 266.64 535.4L266 539L268.74 540.37C271.45 546.92 274.39 553.45 278.96 558.94L279.01 562V565C274 556.81 267.72 549.09 262.59 540.92C260.08 536.92 251.36 519.54 249.5 518.01C247.64 516.48 246.06 516.95 244.01 516.99C253.84 509.82 261.52 502.63 265.06 490.55C269.14 476.6 267.65 441.77 258.54 429.98C244.22 411.45 215.13 418.59 195.81 423.3C185.1 425.91 162.12 431.08 153.02 435.01C148.93 432.41 146.64 435.4 144.24 439.03L142.02 439.01C141.2 437.21 138.73 438.53 137.4 438.88C131.91 440.32 126.21 441.66 121.02 444.01C122.46 434.75 125.98 425.47 133.02 419.01C163.33 413.49 196.38 406.04 227.51 408.02C234.23 408.45 247.3 410.01 253.02 413.01L253 413Z" fill="#88AE46"/>
<path d="M320 483C320.45 494.65 322.83 508 322.04 519.54C321.84 522.4 319.9 534.3 318.51 536.01C316.19 538.88 306.25 533.36 301.99 535.49L279 562C272.7 555.32 269.43 547.22 266 539C265.73 533.48 273.88 525.26 278.21 521.35L281 521C280.03 518.63 280.6 517.97 283 519L284.46 518.25C291.01 525.27 295.77 523.51 298.75 512.99C296.43 510.75 295.18 508.76 295 507C292.67 505.65 293.33 504.65 296 505C298.31 498.54 302.74 493.79 309 491C312.1 487.61 315.07 484.11 318.5 481.02C319.31 481.34 319.59 482.69 320 483Z" fill="#9B9DB6"/>
<path d="M309 491C304.69 495.72 300.38 500.34 296 505L295.12 505.9C286.19 504.26 278.86 510.8 281.75 519.89L281 521C276.5 527.23 269.72 532.41 266 539C263.63 533.3 258.49 522.59 258.94 516.51C259.22 512.63 264.81 505.75 266.46 500.96C267.64 497.54 269.58 490.41 270 487L276.45 485.14C282.95 486.73 289.7 486.85 296.22 488.28C300.17 489.15 303.68 492.58 309 491Z" fill="#6F8499"/>
<path d="M341 551C341.89 554.1 348.81 557.07 349.06 559.51C349.39 562.74 343.8 569.5 341 571C339.833 568.613 339.833 568.613 341 571C336.04 573.65 331.09 567.33 327.51 564.04L331 553C336.08 550.95 333.54 549.38 341 551Z" fill="#9D7568"/>
<path d="M94 501C100.08 499.64 111.44 492.97 117.23 494.22L122 497C123.36 503.1 126.55 510.78 130 516L130.93 518.76L122.69 536.61C121.19 538.26 119.63 540.06 118 541.99C116.6 543.94 115.7 546.45 113.98 548.47C107.65 555.88 100.4 565.32 91 555.99C92.68 556.32 94.29 556.72 96 556.99L97.88 555.54C102.6 555.88 106.45 553.17 109.43 547.4L112.01 546.99C112.16 546.73 113.6 546.47 113.88 545.32C108.51 532.16 101.36 519.32 95.23 506.25C94.39 504.47 94.48 502 94.01 500.99L94 501Z" fill="#74899E"/>
<path d="M140.74 483.24C160.04 480.21 175.95 497.67 155.37 506.87C147.81 510.25 135.3 510.54 128.95 504.54C119.62 495.72 130.95 484.77 140.74 483.23V483.24Z" fill="#F3655D"/>
<path d="M235.74 474.24C243.36 472.96 259.42 473.87 260.95 483.56C263.47 499.54 239.03 503.8 228.07 496.43C216.98 488.98 224.48 476.12 235.74 474.23V474.24Z" fill="#F3655E"/>
<path d="M227.76 442.19C245.32 440.04 252.31 474.37 229.48 472.04C213.46 470.4 213.84 443.9 227.76 442.19Z" fill="#2F1910"/>
<path d="M150.76 451.19C165.04 448.49 172.59 473 158.01 479.51C136.64 489.06 134.64 454.24 150.76 451.19Z" fill="#2F1910"/>
<path d="M130 516C131.19 517.81 134.96 520.66 134.99 522.47L126.99 549C123.44 548.04 123.12 540.17 120.5 539.01C120.11 540.4 118.65 541.1 118 542.01L130 516.01V516Z" fill="#85AD44"/>
<path d="M202 489L199.96 489.97C196.01 487.44 191.47 489.52 188.01 491.96L186 491.01C182.82 487.81 180.53 483.79 181.01 479.01C184.08 479.07 185.09 482.66 187.95 483.56C198.05 486.72 201.38 476.08 202.51 476.03C205.71 475.88 203.57 486.37 202.01 489.01L202 489Z" fill="#30241B"/>
<path d="M202 489C197.75 496.2 191.89 496.92 186 491C190.61 487.38 196.91 484.74 202 489Z" fill="#E16D5C"/>
<path d="M238 433.99C237.33 434.62 224.64 427.23 225.01 425.53C226.64 418.09 238.56 429.01 238 433.99Z" fill="#312B19"/>
<path d="M153 435C149.49 436.51 145.84 440.88 142.48 442.99C140.22 443.96 141.91 439.2 142 439C143.59 435.27 150.8 427.51 153 435Z" fill="#2E2A19"/>
<path d="M210 664C206.98 664.57 200.22 676.5 198.02 674.99C197.56 674.67 193.58 667.42 191.97 665.53C188.38 661.31 184.3 655.22 180 661C180.04 657.34 179.97 653.66 180 650C188.02 652.76 198.67 649.55 206.49 651C210.04 651.66 209.29 660.25 209.99 664H210Z" fill="#5F5C7F"/>
<path d="M103 580C107.23 580.77 110.2 579.2 113.99 578C114.56 578.63 113.64 592.2 113.99 595C113.57 597 111.44 593.95 110.99 593.5C107.4 589.82 103.97 585.28 102.99 580H103Z" fill="#9497AC"/>
<path d="M112 547C109.73 550.99 104.53 558.16 99.5001 558.06C97.9501 558.03 96.9201 557.14 96.0001 557C97.8801 545.63 86.0601 534.29 84.2301 525.28C83.2601 520.53 85.3701 516.65 85.0101 512C97.8801 520.62 104.26 534.16 112 547Z" fill="#9A9CB5"/>
<path d="M164 390C161.97 390.3 160.23 390.76 158 391C151.15 368.76 128.24 355.87 115.97 337.53C111.29 330.52 106.21 320.44 102.82 312.68C100.86 308.18 98.36 302.85 98 298.01L118.16 333.34C132.38 353.12 155.26 366.29 163.99 390.01L164 390Z" fill="#5F9937"/>
<path d="M296 505C295.59 505.44 295.39 506.44 295 507C294.82 508.96 292.48 509.29 288 508C290.45 510.57 287.42 517.79 284 515C284.99 517.55 284.65 518.89 283 519C282.22 520.25 281.31 520.57 281 521C274.37 511.27 286.18 500.81 296 505Z" fill="#8E8C8F"/>
<path d="M295 507C295.37 507.08 299.88 511.15 299.95 512.45C300.02 513.75 298.31 517.69 297.55 519.05C292.63 527.9 289.65 522.24 283 519C283.11 518.83 282.85 517.07 284 515L286.05 514.94C289.59 520.06 292.73 519.57 295.46 513.46C291.3 512.45 288.81 510.63 288 508C288.35 507.5 294.63 506.92 295 507Z" fill="#BBA294"/>
<path d="M341 571C338.23 571.49 338.97 568.77 336.37 567.13C334.37 565.87 331.36 565.21 329 564.99C330.89 560.57 334.56 557.1 335.01 552C339.45 553.32 341.26 558.6 347 558.01C346.67 562.81 340.95 565.25 341 571Z" fill="#F9DC61"/>
<path d="M223.62 448.07C228.72 446.41 230.57 453.47 226.35 454.88C221.11 456.63 220.67 449.03 223.62 448.07Z" fill="#EFEAE4"/>
<path d="M151 457C152.94 466.68 141.77 463.06 145.43 457.93C146.42 456.54 149.42 457.04 151 457Z" fill="#F2ECE5"/>
<path d="M288 508C290.79 509.43 293.94 510.44 296.74 511.79C300.25 513.47 292.45 518.57 292.99 522C291.46 522.42 291.33 521.58 290.5 521.01C288.54 519.67 284.35 517.34 284.01 515C284.15 514.75 285.36 514.36 285.88 513.41C286.78 511.75 287.1 509.32 288.01 508H288Z" fill="#F7DC65"/>
</g>
<defs>
<clipPath id="clip0_553_2346">
<rect width="393" height="852" fill="white"/>
</clipPath>
</defs>
</svg>
