<svg width="500" height="171" viewBox="0 0 500 171" fill="none" xmlns="http://www.w3.org/2000/svg">
<g clip-path="url(#clip0_557_2845)">
<path d="M273.762 132.678V102.83H285.235V152.576H275.509L275.302 152.023L251 122.498V152.576H239.527V102.83H249.138L272.865 131.895L273.762 132.678Z" fill="#065470"/>
<path d="M229.595 102.83V112.112H203.545V122.728H226.169C226.169 122.728 226.491 123.028 226.491 123.051V131.779H203.522V143.272H230.446V152.553H192.026V102.784H229.549L229.595 102.83Z" fill="#065570"/>
<path d="M139.422 46.6594C152.136 47.88 160.252 59.6025 155.309 71.8546C150.664 83.3928 136.548 82.9782 126.155 82.7018C125.787 82.7018 125.512 82.6328 125.167 82.4715V96.0825C125.167 96.0825 124.868 96.4049 124.845 96.4049H113.809C113.809 96.4049 113.487 96.1055 113.487 96.0825V46.6594H139.422Z" fill="#4CC0DD"/>
<path d="M365.591 152.576L387.479 102.853L398.837 102.807L421.231 152.576H409.091L404.562 141.959L381.846 141.982L377.179 152.576H365.591Z" fill="#065470"/>
<path d="M159.033 112.641C157.309 114.322 155.47 115.912 153.745 117.639C144.595 106.953 126.316 111.467 125.374 126.367C124.431 141.268 141.813 149.121 152.78 138.781C153.102 138.458 153.286 137.767 153.722 137.79L161.149 144.515C148.365 159.715 120.04 154.971 114.683 135.119C108.222 111.121 133.467 93.9867 154.32 105.156C155.539 105.824 160.62 109.371 160.919 110.522C161.103 111.19 159.516 112.227 159.056 112.664L159.033 112.641Z" fill="#065470"/>
<path d="M335.701 139.402C337.035 140.577 338.368 141.844 339.656 143.064C339.932 143.318 341.058 144.354 340.99 144.63C338.277 148.062 334.368 150.618 330.206 151.977C321.791 154.718 311.652 153.681 304.364 148.545C288.04 137.099 290.891 111.421 309.445 103.959C319.745 99.8133 334.092 101.656 341.082 110.868L333.678 117.616C329.425 112.342 322.458 110.638 316.021 112.526C302.455 116.533 301.674 136.846 314.595 142.258C321.286 145.045 329.011 143.202 333.724 137.744C333.931 137.698 335.38 139.103 335.701 139.379V139.402Z" fill="#065470"/>
<path d="M229.94 88.137C221.571 101.748 196.004 99.4218 191.728 82.9091C187.29 65.7976 202.281 54.1442 218.375 58.1976C231.503 61.5139 236.929 76.76 229.94 88.137Z" fill="#4CC0DD"/>
<path d="M180.37 102.83V152.576H168.989L168.667 102.83H180.37Z" fill="#065470"/>
<path d="M360.28 102.83H348.807V152.599H360.28V102.83Z" fill="#065470"/>
<path d="M187.658 67.8703C184.416 67.6861 181.22 67.5939 178.53 69.6667C176.576 71.1867 175.082 74.1115 175.082 76.5988V96.0594C175.082 96.0594 174.783 96.3818 174.76 96.3818H163.839V58.2436C163.839 57.9903 164.367 57.9212 164.597 57.8982C166.966 57.6218 169.587 58.0133 171.932 58.0824C172.484 58.0824 174.668 57.737 174.668 58.2206V62.5273C177.105 60.0861 180.002 58.3358 183.451 57.7139C184.048 57.5988 187.704 57.1152 187.704 57.76V67.8242L187.658 67.8703Z" fill="#4CC0DD"/>
<path d="M215.823 16.2134C224.468 24.1358 212.167 37.2861 203.775 29.2715C195.383 21.257 207.224 8.33699 215.823 16.2134Z" fill="#AAAC20"/>
<path d="M293.627 75.4012C292.109 74.2497 290.546 72.96 289.833 71.1406C287.166 64.2545 292.914 57.5527 300.087 59.0958C310.158 61.2606 308.962 78.0727 295.834 76.2994C294.891 76.2073 294.155 75.9079 293.627 75.4242V75.4012Z" fill="#AAAC20"/>
<path d="M276.613 23.2146C276.337 24.1358 275.946 25.0109 275.394 25.84H274.842C273.279 27.7746 270.911 28.6037 268.589 29.2025C268.106 29.3176 268.888 29.4097 267.462 29.4097C265.209 29.4097 264.358 29.7091 262.197 28.6958C257.622 26.554 254.978 21.28 256.058 16.3746C255.438 15.8909 256.61 13.4267 257.392 13.4958C263.025 3.82306 278.176 8.47518 277.05 20.474C276.958 21.3491 276.222 22.6849 276.59 23.2376L276.613 23.2146Z" fill="#C8C8C8"/>
<path d="M276.613 23.2146C277.027 23.8134 279.579 25.4716 280.361 26.1855C283.12 28.6958 286.614 32.2425 288.706 35.2825C288.959 35.6509 289.994 36.9637 289.741 37.3552C289.557 37.6316 287.488 38.7831 287.189 38.5758C286.913 38.3916 285.235 35.8352 284.752 35.2594C281.855 31.8049 278.521 28.4425 274.82 25.8631C275.072 25.5406 275.693 24.274 275.969 23.7903C276.13 23.4909 276.038 23.0764 276.59 23.2146H276.613Z" fill="#095571"/>
<path d="M295.604 57.2533C294.707 52.9927 293.029 48.7321 291.075 44.863C290.73 44.1952 289.028 41.6158 288.959 41.2242C288.89 40.7406 290.04 40.7176 290.293 40.3261L291.718 39.7503C294.891 45.1164 297.604 51.0352 298.685 57.2303H295.604V57.2533Z" fill="#0A5470"/>
<path d="M236.01 14.5782C230.285 14.7394 224.721 16.4897 219.364 18.3552L217.892 15.7988C221.939 14.0485 226.284 12.6897 230.653 11.9758C231.434 11.8376 235.573 11.1927 235.895 11.6764C236.194 12.114 235.872 13.9103 235.987 14.5552L236.01 14.5782Z" fill="#09556F"/>
<path d="M257.415 13.4727C257.162 13.9103 256.173 16.0061 256.081 16.3515C250.54 14.9467 244.608 13.8643 238.861 14.3709L238.631 11.2849C244.999 11.0315 251.276 11.8376 257.392 13.4958L257.415 13.4727Z" fill="#0A546F"/>
<path d="M292.086 95.2994C294.431 89.8643 296.271 84.1988 296.961 78.2801L300.041 78.0497C300.524 79.9152 296.202 95.2994 295.305 95.2994H292.109H292.086Z" fill="#0A5471"/>
<path d="M200.441 27.1988C200.395 28.2582 202.235 29.2255 201.568 30.1927L188.532 42.2376C188.785 41.4315 189.313 40.5564 189.75 39.8194C191.705 36.5721 196.878 29.4788 199.89 27.4061C200.074 27.2679 200.097 27.1067 200.441 27.1988Z" fill="#0B556E"/>
<path d="M295.834 76.2764C295.19 76.1843 294.247 76.2534 293.673 75.7928C293.558 75.7006 293.673 75.4243 293.627 75.4012L295.834 76.2764Z" fill="#DDE09E"/>
<path d="M125.167 56.1479L135.835 56.0097C141.997 56.6546 145.445 59.7176 144.802 66.2121C144.388 70.4267 139.858 73.1903 135.858 73.1903H125.489C125.489 73.1903 125.167 72.8909 125.167 72.8679V56.1709V56.1479Z" fill="white"/>
<path d="M400.906 133.115H385.455L393.411 114.322L400.906 133.115Z" fill="white"/>
<path d="M217.156 67.9624C223.502 71.7164 223.157 84.0836 216.053 86.9394C206.787 90.6703 199.683 81.5503 202.994 72.7527C205.063 67.2715 212.121 64.9915 217.156 67.9624Z" fill="white"/>
<path d="M260.588 25.3333C252.541 17.7564 263.37 5.1588 272.107 12.137C281.303 19.4836 269.302 33.5321 260.588 25.3333Z" fill="white"/>
</g>
<defs>
<clipPath id="clip0_557_2845">
<rect width="500" height="171" fill="white"/>
</clipPath>
</defs>
</svg>
