<?xml version="1.0" encoding="UTF-8"?>
<svg id="Capa_1" xmlns="http://www.w3.org/2000/svg" version="1.1" viewBox="0 0 595.3 841.9">
  <!-- Generator: Adobe Illustrator 29.0.0, SVG Export Plug-In . SVG Version: 2.1.0 Build 186)  -->
  <defs>
    <style>
      .st0 {
        fill: #88ae46;
      }

      .st1 {
        fill: #7787ae;
      }

      .st2 {
        fill: #bbb77e;
      }

      .st3 {
        fill: #c74546;
      }

      .st4 {
        fill: #333557;
      }

      .st5 {
        fill: #b18283;
      }

      .st6 {
        fill: #305b57;
      }

      .st7 {
        fill: #3c735a;
      }

      .st8 {
        fill: #ae8080;
      }

      .st9 {
        fill: #767597;
      }

      .st10 {
        fill: #7f6675;
      }

      .st11 {
        fill: #ba3b3f;
      }

      .st12 {
        fill: #312c3d;
      }

      .st13 {
        fill: #404564;
      }

      .st14 {
        fill: #396c58;
      }

      .st15 {
        fill: #ae8082;
      }

      .st16 {
        fill: #5d5a7d;
      }

      .st17 {
        fill: #4f5b77;
      }

      .st18 {
        fill: #81a74d;
      }

      .st19 {
        fill: #bf8e8b;
      }

      .st20 {
        fill: #638257;
      }

      .st21 {
        fill: #9bbf4c;
      }

      .st22 {
        fill: #345d56;
      }

      .st23 {
        fill: #87ab48;
      }

      .st24 {
        fill: #3d4036;
      }

      .st25 {
        fill: #6e9241;
      }

      .st26 {
        fill: #6f8499;
      }

      .st27 {
        fill: #8488a4;
      }

      .st28 {
        fill: #e3b4ae;
      }

      .st29 {
        fill: #718a7c;
      }

      .st30 {
        fill: #a39d8f;
      }

      .st31 {
        fill: #dcaaa5;
      }

      .st32 {
        fill: #d86b66;
      }

      .st33 {
        fill: #f3655e;
      }

      .st34 {
        fill: #5d5a7e;
      }

      .st35 {
        fill: #6c728f;
      }

      .st36 {
        fill: #f0c1ba;
      }

      .st37 {
        fill: #5f5c7f;
      }

      .st38 {
        fill: #ad7f80;
      }

      .st39 {
        fill: #bae052;
      }

      .st40 {
        fill: #79789a;
      }

      .st41 {
        fill: #79779a;
      }

      .st42 {
        fill: #6a7895;
      }

      .st43 {
        fill: #efeae4;
      }

      .st44 {
        fill: #daa7a1;
      }

      .st45 {
        fill: #312b19;
      }

      .st46 {
        fill: #c89f7c;
      }

      .st47 {
        fill: #b0d654;
      }

      .st48 {
        fill: #3b7059;
      }

      .st49 {
        fill: #8baf4f;
      }

      .st50 {
        fill: #747295;
      }

      .st51 {
        fill: #a2c54e;
      }

      .st52 {
        fill: #343657;
      }

      .st53 {
        fill: #9497ac;
      }

      .st54 {
        fill: #d5a3a0;
      }

      .st55 {
        fill: #f76a60;
      }

      .st56 {
        fill: #86ae44;
      }

      .st57 {
        fill: #1c173b;
      }

      .st58 {
        fill: #8ac23f;
      }

      .st59 {
        fill: #383c5d;
      }

      .st60 {
        fill: #dfaca6;
      }

      .st61 {
        fill: #3d735b;
      }

      .st62 {
        fill: #f8d0ca;
      }

      .st63 {
        fill: #484b3c;
      }

      .st64 {
        fill: #64993a;
      }

      .st65 {
        fill: #85ad44;
      }

      .st66 {
        fill: #f9dc61;
      }

      .st67 {
        fill: #373a5b;
      }

      .st68 {
        fill: #84a946;
      }

      .st69 {
        fill: #e7b7b1;
      }

      .st70 {
        fill: #d8d16b;
      }

      .st71 {
        fill: #5b6a84;
      }

      .st72 {
        fill: #3d6748;
      }

      .st73 {
        fill: #d2e56e;
      }

      .st74 {
        fill: #ac3e3c;
      }

      .st75 {
        fill: #b4d952;
      }

      .st76 {
        fill: #99bc4f;
      }

      .st77 {
        fill: #f7dc65;
      }

      .st78 {
        fill: #74897e;
      }

      .st79 {
        fill: #74899e;
      }

      .st80 {
        fill: #bcb97c;
      }

      .st81 {
        fill: #e16d5c;
      }

      .st82 {
        fill: #bbe150;
      }

      .st83 {
        fill: #414361;
      }

      .st84 {
        fill: #2c2c4e;
      }

      .st85 {
        fill: #b9df51;
      }

      .st86 {
        fill: #979563;
      }

      .st87 {
        fill: #8e8c8f;
      }

      .st88 {
        fill: #f3655d;
      }

      .st89 {
        fill: #5d6d86;
      }

      .st90 {
        fill: #8ab151;
      }

      .st91 {
        fill: #bae051;
      }

      .st92 {
        fill: #a1c54c;
      }

      .st93 {
        fill: #f2ece5;
      }

      .st94 {
        fill: #8ac240;
      }

      .st95 {
        fill: #525f7a;
      }

      .st96 {
        fill: #ca4344;
      }

      .st97 {
        fill: #474f6e;
      }

      .st98 {
        fill: #939568;
      }

      .st99 {
        fill: #f46a5f;
      }

      .st100 {
        fill: #322c3d;
      }

      .st101 {
        fill: #386b59;
      }

      .st102 {
        fill: #9c9eb6;
      }

      .st103 {
        fill: #f8d2cc;
      }

      .st104 {
        fill: #9a9cb5;
      }

      .st105 {
        fill: #e76e68;
      }

      .st106 {
        fill: #3b3f5f;
      }

      .st107 {
        fill: #949369;
      }

      .st108 {
        fill: #272548;
      }

      .st109 {
        fill: #86aa49;
      }

      .st110 {
        fill: #cae171;
      }

      .st111 {
        fill: #6a6485;
      }

      .st112 {
        fill: #61698f;
      }

      .st113 {
        fill: #767494;
      }

      .st114 {
        fill: #9b9db6;
      }

      .st115 {
        fill: #edbd6d;
      }

      .st116 {
        fill: #48516f;
      }

      .st117 {
        fill: #2f1910;
      }

      .st118 {
        fill: #30241b;
      }

      .st119 {
        fill: #a5c94e;
      }

      .st120 {
        fill: #bc393f;
      }

      .st121 {
        fill: #5f9937;
      }

      .st122 {
        fill: #3e4363;
      }

      .st123 {
        fill: #d6a29c;
      }

      .st124 {
        fill: #bd3a3f;
      }

      .st125 {
        fill: #bebc7b;
      }

      .st126 {
        fill: #346153;
      }

      .st127 {
        fill: #9298b2;
      }

      .st128 {
        fill: #b4b6ca;
      }

      .st129 {
        fill: #deae68;
      }

      .st130 {
        fill: #305c56;
      }

      .st131 {
        fill: #335f58;
      }

      .st132 {
        fill: #3b735b;
      }

      .st133 {
        fill: #9d7568;
      }

      .st134 {
        fill: #c3948f;
      }

      .st135 {
        fill: #9699b1;
      }

      .st136 {
        fill: #69668a;
      }

      .st137 {
        fill: #56647f;
      }

      .st138 {
        fill: #bba294;
      }

      .st139 {
        fill: #dca7a0;
      }

      .st140 {
        fill: #677b92;
      }

      .st141 {
        fill: #9d9fb7;
      }

      .st142 {
        fill: #64778f;
      }

      .st143 {
        fill: #bebc7a;
      }

      .st144 {
        fill: #2e2a19;
      }

      .st145 {
        fill: #badf50;
      }
    </style>
  </defs>
  <path class="st57" d="M101,224.9V-5.1h393v225c-1.6,3.2-4.9,3.7-9.9,1.3l-11.4-5c-17-2.9-34-5.9-50.9-9.2-9.4.9-17.4-.8-26-4.1-26.5-1.2-53.2-2.6-80.1-4.5-12-4.4-21.5-4.5-33.5.2-4.5,1.1-9.1,1.2-13.9.2-16.6,3.5-32.9,3.9-48.8,1.2-1.9,4.5-7.1,5-11.4,4.9-8.5-2.1-16.2-1.2-23.2,2.6-27,4.8-53.7,10.9-80,18.4l-3.8-1.1Z"/>
  <path class="st36" d="M494,735.9v111H101v-51l2.2-1.1c12,4.5,27.3,1.3,36.8-7.1-1.3-1.5-1.9-2.2,0-3.8-1.9-.5-1.9-1.3-1.4-2.9-13.4-5.7-24.9,1.9-35.3,10l-2.3-1.1v-40l.7-2.1c10.2-1.8,13.5-5.2,1.2-.9l-1.9-1v-15l2.5-2.7c17.9-5.1,34.4-9.5,53-8,7.2,2.3,14.7,2.3,22.5,0,43.1-8.9,90.9-15.9,134.4-6.3,21.7-3,40.3-3.7,62.7-.9l43.2,6.4c21.8-.7,41.5,3.9,62.1,11.3,5.1.6,9.3,2.3,12.5,5.1Z"/>
  <path class="st108" d="M494,219.9v35c-.3,2.4-.5,2.7-2.7,3s-16.9-2.5-19-3c-8.8-2-15.4-5.3-23.3-9.4-3.8-2.1-6.5-1.9-10.3,0-14.3-3.5-29.2-6.8-44.3-8.7-7,.8-13.4.2-19.3-2-3.4,2.2-5.6,2.8-8.2-.9-4,1.8-7.3,1-10.5-1.8-13.8.5-27.6.6-41.3.3l-7.8-2.3c-15.9,2.8-30.9,4.7-46.7,2-17.5,3.5-35.3,5.3-53.3,5.3l-19.2,4.6c-7.7,1.3-19.8,2.5-25-4.2-2.2.7-2.8-.5-3.6-2.2-3.7,7.3-8.7,13.8-16.6,16.4,2.5.7,3.6,2,3.2,3.8,3.6,3.7-.3,6.8-4.2,8.3l-8.2,2.7c-8.9,5.5-18.8,9-29.9,10.4l-2.7-1.5v-51c7.5-2,15.9-3.9,23.2-6.3,19.3-6.3,40.1-8,60-13s5.3-3,8.5-3.5c6.9-1.2,18.5,3.3,23.8-1.2s1.2-3,2.1-3.1,2.5.8,3.9.9c4.5,0,5.1.9,8.1,1.2,11.3,1.1,25-1.8,36.9-3s6.2,1,8.8.8c6.3-.6,15.3-4.4,21.2-4.8s13.7,3.2,21.1,4c21.4,2.3,42.6.3,64,4s9.1-.2,12.9,0,10.3,3.5,13.1,4c4.4.7,10.4-.2,14.6.3,16.6,2,32.7,7.6,49.1,9,5.4.5,15,9,21.7,5.8Z"/>
  <path class="st4" d="M171,256.9c3.9,2.4,8,4.1,12.3,5,57-8.8,114.9-13,172-10.3,30.4,4,60.4,9.9,90.1,17.9,7.9-1,14.2-1,21.3,3.1,7.3-.5,13.1,1.1,17.6,4.9,5.3-.5,8.6.6,9.7,3.4v27l-2.5,1.4c-26.2-7.1-52.7-12.9-79.5-17.5-2.2-.5-14.2-4.5-14.6-5.3s.1-2.7.6-3.6c-1-1-2.1-1.8-3.2-2.2-16.1,1-26.5-3.7-39-13.8-3.9-1.1-6.8-2.8-8.9-5-3.9-1-8.1-1-12,0-1.8,2.9-11.3,6.7-14,4l-8.4,3.7c-26.3,4.7-53,6-79.5,7.3-11.8,1.7-23.6,1.3-35.3-1.1-15.8,7.9-33.1,13.1-51.9,15.5-8.9,4.3-16.8,8.1-27,8l-10,4.4c-4.2,2-6.8,1.7-7.9-.8v-27c7.8-1.7,17.7-3.6,24.9-6.6s4.7-3.1,6.9-4.1c4.9-2.3,13.9-2.4,13.3-9.2l2.6-.5c4.4,3.4,8,7.7,10.4,12.7l4.4-7.5c2.8-4.7,5.4-5.9,7.6-3.7Z"/>
  <path class="st84" d="M494,254.9v26c-3.1-1.8-6.7-.5-10.1-1.4s-1.7-2.2-3.8-3.1c-4.7-1.9-8.9-.9-13.3-1.7s-6.3-3.2-9.3-3.7-10.1,1-12.6.4c-25.4-5.7-51.3-12.7-77.4-16.4-10.5-1.5-21.5-2.2-31.9-2-10.8.2-20.1.3-31,0-5.6-.2-10.1-.4-16,0-33.4,2.4-66.3,5.8-99,9.2s-4.3,1.6-6.3,1.6c-3.1,0-12.1-2.8-12.4-7-.5-1.9.9-3.6,4.2-4.9l-7.2-4.1c-2.9-2.2-7.5-6.5-5-10,5.6,3,14.8,3.5,21.3,2.8s18.8-5.7,27.1-5.4,17.3,0,27.1-1.4c5.5-.8,19.9-4.2,24.9-3.7s9,1.5,12.1,1.6c10.2.5,21.5-2.6,31.2-3.6,3-.3,7.6,2.4,8.9,2.3,5.7-.4,5.4,0,11,.4,9.7.6,20.3-1.8,29.9-.8s3.1,2.4,5.2,2.7,4.5-1,5.8-.8,2.2,2.5,3.2,2.7,2.4-1.8,3.9-1.9c2.3-.3,3.9,1.9,6,2,5.2.4,10-.8,16.7.3s20.8,3.2,29.8,5.2,6.8,3.2,9.7,3.3,4.6-2.2,7.6-1.8c5.3.7,16.5,7.9,22.4,9.7s11,1.7,16.5,2.5,6.4,3.2,10.7.8Z"/>
  <path class="st83" d="M108,561.9c2.3-3.6,16.5-4.2,18.9-1.5,18.3,22.7,37.7,44,58.4,64,4,3.9,3.9,6.1-.3,6.6-1.2,12.4,6.2,26.7,14.1,36.3v2.7c2.4,4.3-1.4,15.8-7.7,10.4l-10-9c-2.5-1.1-4.3-2.6-5.4-4.4l-1.4-1.7c6.4-15.5-3.8-15.3-.7.2l-1.8,1.4h-1.6c-3.4-7-7.2-13.7-11.4-20l-.4-2.4,7.4-5.6-.7-1.2c5.1-4.2.3-10.9-5-12.9,0,4.7-1.5,6.6-4.8,5.7-6.8-11.4-17.6-2-9.9,7.3l-.6,2.2c1.4,2.9-.7,3.6-6.5,2-2.1,0-1.4,3.5-.6,4.8,5.3,8.7,11.4,4.9,18,.2l2.1,1c5.1,3.9,9.9,12.3,11.9,18.7s-.3.8-.9,1.3c1.2,3.1.7,18.8-.5,20.8-3,5-9-4-10.5-6.5-5.9-7.5-9.2-8.9-9.9-4.4l-1.8,12.1c-1.6,6-9.8,1.4-7.2-2.9l-3.2-.3c-2.3-2.6-17.8-15.6-20.2-13.7-.3,6.2-1.4,11.6-3.3,16.3l-3.3-.3c-1.1,2.9-7.4,2.2-8-1v-129c3,0,5.4,1,7,3Z"/>
  <path class="st83" d="M494,560.9v124c-1.1,1.8-3.2,2.9-6.5,3.2-9.3,6.5-13.2,6.1-11.5-1.2-1.7-1.9-2.3-4.8-1.9-8.6-.1-.8-.3-1.4-.6-2-1.5-3.5-22,13.5-24.1,16-3,2.7-6.1,1.7-6.6-2.4-6.1,2.8-8.4,2.1-6.7-2-2-2.6,1.3-7.1,4-4,1.1-2.1,3.5-3,7.1-2.7,16.2-6.3,0-8.5-4.7,0l-2.4-.2c-.9.4-2.4.4-2.4-.2,0-2.5,9.1-20.5,11.1-24.3s.7-.5,1.3-.6l1.7-1.6,12.4,2.9c7.8,4.5,25.2-6.4,14.8-12.1l-.7-2.6c4.7-6,6.7-13.7-3.8-12.8l-1.4-1.8-2.1-.9c-2.1-12.1-16.9-16.1-22.4-4-.6,8.6-3.1,11.3-7.5,8.1-2.3-4.6-5.3-9.7-9.6-3.6s-2.3,13.4-1.4,18.5c5.5,2.7,11.3,4.9,17.2,6.6l.8,2.4c-.2,6.8-5.6,15.8-10,21-1.8,2-2.4,1.7-2-1h-2.6c-7.4-5.6-17.9-5.6-26.8-4.3l-1.6-1.7c-3.2,2.2-5.2,1-6.1-3.8-3.5,1.9-6.1,2.2-7.9.8-2.1-3.5,2.6-12.2,6-14l2.7-5.5c25.6-24.6,50.4-49.8,74.6-75.5,2.2-4.7,5.1-8.1,8.7-10-5.4-7,9.6-5.3,11,0Z"/>
  <path class="st69" d="M203,699.9c12.1,1.2,24.5,2.5,37.2,3.9,57.5-2.2,117.3-2.7,173.6,3.9,3.2-.9,6.2-1.2,9.1-.8,2.1-1.2,4.4-.9,7,1l1.9-1.8c13.7,2.7,27.1,6.5,40.2,11.4l1,2.4c7.5-.7,15.8,2.6,21,8v8c-17.2-3.1-35.5-11.8-52.8-13.7-5.9-.7-11.9.2-17.7-.3-25.6-2.1-49.6-9.2-77.1-9-10.4,0-24.3,3.5-34,3.1s-8.7-2.4-13.1-3c-30.2-3.7-63.7-.3-93.7,4s-33.8,8-44.1,6.7-4.4-1.7-7.1-1.9c-18.4-1.6-36,4.7-53.5,9v-6c8.2-6.8,21.2-9.9,32-10,2.1-3.8,9.2-6.2,13-4l1.7-2.5c7.5-2.1,15.2-3.8,22.9-5.2l2.5,1.7c.3-.8.7-.8,1,0,.6.7,1.3.7,2,0-1.3-1.5-.8-2,1-1l1-2.4c7.8-1.6,15.6-2.8,23.5-3.6l1.5,1.9Z"/>
  <path class="st116" d="M187,330.9c1.1.7,1.5,1.7,1.6,3,1.3,16.3,2.6,21.7,9.4,36.6.5,1.1.5,2.3,0,3.4l-1.6,2.3c-18.7,5.9-37.7,11.4-56.9,16.4-5.3,4.3-11.8,6.2-19.4,5.8l-9.3,5.2c-5,3.1-8.2,3.2-9.9.4v-44l3-2.7c18.5-5.5,37.1-11.6,54-20.3,1.9-.5,3.3.7,4.2,3.7l7.4-6.3,2.3.6c1.6-.9,3.9-1.4,6.7-1.4,3.1-2.6,5.9-3.5,8.3-2.6Z"/>
  <path class="st106" d="M187,330.9c-5.3,2.6-8.4,7.3-15,4-2.9,1.5-5.4-.7-7.4-6.5-.5.1-9.3,5.8-5.6,6.3l-.9,2.2c.2,2.5-1.5,2.5-3,3.5-6.4,4.3-26.5,10.9-35.1,13.9-6.1,2.2-12.6,4.2-19,5.5v-41c.4-3,2.6-4.2,6.5-3.8l6.8.4c2.4-3.3,5.8-5.2,10.4-5.8,1.3-2.5,3.1-4,5.5-4.4,6.6,2.1,9.7,2.4,15.4-1.6,16.1-2.5,30.8-7.8,44.1-15.8h3.3s.8,1.7.8,1.7c-2.4,13.2-4.3,26.5-5.4,39.9l-1.4,1.4Z"/>
  <path class="st122" d="M385,302.9c1.9-.5,3.9.1,6,1.9,28.4,5,58.7,11,87.8,18.4,4.6,2.8,8.6,3.1,13.9,2.6l1.3,2v15l-1.5,2c-17.7-1.8-35.9-8.3-51.9-15.7l.5-2.3c-3.6,2.4-7.5,4.9-11.9,7.2s-16.6,6.2-22.6,4.8c-1.2,1.1-18.7,2.1-19.3,1.3s-.5-.8-.7-1.3l-.5,1.4c-6.1,1.6-12,3.8-17.7,6.7l-2.3-1.1-3.4-3.2c-3.9-9.3-7.3-18.8-10.6-28.3-4.3-12.4-7.4-37.7,10.2-17.9,6,6.1,12,8.4,20.4,5.5l2.5,1Z"/>
  <path class="st95" d="M198,373.9c3.4.7,9.8,7.2,5,9l-1.2,2c-7.7.5-15.4,1.8-22.8,4,.7,4.2,2.7,8.1,5.8,11.8l-.8,2.2c1,1.6.9,2.3-1,2l-10.2,13.7-2.8.3c-4.3,1.7-8.9,3-13.7,4l-19.6,8.6c-2.9.6-11.9,0-13.7-2.6-3.2-.5-5.2-3.5-6-9,.3,3.4-12.3,22.5-13.5,22.9s-1.6.4-2.5,0v-39c7.1,1.2,14.6-6.7,19.7-7.8s6.8.2,10.3-.7,4.8-3.8,8.1-4.9c12.1-4.1,28.3-7.3,40.9-11.1s11.6-4.8,18-5.5Z"/>
  <path class="st52" d="M321,265.9c-1.6,5.2-10.6,11.4-16,12l-5.6,3c-11.4-1.9-23-1.8-35,.3-19.5,2.8-39.8,4.8-59.5,2.5-.1,2.3-.7,3.3-3,2.2-2.4.1-4.4-4-4.7-6.4l-1.3-.6c-.6,3.8-1.6,6.8-3,9-6.7,5.4-13.9,8.8-22,11.5s-17.8,4-26.2,6.8-2.1,2.3-4.2,2.8c-4.3.9-9.4-1.8-10.6-1.5-2.2.5-2.7,3.1-4,4-2,1.4-4.8,1-6.9,2.1s-2.9,3.5-4,3.9c-1.9.7-10.4-1.8-14.1,1.5v-16c6.7,1,12.6-4.5,18-5.6s6.5,0,10.8-1.1,11.8-5.9,16.1-6.9c12.6-2.9,25.6-5.2,38.1-8.9s7.8-4.6,9.8-5c9-2.1,20,.6,28.6.9s7.7-1.3,11-1.5c28.6-1.4,59.6-3,87.5-9Z"/>
  <path class="st59" d="M398,282.9c.2.6-.5,1.1.6,2.1s10.8,4.1,12.3,4.5c9.9,2.7,20.9,3.7,30.4,5.5,13.9,2.7,28.4,7,41.7,10.4,3.6.9,7.4,1.3,11,2.5v20c-3.3-.2-7,.5-10.3-.2s-3.5-2-5.5-2.5c-22.9-5.3-44.6-10.4-67-15s-19.5.2-26.3-7.2l-.5-1.3c4.6-5.5,8.8-11.4,12.5-17.7-.3-.9,0-1.3,1-1Z"/>
  <path class="st137" d="M466,411.9c1.2,4.9,2.2,6.3,5.7,2.3l2.3.7h2.6c4.7,3.9,10.3,6.8,16.7,8.5l.7,2.5v29c-1.5,2.2-4.1,2.4-8,.6-14.8-9.2-29.7-16.5-46.8-20-1.8.8-3.2.6-4.2-.6l-2.2-.5c-6.4-10-13.2-19.8-20.6-29.4l.8-1.1c-1.8-2.3,3.7-6.6,6-5l1.8-1.5c3.4-2,32.5,9.2,36,13.1,6.1-2.7,9.1-2.2,9.2,1.4Z"/>
  <path class="st17" d="M494,392.9v33c-7.8-3.3-14.3-4.2-20-11l-2.2.6c-1.5-2.5-3.4-3.7-5.8-3.6-3.1-3.1-7.7,1.2-9.4.8s-2.4-2.4-3.9-3.1c-6.7-2.8-14.1-5.7-20.7-8.3s-8.8-1.6-13-2.5l-.8-2.3c4.3-6.9,8.1-14.2,10.6-21.9l2.3-.8c2-5,7.1-1.3,9.2,1.8l4.9-.3c15.7,5.4,31.5,10.7,47.4,15.7l1.4,1.8Z"/>
  <path class="st97" d="M494,359.9v33c-7.7-2.2-15.6-3.8-23.2-6.3s-16.9-7.4-25-9.1c-2.9-.6-5.4.4-6.3.2-1.2-.3-3.3-6.1-8.6-3.8-.3-.7-.6-1.4-.8-2.1-.7-3,4.8-26.2,6.1-31.4s.8-1.1,1.7-1.5c1.9-1,3.8.3,5.7,4.1,15.6,3.8,30.5,8.7,44.7,14.7,2.7,0,4.6.7,5.7,2.1Z"/>
  <path class="st50" d="M121,530.9l-9.9,28.9-3.1,2.1c-3.4,0-5,.5-7-3v-116l16-23,1,4c-.3,20.5-.9,40.9-2.1,61-.4,14.5-.5,29.7,5.7,43l-.7,3Z"/>
  <path class="st89" d="M494,454.9v21c-4.5,2.7-8.6-6.1-10-10-1.6,5-3.9,7.4-7,7-3.1,2.4-6.3,3.6-9.5,3.5-10.1-7.1-20.7-11.3-32.4-15.6-7.8-6.8-11-8.7-21.5-6.1l-1.6-1.8,1-2.5c5.4-1.5,10.5-3.6,15.5-6.1l2.6.7c0-2.6,0-2.6,2-1-.5-4.1.2-7.1,2-9,4-2.7,7.6-1,12,.5s15.7,5.1,20.8,7.2,12.4,8.5,18.3,10.7,5.4,1.5,8,1.5Z"/>
  <path class="st136" d="M484,465.9c4.8,2,5.2,8.5,10,10v85c-3,0-7.8-4.1-10.1-2.6s-.6,2.1-.9,2.6c-2.3,2.4-4,2.9-6,0l-1.3-2.1c4.4-7.4,6.3-14,4.7-22.9-.9-9.4-1.7-18.6-1.4-28-.8,0-1.9-.4-1.9-.9.6-9.6,2.1-26.4,4.2-35.3s1.2-4.1,2.7-5.7Z"/>
  <path class="st13" d="M494,342.9v17c-6.5,1.5-10.9-2.9-16-4.5-11.7-3.7-23.7-6.8-35.3-10.7l-4.7-5.8c-1.9-1.6-.2-4.9,1-7-3.7-1.2-.7-5.4,2-5,.7,1.6,9.4,4.6,11.9,5.6,10.1,3.7,23.9,8.3,34.8,10.2s4.1.3,6.2.3Z"/>
  <path class="st130" d="M494,684.9v43c-6.9-2.8-13.9-5.6-21-8-1.8-1.1-1.4-2.4-.2-3.8l10.5-10.8c4.3-3.1,1.4-4.6-8.7-4.4-5-1.2-2.6-13.1,1.4-14-1.5,8.6,7.6.6,10.8-.7s4.8-1.3,7.2-1.3Z"/>
  <path class="st14" d="M109,688.9c4.5-1.3,11.4-.5,14,4l-1.9,2.5c-1.9.5-10.9,3.3-11,4s11.7,10.5,14.1,11.1l.7,2.4c2.7-1.9,8-2,8,2-10.8,3.1-21.5,6-32,10v-37c2.4.8,5.9.5,8,1Z"/>
  <path class="st123" d="M140,783.9c-1.2,4.3-7.8,6.7-12.2,8s-20.7,3.4-24.4,3.3l-2.4-1.3v-4c4.1-1.9,6.8-5.1,11-7.5s12.1-6,18.4-5.4,8.9,1.9,9.6,2.4c2,1.3-.2,3.2,0,4.5Z"/>
  <path class="st8" d="M140,783.9c.3,2.9,5.6,1.8,0,6.5-8.9,7.6-28.5,11.5-39,5.5v-2c9.9-3.6,21.3-1.3,31-5.5s4.9-3.9,8-4.5Z"/>
  <path class="st31" d="M101,749.9v-4c1.7-2,14.1-4.9,14-1.5s-11.4,5.5-14,5.5Z"/>
  <path class="st42" d="M126,201.9c-.4-.4-1-5.3,2.5-4s-.8,5.6-2.5,4Z"/>
  <path class="st112" d="M121,195.9c.7.7-.4,4.5-2.5,4-3.7-.8.5-5.9,2.5-4Z"/>
  <path class="st128" d="M234,779.9c-2.6,6.3-13.3,8.6-20.1,8.9-17.7-1.3-34,2.2-50.7,8.2l-3.2-1.1c-.4-1.8.3-3.8,1.1-5.4,2.6-4.9,30.9-24.4,36.6-25.4,13.8-2.3,27.8,3.9,36.3,14.8Z"/>
  <path class="st27" d="M234,779.9c3.6,4.7,4.6,4.8,0,10v2.7c-5.2,8.3-43.9,16.1-54.3,15s-11.2-1.5-11.7-5.7c-2-1-7.6-3.9-8-6,10.8-3.1,23.4-7.8,34.6-8.9s18.6,1,27.6-1.4,7.6-4.2,11.8-5.7Z"/>
  <path class="st103" d="M479,761.9l-.7,1.2c-20.4-5.8-40.6-12.1-60.8-18.9l-.5-2.3c1.2-1.3,1.1-1.6,3-2.5,6.5-3.2,20.9-7.6,27.9-5.8s16.2,8.3,19.2,10.8c6.3,5.4,8.1,11.2,12,17.5Z"/>
  <path class="st15" d="M481,765.9c1.4,2.1,5.5,5.3,5.9,6.7,1.6,6-8.7,1.6-11.4,1.3-15.5-1.3-40.2-4.1-53.8-12.2s-6.4-5.1-6.6-5.5c-.9-2.8,1.6-4,1.9-5.3,1.5-3.7,5-2.7,10.7,3,11.9,3.7,24.3,5.5,37.3,5.6,5.3,1,12.5,2.4,16,6.5Z"/>
  <path class="st5" d="M168,801.9c9.5,4.7,14,4.4,24.2,2.7,13-2.2,33.1-4.9,41.8-14.7,6.6,2.9-1.6,9.8-5.1,12.4-6.6,5-27.5,8.3-36.5,9.5s-23.6,2.7-25.9-1.9,2-5,1.6-8Z"/>
  <path class="st28" d="M479,761.9c.8,1.4,1.4,3.1,2,4-16-8.3-39.1-2.7-54.3-10.2s-6.3-6.9-9.7-4.8c.6-3-1.8-5.9-1.7-7.6s1.3-1.1,1.7-1.4l62,20Z"/>
  <path class="st139" d="M173,746.9c-12.2,6.2-28.3,7.3-42.2,6.8l-2.8-1.8c.8-7.2,13.5-16.7,20.6-16.9s24.6,8,25.3,10.6-.9,1.2-.9,1.3Z"/>
  <path class="st38" d="M345,773.9l4.3-2.1c13.1,0,26-.5,38.8-1.6,0,2.7-3.2-5.7-.2-6.3,2.2.5,5.3,4.9,4.9,7.3s-1.8,2.6-2.3,3.8-.4,3.4-1.1,4.9c-3.7,7.9-22.5,4.1-29.5,2.6-4.5-1-17.6-3.5-15-8.5Z"/>
  <path class="st60" d="M197.1,745.8c-4.4-7,13.7-12.4,18.4-12.9s20.8-1,14.5,6.5c-4,4.7-30.3,10.4-32.9,6.4Z"/>
  <path class="st62" d="M387,763.9c-.5,4.3-8.6,6.5-12.6,7.1-6.2.9-16.7,1.5-22.9.8l-2.5-1.9c.2-.2,0-1.6,1-2.4,8.7-7.9,30-18.7,37-3.6Z"/>
  <path class="st8" d="M173,746.9c-1.3,6.3-9.3,8.7-15.2,10.3-6.8,1.8-31.1,6.3-29.8-5.3,8-.6,17.5-.2,25.4-1.1s10.5-2.7,15.2-3.8,3.6-1.8,4.4-.1Z"/>
  <path class="st44" d="M362,816.9c.6,2.9-1.5,4.6-6.5,5l-9.5,1c-5.2-.4-15.1-2.1-20.3-3.2s-5-2-2.7-3.3,10.7-3.1,12.6-3.4c6.5-.8,21.6-.9,26.4,3.9Z"/>
  <path class="st54" d="M345,773.9c1-2,2.6-2.5,4-4,9.7-.1,19.3.8,28.8-1.7s6.8-3.5,9.2-4.3.8,0,1,0l2,7.4-1.6,1.4-43.3,1.2Z"/>
  <path class="st19" d="M346,822.9c5.6-2.2,11.7-1.1,16-6,7.2,7.2-11.5,6.3-16,6Z"/>
  <path class="st35" d="M146,255.9c-1-.7-7.6-2.8-6-5s5.7-2.1,7.3-3.2c4.2-2.9,7.5-7.7,9.9-12.2s.6-6.2,3-2.4,1.8,3.2,2.8,4.7c1.9,3.1,1.3,4.3,5,7.5s9.7,5,10,5.5c1.3,1.8-5.4,4.8-7,6s-1.6.2-2.5,1c-5.4,4.3-5.5,10.1-10.5,14-1.6-6.7-6.6-12-12-16Z"/>
  <path class="st129" d="M296,199.9c.8-.8,8.1-.1,5.5,4s-7.7-1.9-5.5-4Z"/>
  <path class="st115" d="M198,208.9c.1,1.4.1,2.7-.5,4-3,6.3-10.3-5.8.5-4Z"/>
  <path class="st46" d="M466,220.9c-1.1-.8-1.5-6.1,2.5-5s.3,7-2.5,5Z"/>
  <path class="st1" d="M133,223.9c-1.9,1.9-6.2-3.2-2.5-4s3.2,3.3,2.5,4Z"/>
  <path class="st143" d="M335,261.9c3.9-1,8.1-1,12,0,13.6,1.6,20.3,13.9,31.6,15.9,4.4.8,14.2,0,17.8,1.2s1.2,2.7,1.6,3.9c-.4.3-.6.7-1,1-11,24.4-33.1,20.9-46,0-3.9.6,0,34.7.7,39.8.4,6.8,1,19.9-2.1,26.2-8.3,16.5-47.2,12.2-62.4,8.3l-1.2-2.4-2.4-1.7c-3.4-12.4-11.5-23.1-21.1-31.5l-.5-2.8.3-2.2c11.6-12.6,23.7-24.9,36.2-36.8l6.4-3c5.4-4.7,10.4-7.7,16-12,4.9-1.1,8.7-3.5,14-4Z"/>
  <path class="st67" d="M347,261.9c-3.1-.4-8.9-.3-12,0,2.7-1.7,9.1-1.7,12,0Z"/>
  <path class="st16" d="M169,525.9c.4-.3.8-.6,1.2-.7,1.7-.5,14.8,21.3,15.5,24.2-.6,1.2-.5,2.7.3,4.5,3.2-.7,4.5,4.2,2,6,9.5,12.7,18.4,25.7,26.7,39.2,2.2,0,3.1,1.2,4.3,2.8l3,1.9c8.3,15,20.7,26.3,37,34,2.4,3,3,12.9.5,15.2l.5,3.9c2.7,1.9,2.7,5,0,7,0,2.9-2.3,2.7-3,0-4-2.1-5.1-8.6-5-13l-2.5-.6c-2.7-6.1-7.1-10.8-13.1-13.9l-.4-2.5-3,.7c-14.3-5.1-29.4-5.7-45.4-1.9l-2.5-1.8c1.5-1.7,2.8-.2,1-2.5-8.3-11-24.5-24.5-34.5-35.5-9-10-17.6-20.5-25.9-31.1-3.6-2.6-12.9.2-17.6,0,4.3-9.1,6.6-19,10.3-28.3s.3-3.2,2.7-2.7l11.6,3.7.9,2.3c1.6-3.4,13.2-3,15.5,0l-2.5-.9-14.8-35.2c-.7-2.2.7-3.2,2.7-3.7s33.1,23.7,34.7,28.9Z"/>
  <path class="st145" d="M236,633.9c4.8,4.7-5.8,20.8-12,19-.7,1.8-1.7,1.3-3,.4l1,2.6,1.4,1.9c-1.1,5.4-7.5,21.7-14.4,19.1-2.9,2.1-11-3.4-10-7-8.9-8.4-15.7-25.4-16.9-37.6s1.2-1.3,2.9-1.4c18.8-1.4,33.5-6.6,51,3Z"/>
  <path class="st101" d="M199,669.9c2.7,2.5,6.8,5.1,10,7l3.4-.4c6.1,3.6,13,5.5,20,6.2l1.6,2.2c2.8-2.2,20.1-1.4,21.7,0s-6.3,8.3-8.7,8.9c1.7,1.2,1.1,2.1-1,2-.4,1.6-2,1.8-4.6.8-12.8,2.6-25.6,3.6-38.4,3.2-3.1,0-23.6,3-26,4-1-.4-1.4-1.1-1.3-2.1,1.4-13.1,0-20.6-3.2-32.5l1.5-.4c-2-2.1-.5-3.3,2-2,5.6-.8,15.9,12.4,18.5,13s2.6-8,4.5-10Z"/>
  <path class="st48" d="M173,704.9c-8.1,1-18.9,3.9-27,6l-2.3-.6c-1.9-5-4.3-10.4-9.3-13.1l-.4-2.4c-2.4-3.1,0-12.5,5-8,1.4,1.4,2.3,4.4,5,4,1.3-6.4.7-13.4,4.5-19,2.7,0,8.9,6.8,11,9s5.3,9.1,7.5,7c-.4-6.8,1-13.4,2-20,4.5.9,7.1,15.2,7.6,20.3s.7,14.7-3.6,16.7Z"/>
  <path class="st99" d="M145,639.9c-11.3-10.3,3.3-25.2,11.5-11,2.7,1.4.2-5.1,3.1-5.9,4.3-1.3,12.3,8.8,9.5,13.2s-2.1,1.5-3.1,2.7c-5.3,5.9-17.4,9.9-21,1Z"/>
  <path class="st6" d="M139,686.9c-5.1-1.3-2.5,5.1-5,8-.3.9-.7.9-1,0-1.5,2.5-10,1.2-10-2-4.7-1.2-9.7-3-14-4,3.1,0,2.6-1.4,3-3.5s.7-14.1,2.6-14.6c6-1.4,20,11.8,24.3,16.1Z"/>
  <path class="st3" d="M166,638.9c-1.9,2.3-4.9,6.2-7,8,1.3,1.5.7,2-1,1-1,.8-8.8,5.6-9.7,5.8-11.1,2.5-16.8-12.1-10.6-13.7s3.7.7,5.7.8,1.5-1,1.6-.9c1.4.1,3.8,2.4,5.7,2.8,6.3,1.3,9.8-1.6,15.3-3.8Z"/>
  <path class="st29" d="M172,666.9c2.2-1.3,2.9-.3,2,2-1.6,3.3,3.6,14.1,4,19.5s-.6,10.2-1,15.5c-.1,0-1,.9-1,1-.6,1.9-1.4,1.9-2,0-.3,0-.7,0-1,0,4.5-10,2.2-22.2-1.2-32.3s-2.2-3.5-2.8-4.7c-1-2.4-1.2-4.7-2.8-7.7-2.3-4.4-5.5-8.2-8.2-12.3.3-.3.6-.7,1-1,6.5,5.1,8.4,13.9,13,20Z"/>
  <path class="st32" d="M176,666.9c-.3.7-1.7,1.4-2,2-1.1-.3-1.4-1.2-2-2-.5-3.7-2.5-15,3.5-15.1s1.9,12.1.5,15.1Z"/>
  <path class="st34" d="M464,548.9c2-1.8,4.2-.8,6.5,3,1.9,3.3,4,6.3,6.5,9,2,0,4,0,6,0-3.6,5.9-7,11.7-11.5,17l-74.5,74-1.8-1.3c.4-2.6,3.6-21.5,2.2-21.7-2-.2-21.7,4.3-25.6,5.1-4,1.8-7.6,2.4-10.8,1.8-.7,2.5-2.6,4.6-5.7,6.4-2.2,3.3-4.7,5.1-7.3,5.6,0,5.2-1.7,8.5-5,10-3.4.9-6.3,2.9-8.9,6l-2.1-1c-1.2-7.8-1.6-15.4-1.3-22.8,25-8.5,44.3-22.6,44.5-51.2.3-1.4,1.6-1.4,3.8,0l1.5-1.6c6.9,1.4,14.3-.6,20.5-3.7l-8.5-2.3c-3.1-.9-8.5-3.9-4.5-6.4l-.5-2.3c3.6-4.7,12.1-14.3,17-17s6.2-3.2,7.5-.7c3.7-3.8,9.9-6.9,15-5,2,1.4,2.1,4.3.4,8.6,7.5,16.3,26.4,8.7,22.9-7.8l1.6-1.8,2.5-1.3c3.6,1.5,6.2,2.1,9.5,1.3Z"/>
  <path class="st132" d="M476,686.9c-.2,1.9-3.3,10.7-2,12,4,.4,8.6.5,12.5,1s1.9-.5,1.5,1.5c-1.1,5.6-13.2,12.5-15,18.5-11.1-3.7-32.1-11-43-12-3,.5-5-.2-2.7-2.6.2-2.6,6.3-17.4,7.3-17.6s1,0,1.5.2c-.5,4.5,5.1-.7,7.4,0s.7,4.9,3.1,3.9,10.8-9.6,13.6-11.4c11.7-7.8,17.6-11.8,15.9,6.4Z"/>
  <path class="st55" d="M473,627.9c4.1,2.1,1.4,9.5-.7,12.8-6.9,10.6-32,10.4-42.3,5.2-1-1.2-2.2-1.2-2.8-3.7-1.4-6.6,1.4-23,10.8-18.8,2.8,1.3,4.1,8,6.5,7.5,3-6-.1-8.8,6-14,9.3-7.9,21.5-.2,22.5,11Z"/>
  <path class="st85" d="M397,651.9c-1.4,5.1-4.2,9.2-6,14,1,2.7-3.2,7-6,6-6.9,3.6-17.2-12.5-12-18,1.1-3.3.4-3.9-2-2-5.7,2.8-15.1-11.7-10-16,11.7-6.3,26.6-4.9,39-10,.8,1.1-2.2,22.9-3,26Z"/>
  <path class="st7" d="M391,665.9c.6-.3,7.9-3,8.3-2.9,3.2.9.9,7.3,5.7,5.9,1.3,2.5-.9,3.8-3,2-.3,2-1.9,3.4-4.8,4.2-2,2.2-3.7,2.8-5.2,1.8l-.5,3.3c-3.7,4.9-6.9,10.1-9.5,15.7,3.8,1.4,1.6,2.7-2,2l-2.4,1.7c-9.6-1.6-19.1-2.5-28.6-2.7-2.3.3-2.6-.3-1-2-4.5-1.7-12.9-7-12-12,1.5-1.6,3.7-2.2,5,0,1.3-1.3,2.4-1.2,2.7.5,6.8.6,13.6-.9,20.2-2.7l3.1,1.2c1.3-2.5,4.2-4.3,8.6-5.4,3.1-2.9,6.2-4.4,9.4-4.6,2-1.7,3-4.3,6-6Z"/>
  <path class="st96" d="M473,627.9c7.8-1.4,13.4,2.4,10.1,10.6s-3.2,3.2-3.1,5.4c9,.9,1.8,13.3-4.3,15.2s-19.1-1.3-25.7-3.2c-1.9,1.9-2.4,1.6-2-1-6.6-2.1-13.5-3.3-18-9,15.5,1.2,45.3,6.3,43-18Z"/>
  <path class="st75" d="M405,668.9c8.7-2.1,25.5-1.3,31,6l-.5,2.2c-3.6,2-6.7,4.8-9.3,8.4l-2.2-.6c-.7,5.5-10.1,13.6-15,11-7.5,3.2-12.5-15.6-3.5-16.3l-1.5-.7c-3.8.9-5.6-6.4-2-8,.9-.4,2.3-1.8,3-2Z"/>
  <path class="st22" d="M436,674.9c.3.4,1.5.6,2,1-.7,8.9-6,17.7-11,25-5.5.6-5.6-12.2-3-16,3.6-3.4,6.5-8.8,12-10Z"/>
  <path class="st78" d="M450,655.9c-2.1,7.6-8.4,15.7-10.6,23s.6,1.8.6,2c1.6,1,1.6,2,0,3-3.1.8-3,2.5-4,4-2.7,4.2-6.1,12.2-7.6,17s-.2,1.7,1.6,3c-5.3-.5-1.3,3.5-6,4,.1-2.4,2.8-5.5-1-5-.9-.3-.9-.6,0-1,.3-1.6,2.1-4.5,4-5,3.6-8.3,7.2-16.8,11-25s7.5-13.6,10-21c.8.3,1.6.9,2,1Z"/>
  <path class="st105" d="M440,683.9c-1.8-.4,0-2.4,0-3,3.9-5.1,6.6-7.9,13.5-7.1s.4,6.7-2.8,8.3-7.5,1-10.7,1.8Z"/>
  <path class="st134" d="M269,692.9l7.5-2.4c14.7-.5,29.4-.6,44.1.4l4.4,2.1.7-1.2c2.3,1.2,4.8,2.3,7.3,3.2.8-2.8,3.2-2.8,4,0,4.1,1.1,8.1,1.8,12,2,.7-.5.5-2.1,2.5-2.1,8.2.2,19.9,2.2,28.5,3.1,3.4-2,5.2-1.8,5.5.5,2.7-.1,4.9.4,6.5,1.5,10.2,0,20.2,1.2,30.2,3.8l.8,2.2v1c-11.1,6.3-24.5.8-36.5,0-24.5-1.5-49.5-2.9-73.9-3.1-30.9-.2-63.1,4.9-93.9,0s-10.9-3.7-15.6-3.9l37.5-5c2.1-.7,3.9.7,5.5,1,3.2-1.2,8.3-1.1,12-1,0-2.9,2.6-3.6,4-1,3.6-2.1,5.9-2.4,7-1Z"/>
  <path class="st49" d="M146,710.9c-4.3,1.1-8.7,2.8-13,4-2.4-1.3-5-1.1-8-2,0-2.3.6-4.8,1.4-7.5-3.3-1-15.8-5.2-7.8-7.6l10.9,2c.3-3.2,1.4-4.8,3.4-4.9.3.1.7-.1,1,0,6.7,2.8,9.7,9.7,12,16Z"/>
  <path class="st30" d="M176,704.9c-.3,1.1.3,4.7,0,5-5,.7-2.2-1.4-2-5,.7,0,1.3,0,2,0Z"/>
  <path class="st74" d="M212,383.9c-.9,2.9-8.7,1.9-9-1,.9-3.5-3.7-5.7-4.7-7.3s-.2-1.5-.3-1.7c-8.2-14-11.1-26.7-11-43s3.2-29.9,6-43,.8-6,3-9c1.7,1.7,2.6,3.1.3,4.2-2.3,7.4-4,29.2-4.6,37.9-1.5,22.6,1.6,45.7,20,60.3l.3,2.6Z"/>
  <path class="st135" d="M172,334.9l-10.5,9c-1.6-2.3-1.9-4.3-3.5-7s-2.5-3.1-4-4.5c5-2.2,8.4-3.6,11.5-8.5,1.4,4.1,2.2,8.9,6.5,11Z"/>
  <path class="st95" d="M138,379.9c-.4-.4-1-5.3,2.5-4s-.8,5.6-2.5,4Z"/>
  <path class="st86" d="M397,283.9c-.6,5.5-7.7,16.1-12,19s-10.5,2.5-14.3,1.8c-6.1-1.2-14.4-13.7-18.2-13.8-5.6-.1-.7,15.6.2,18.8,3.3,12.3,8.8,24.4,13.3,36.2l.2,2.2c-6,4.2-12.7,9-15.2,16.3l-2,.5c-.5,2.7-2.3,3.3-4,1-18.3,2.7-36,9.4-53.3,16.8l-3.7-.8c-1.9.6-2.5,0-2-2-1.6-3.3-2-7.3-1-12-.8-4.6-.4-8.6,1-12,13.5,4.3,54.6,8.4,61.8-6.7s2.1-9.1,2.2-11.8c.9-15.8-3.7-34.4-2-50,.2-1.8,1.1-6.5,4-5s6,8.1,8.4,10.6c6.5,6.5,16.4,7.9,24.5,3.4s7.1-8.7,12.1-12.4Z"/>
  <path class="st110" d="M441,326.9c-2,1.2-1.7,3.1-2,5-.5,1.7-1.1,2.3-2,2-2.5-.5-.7-2.2-.3-1.2,1,2.3-23.2,11-27.4,9.9-20.3-.2-42.2,3.5-54.2,21.3l-2.2,1c-.7,3-2.7,2.5-4,0,1.2-6.7,11.3-15.7,17-19s16.5-7,20.5-7h20c3.6,0,14.3-2.6,18-4,6-2.2,11.1-6,16-10,1,0,.3,1.5.5,2Z"/>
  <path class="st141" d="M123,428.9c.9.6,1.7,1.2,2.5,1.9,3.2,3.1,15,28.4,15.5,33.1s0,2,0,3.1c9,11,16.7,25.2,20,39,3.6,1.3,11.4,17.3,10.6,19.8s-1.6.8-2.6.2c-8.7-7.8-20.6-16.3-30.1-23.4s-5.2-4.4-5.9-3.6l16,38h-15.5c-.6,0-10.2-2.8-10.9-3.2-1.9-1.1-1.2-2-1.6-2.8-10.3-17.8-6.7-47.7-6-67.5s.9-29,2-43.5c1,0,5.2,7.5,6,9Z"/>
  <path class="st125" d="M345,365.9l-1,2.5c-9.9,6.2-19.3,13-28.3,20.6l-3.6-.2c0,.5,0,.9,0,1.3-.6,1.7-31.1,9.2-35,9.8-10.4,1.9-46.5,8.6-54.1,3.4s-1.2-1-1.8-1.6l-4.3,1c-11.9-3.8-23.7-7.6-35.5-11.6l-2.2-2.4c5-4.7,17.3-6.1,24-6s6.1.8,9,1c25.7,8.2,48.7,6.9,74.5-2.8l1.5.8c15.9-5.5,29.6-13.3,46.6-15.9,2.7-.4,7.9-1.1,10.4-.1Z"/>
  <path class="st71" d="M170,418.9l.9,2.2c-5.1,6.1-8.9,13.1-10.9,20.8,2.4.2,3.4,1.7,3,4,2.2,3.2,5.6,5.4,10.3,6.6l.7,2.4-.4,2.4c-4.9,2-9.6,4-13.7,7.6l-17.2,3.7-1.8-1.7c-6.2-12.5-11.5-25.7-18-38l13.3.7c11.1-4,21.2-12.1,33.7-10.7Z"/>
  <path class="st124" d="M221,401.9c1.6,2.6-6.3,6.3-9,7.6s-16.3,6.5-18,2.4c-3.2.7-11.2-5.5-10-9-1.4-1.6-6.3-9.1-6.6-11s.5-2,1.6-3c15.5,2.2,25.8,10.7,42,13Z"/>
  <path class="st80" d="M194,411.9c.4.6,1,1.7.6,2-2.7,2.1-22.5,16.3-24,16.6s-1.6.3-2.6-.6l-.8-2.6c4.9-7.7,10.2-15.2,15.8-22.4.3-.7.7-1.3,1-2,2.6,3,7.4,5.8,10,9Z"/>
  <path class="st107" d="M168,429.9c.6,5-3.2,10.6-8,12-2-7.8,5.4-17,10-23s9-9.7,13-14c-2.9,7-10.7,17.6-15,25Z"/>
  <path class="st67" d="M305,277.9c-13.5,11.6-27.4,26.6-39.7,39.7-1.1,1.1-1.6,2-3.3,2.3l-2.8.3c-14.2-7.8-29-14.6-44.3-20.4-5-2.9-13-8.1-12.9-13.9,1.6-.5.3-3.8,1.6-4.1,4.5-.8,9.5,1.1,13.9,1.1,6.9,0,13.8-1.2,21.1-1.1s10.2-.6,19-1.9,22.6-2.3,31-2.8,10.7,3.4,16.4.7Z"/>
  <path class="st73" d="M202,285.9c11.2,18.4,42.6,20.3,60,34,10.9,8.5,21.3,22.2,24,36s1.1,16,0,24c0,2-4,2.9-5,1l-1.5-3.2c6-39.8-25.4-61.9-59.6-71.3-9-3.6-16.6-9.1-21.5-17.5-1.9-1.2-4.2,43.3-4,45.6,1,15.9,5.8,34.1,19.5,43.4,2.1,2.1,4,5.3.3,5.9-.5.4-1.2.4-2,0-4-2.6-10.7-11-13.2-15.3-16-27.6-5.1-60.1-2.8-89.7.4-.5,1.3-2.5,2-2,.8,3,2.4,6.4,4,9Z"/>
  <path class="st11" d="M438,338.9c-2.3,11.2-3.9,24-7,35s-8.4,20.3-12,25-5.1,4.5-6,5c-.1,1.1-1.5,1.5-4,1,1.5,2.6-2.1,7.4-5,6,1.3,4.1-4.5,6.7-8.3,5.6s-20.5-14.2-20.6-15.5.5-1.5,1-2.1l2.3-2.7c7.6-2.8,19.1-5.2,26.7-2.3.6-1,1.6-1,3,0,2.2-1.9,3.8-.9,3,2,5.8-.7,10.2-10.3,12.6-15.7,4.4-14.3,8.5-28.8,12.4-43.3-2.7-1.1-1.8-3.1,1-3,.3-.7,1.5-1.4,2-2-.4,2.3-.5,4.7-1,7Z"/>
  <path class="st98" d="M413,403.9c4.3,8.2,20.5,22.5,22,31s.1,6.4-2,9c-2.6-2-4.6-5-6.1-8.9-3.4-3.3-5.3-6.7-5.9-10.1-4-6.4-8-13-12-20,2.1-1.6,3.4-.7,4-1Z"/>
  <path class="st127" d="M466,411.9c1.2-.9,4.1-3.8,5-3-.4,3.6,1.5,4.1,3,6l-7,6c0-3.2-1.7-5.5-4-7.5-.2-.4,2.1-.9,3-1.5Z"/>
  <path class="st111" d="M312,388.9c9.9.6,19.9,1.3,30,2.1l8-2.1,2.7-1.2c7.7,2.2,15.1,5,22.4,8.4l.9,2.8c.3.2,1,1.7,2,2.4,3.3,2.1,17.2,13,18.7,13.4,2.8.8,5.3-2,7.3-3.8,6.4.4,14.7,8,17,14,5.7,5.7,9.9,11,12,19-.6.8-1.6.7-2,1l-4.6-1.3c-20.7-18.6-45.7-29.7-72.4-35.7l-1.9,1.3c-9.4-3-20.8-4.9-30.9-4.6-29.1.9-56.1,5.2-84.7,10.2l-2.6-.9-4.5,2c-23.1,4.2-47.1,10.4-62.9,28.9l-3.5,1.1c-.1-.2-1.9.4-3-4,2.9-3.8,5.6-7.8,8-12l26-18c6.2.7,11.4-3.1,17.3-4.2l9.7-5.8c17.8,2.5,36.4,0,54-3.5,6.2-1.3,34-10,37-9.5Z"/>
  <path class="st142" d="M477,472.9c-.3,1.1-.6,2.1-1,3.1-1.8,4.3-21.3,28-25.1,30.4s-1.9,1-2.9,1.5c-1.3,1.5-2.5,1.8-3.5.8-8.3-9.7-17-20-23.5-30.8-2.8,1.8-5.4,4.3-7.7,7.3l-3.3.7-3.7,2.3c-9.3-3-19-5.1-28.9-6.1-2.9,1.5-5.1,1.4-6.4-.2l-1.8-2c-.2-2-.1-20.1.5-21s.8-.7,1.3-1l1.5-1.6c12.4-.3,25-1.7,37.6-4.4l1.9,1.1c3.1-.4,12.3-1.8,14.4-1,3.3,1.2,4.8,4.3,7.9,6.2,6,3.8,14.3,5.2,20.7,8.3s11.3,7.6,13,8.1c2.6.7,6-2.3,9-1.6Z"/>
  <path class="st102" d="M479,507.9c1.4,14.2-4.2,28-11.8,39.8l-3.2,1.2c-.8,1.1-1.2,2.4-2.6,2.8-3.2-.7-6.3-1.9-9.4-2.8-2.9,1.6-6.3.6-10-3-1.1,1.1-3.3,1.3-6.4.7-1,2.2-1.5,3.3-3.6,1.3-1.5,3.1-3.1,3.8-5,2-4.9,1.9-10.2,3.1-15,5l-.9-2.5c9.2-13.4,20-26.8,30.6-39.9.8-1,1.8-1.8,2.9-2.5s2.2-1.5,3.4-2.1c9.3-11.5,19-23.9,29-35,1.2-1.4,5.8-7,7-7l-5,42Z"/>
  <path class="st100" d="M431,444.9c-6,4.4-12.2,5.2-19,8-9.2,1.3-18.2,3.9-27.5,5s-9.9,1.3-13.5,0l-1.4-.7c-.3-14.5-3.5-28.1-9.5-40.7-2.9-2.8-5-5.7-6.2-8.6,2.7-1.4,7.8.2,10.6.9,25.9,6.1,46.7,18.7,66.4,36.1Z"/>
  <path class="st9" d="M477,560.9c-.5,0-1.1,1.3-2.5.1-3.4-2.9-5.6-10.6-10.5-12.1,9.5-13.4,12.4-25,15-41,1,3.4,1.7,7.9,2,11.5.7,7.8,2,19.6,1.8,27s-4.4,10.7-5.8,14.5Z"/>
  <path class="st47" d="M133,694.9c-.4,1.2-1.7,6.7-2.1,7-.9.6-11.6-2.7-13.9-2l12,4c-1.5,2.9-.5,7.3-4,9-7.6-2.2-12.1-9.6-19-13.5,5.3-3.2,11-5.1,17-6.5,2.8.7,7.2,1,10,2Z"/>
  <path class="st82" d="M254,429.9l.5-2.4c16.8-5.1,34.8-10.5,52.1-13.7,50.3-9.2,64.1,5.6,63.2,56.1-.3,17.1-4.9,29.5-19.1,40.1,10,16.2,19.7,32.8,29.3,49.8,4.4,1.1,8.5,10.7,8,15,.2.3,0,1.4.5,2,3.6,3.9,12.2,3.3,16.4,6.5-5.3,4.6-19.8,8.2-26,5.5-.9-.5-1.8-.4-2.6.5-8.3-12.4-16.7-24.8-25.1-37.3l7.6,14c23.7,28.4-17.4,47.2-40.8,53.5-50.2,13.5-107.6,2.7-94.7-62.6l-9.3,14.2c-4,2.7-8.8,4.6-13,1.5l-2.5.8c-4-4.2-7.5-8.8-10.5-13.8-.9-1.9-.6-3.6-2-6-3.7-6.8,3.5-8,6-3,11.6,8.2,21.1-4.4,24.7-14.1h2.3c2.7-5.9,5.4-5,8.2,2.9l6.9-22.4c-2.5-2-3.6-4.2-3.1-6.5l-2.6-.4c-2.7-3.4-8.2-15.1-5.4-18.6-4.7-6.7-4.8-20.6-4-29l2-3c-3.2-5.1-3-16.4,1-21,1.4-4.1,17.3-8.6,20.8-7.6s.6,1.6.2,2.6l1.7.7,7.3-5.9,2,1.2Z"/>
  <path class="st56" d="M379,588.9c-3.2-.6-1.7,1.6-2,3.5-3.8,29.5-17.9,39.2-44.9,48.6,0,7.2-.5,14.6-.1,21.9,2,.2,1.9,1.2,0,2l-2.1-.7-.8-10.3c-.6-.6-14.2,4.6-14.9,7.2h-2.2c-2.6.8-2.8,0-1-2.1h-1.4c-.7-3.6-1.5-7.3-2.3-11-7.8,0-15.6-.2-23.5-.3-.4,2.9-1.4,5.7-2.8,8.2l2,1.4c2.1,9.5,0,36.1-14,35.6-1.7.1-5.2.7-7,1-.4-1.7.6-3.1,2.8-4.2,5.6-5.9,17.6-22.2,9.1-28.6s-11.3-6.6-13.8-4.2c-2.6-4.7.5-13.4-2.5-18s-12-6.7-14.6-8.4c-10.6-7.3-18.9-16.6-23.9-28.6-3.6-1.4-7-9.5-4-12-2.2-3.6-2.8-8.3-1.8-14.2-4.4,2.1-7.5,1.8-9.2-.8-2.1,2.4-4,.9-3-2,10.4,4.2,13.3-6.5,18.4-13.1l7.6-12.9c-2.1,13.9-4.8,28.3-1.7,42.2,13,57.7,131.5,30.3,138.5-2.9,2-9.6-2.9-12.2-6.9-19.6-5.1-9.3-11.5-20.4-14.4-30.6s-1.3-3.3.6-3.1c8.3,19,22.7,34.7,32.8,52.7.8.9,2.3,2.8,3.2,3.2Z"/>
  <path class="st40" d="M195,495.9c1.9.2,2.9,1.6,3.1,4.5l17.7,36.8c.9,2.8-.5,6.4-2.8,4.7l-3-1.2c-2.1-4.8-18.5-30.5-22.1-29.9s-1.1,13.2,1.5,14.6c5.6,7.9,8.9,16.2,9.8,25.1l-2.2,1.4c-1.2,1-2.9.6-5-1-1-.2-5.8-1.2-6-1v4c-3.4-5.8-13.6-25-17-28,2-.6,0-3-.5-4-2.8-5.4-4.9-10.8-7.5-16l1.2-2.4c3.2-2.9,20.7-16.7,23.8-17.3,5.4-.9,10.8,4.8,9,9.6Z"/>
  <path class="st68" d="M224,652.9l3.3-.6,14.1,12.5c1.4.1,8.2-10.8,8.5-13l2.1-.8c1.9,4.1,4.2,8.4,5,13l1.5,1c1,6.7,1.1,13.4.5,20,2.3,4.4-5.3,7.8-9,9-.9,1.8-2,1.7-3,0,2.2-3.7,6-4.4,8-8-7.1.5-14-.2-21-1-.9-.3-1.5-.8-1.6-1.7l3.8-9.3c2.9-5.9-8.5-12.9-13.4-15.4l-.8-2.6c-9.8-5.6-20.9-9.9-29-18l31,15Z"/>
  <path class="st91" d="M262,693.9c-1.4.2-2.7.7-4,1-2.4-.3-4.8-.2-7.3.3l-.7-1.3c2.7-3.5,6.5-5,9-9l-.8-1.2c1.9-6.1,1.4-12.6.7-18.9l1.1-1c-.1-2.3,0-4.7,0-7s-.5-3.9.5-5c4,3.4,18.3,7,18.6,12.5.4,8.6-8.6,25.9-17.1,29.5Z"/>
  <path class="st21" d="M252,650.9c.2,3.4-8.1,16.1-10.5,16s-13.2-13.2-17.5-14c5.5-2.7,12.4-12.9,12-19,8.6,4.7,11.7,8,16,17Z"/>
  <path class="st113" d="M201,572.9c.9.5,1.6,1.7,3,2l2.3,1c2.3,5.1,5.2,9.7,8.7,14,.3,2.6,2.8,9.2,4,12l-5.5-1c-7.6-13.3-19.2-27.4-25.5-41,4.7,4.8,7,9.5,13,13Z"/>
  <path class="st72" d="M260,663.9c0,.6,1,2,1,3.4.2,5.9,1.1,12.5-2,17.6-3.2.5-1.9-1.3-1.7-3.2.5-5.9.8-11.9-.3-17.8h3Z"/>
  <path class="st51" d="M234,684.9c-10.7-1.2-15.6-2.4-25-8,7.9-3.1,9.9-14.1,13-21,2.5,1.4,4.6,1.8,7.5,4s9.1,8.7,9.4,9.7c.9,3.4-4.1,11.4-4.9,15.3Z"/>
  <path class="st24" d="M250,693.9c2.5,0,6.4-.8,8,1-6.1,1.2-4.6,2.4-12,1,.4-.6.6-1.4,1-2,1,0,2,0,3,0Z"/>
  <path class="st41" d="M448,507.9c-9.4,11.6-19.1,24.1-28.4,36.1s-5.6,7.3-7.6,10.9c-2.4.9-5.5,1.7-7.5,3-5,3.2-11.7,12.7-16.5,17-3.4-4.7-5-10.1-8-15-.8-1.6-.8-2.6,0-3-.5-.7-1.1-1.7-.7-2.2,2.7-3.4,20.9-25,22.7-25.9,5.1-.7,10.5-.4,16.1.8,3.8-15.5,4.2-31.8,1.1-48.6l1.8-3.1c8.2,6.4,15.7,19.4,23,27.5s2,2.5,4,2.5Z"/>
  <path class="st23" d="M371,651.9c4.9-4.3,9.5-8.9,14.5-13s1.6-2.4,3.5-2c.4,1.9-1.1,2.4-2,3.5-4.1,4.9-9.4,9.1-14,13.5l-1,3.6-9.9,9.7c-1.1,3,3.6,9.7,5.5,12.1l-.5,2.6c-8.6,2.7-15.7,4-24.9,3.8-.5-.5.1-2.8-1.1-2.8-3.2-3-2.4-10.9-1.8-15.4-.2-4.7,1-7.9,3.8-9.6,1.3-4,2.7-6.5,5-10l2,.7c3,14.4,7,17,12.1,7.8,2.9-3.3,5.8-4.8,8.9-4.5Z"/>
  <path class="st92" d="M371,651.9c-2.4,2.1-5.2,3.8-7.5,6s-3.2,6.9-7.9,6.1-7.9-12.4-7.5-16.1c3.6-5.3,7.2-8.9,13-12-.4,6.3,4.3,13.5,10,16Z"/>
  <path class="st126" d="M343,657.9c-2.6,8.5-2.1,16.2-2,25-.6,0-3,1.7-5,0-.3.9-.6.9-1,0-3.2-3.3-6-14.2-3-18,0-.7,0-1.3,0-2,3.4-1.6,7.1-9.2,11-5Z"/>
  <path class="st10" d="M452,548.9c1.9,6.8-.2,14.2-6.1,18.4s-7.4,2.5-12.6-.2c-9.3-4.9-7.1-7.8-6.3-17.2,1.6-.6,3.4-1.3,5-2l1.6,1.4-3.9,9.2c0,1.6,9.7,7.6,12.4,7.4,7.5-8.2,8.4-13.1,2.7-14.9-3.3-1.8-4.2-3.5-2.7-5.1,3.4.7,6.7,2,10,3Z"/>
  <path class="st119" d="M385,671.9c-7.4,6.4-8.7,7.1-18,10-2.8-3.4-8.1-10.6-6.9-15.3s10.6-10.5,12.9-12.7c-.9,6.6,5.3,16.8,12,18Z"/>
  <path class="st109" d="M404,678.9c6.3-2.2,13.4-3.9,20-4l-18.5,5.9c-1.1.4-2.5,1-3,2.1s2.1,15.1,6.6,13c0,3.4-5.1,4.8-7,2l-9.7,1c-5,0-6.9-.1-10.3-3,.7-7.9,4.5-13.8,10-19,1.5.2,2.4,1.5,2.9,3.9l7.1-3.3,2,1.4Z"/>
  <path class="st76" d="M402,670.9c-.4,3,.4,5.5,2,8-5.1,1.8-11.6,8.8-12-2,4.5-4.3,4.7-3.9,10-6Z"/>
  <path class="st90" d="M336,682.9c3.3,5,8.6,7,12,12-3,2-6,2-9,0-3.4-1.3-10.6-12.6-4-12h1Z"/>
  <path class="st20" d="M382,695.9c3.7-4.1,7-3,3,2h17c.2.9,0,1.6-.6,2.1h-9.4c-4.4,0-8.2-1.7-12-2.1,2.7.7,1.7-1.7,2-2Z"/>
  <path class="st63" d="M339,694.9c3,0,6,0,9,0,.4.6,1.1,1,1,2-3,2-9.8,1.1-12-2,.3-1.9,1.1-1.8,2,0Z"/>
  <path class="st61" d="M427,700.9c-.4,1,0,3.6-1.2,4.9h-2.8c0,.1-31-5.9-31-5.9,1.9,0,7.6-1.5,10-2s3.8-.7,7-2c7.8-3.2,9.2-5.6,15-11,.9,4.6-.5,12.7,3,16Z"/>
  <path class="st131" d="M281,655.9c4.2-12.3,15.5,5.4,18.6,11.3,3-2.8,6.1-5.9,9.2-9.4l2.2,1.1c.2.9.9,1.7,1,2,3,.8,3.5,3.1,1,5,2,10.1,6.1,18.7,12.4,25.6l-.4,1.4c-16.4-.9-39.8-1.2-56,0,14.4-5.5,11.9-24.3,12-37Z"/>
  <path class="st39" d="M332,664.9c.5,6.5,2.8,11.9,3,18s-1.1.7-.9,2.2c.5,2.7,4.9,6.2,4.9,9.8-.7,0-1.3,0-2,0-1.3,0-2.7.1-4,0-11.1-4.7-17.8-14.4-20-29-.4-1.7-.7-3.3-1-5,3.1-6.4,13.2-7.1,19-10l1,14Z"/>
  <path class="st18" d="M333,694.9c-2.7-.2-6.6-1.9-8-2l-5-4.5c-4.8-6.7-5.3-14.9-7-22.5,5.7,11.2,7.7,22.7,20,29Z"/>
  <path class="st120" d="M349,364.9c1.3-.1,2.7,0,4,0,3.2.6,4.4,10,1,11,2.8.4,2.7,2.2,0,3,3.2,1.1-.9,10.5-4,10-.6,1.1-1.9,3-3,3.5-3.8,1.7-24.8-.9-30.4-1.6s-3.9-1.8-4.6-1.9c10.8-5.8,21.6-19.2,33-23s2.2-.8,4-1Z"/>
  <path class="st25" d="M286,379.9c1,.2,1.7,1.1,2,2-13.8,4.8-32.9,11.2-47.5,10s-24.5-5.4-28.5-8c.7,0,1.3,0,2,0l3-1.7c12.9,2,25.9,2.7,38.9,2l3.1,1.7c.5-2.9,4.7-3.7,6-1,2.5-3.3,12.4-6.3,16-4,1.4-.4,3.6-1.2,5-1Z"/>
  <path class="st58" d="M437,333.9c-.3.6-.7,2.1-1,3-3.8,14.3-7.9,28.6-12.1,42.8-2.5,5.7-6.8,15.2-12.9,16.2-.6-.7-2.2-1.3-3-2-8.5-4.8-17.4-8.8-26.4-12.5l-.7-1.4c7.4-6.3,14.9-12.5,22.7-18.6-8.8,6.4-17.6,12.7-26.3,19-1.1.4-19.3-2.5-22.1-3s-1.1-.8-1.2-1.5c.3-4.2-1-8.1-1-11,0-7.1,18.6-18.4,25-20.5,21.4-7,34.4,1.5,57.4-12.6,3.2-2,1.1.6,1.5,2Z"/>
  <path class="st140" d="M221,459.9c0,10.4-.3,21.9,2,32-1.2,1.6-3,1.3-5.4-.9-6.9,1.1-13.8,3.3-20.5,6.4l-2.1-1.5c-.3-.6-4.6-7.3-5-7.5-5.1-3.2-17.6,10.7-22.1,13.9s-4.2,3.2-6.9,3.6c-6.5-13.1-13.5-25.9-20-39l18.6-3.9c4.5-4.7,9-5.2,14.4-8.1,3.3-1,6.9-.8,10.8.7,12.4.9,24.5,2.3,36.2,4.3Z"/>
  <path class="st12" d="M234,413.9v2.9c-5.1,5.3-8,12.2-9.5,19.3l-2.5,2.8c-1.1,6.9-.9,14-1,21-3.2,2.3-6.4.1-9.5,0-13.1-.6-24.8-.8-37.5-5s-9.3-3.7-10.6-5c-2.3-2.3-.3-3.8-.4-4,17.4-22.1,42.8-27.6,69.1-32.6,1.2-.2,1.8.6,1.9.6Z"/>
  <path class="st94" d="M281,380.9c-5.7,1.4-9.8,3.1-16,4l-2.9-1.9c-8.7-15.6-20.2-29.5-34.4-41.6-7.4-7.1-12.4-15.6-17.1-24.3,4.8,9.7,10.7,18.9,18.4,26.6,13.3,11.2,23.6,24.2,31.1,38.9l-1,3.2c-17.5,1.9-28.3-.3-45-2,1.7-3.7-5.5-6.9-7.4-9.1-12.9-14.7-16.2-38.6-13.6-57.4l4-34.5,6,9.5c10.8,13,28.6,14.9,43,22,26.2,12.8,40.5,37.3,35,66.5Z"/>
  <path class="st125" d="M405,393.9c-10,0-19.5,2.3-29,5-7.2-4.3-18-7.2-26-10,.5-.9,3.9-9.4,4-10,.5-.5,1-1,1.7-1.2,2.4-1,23.1,3.2,26.8,4.4,7.5,2.4,17.5,6.2,22.5,11.8Z"/>
  <path class="st64" d="M354,375.9c6.8-1.1,16.9,5.1,23,2.5s2.3-2.4,3.7-3.3c16.4-10.5,26.3-18.6,40.9-31.1,1.9-1.7,5-4.4,7.5-5-14,16.1-29.3,29.6-47,41.5l18,7.9c2.9,1.6,5.4,3.4,8,5.5-1,0-2,0-3,0-14.8-10.2-33.3-14-51-15,.2-.9,0-2,0-3Z"/>
  <path class="st70" d="M411,395.9c17.6-15,16.3-39.6,25-59-6.7,20.8-6.3,45.7-23.5,62-1.3-.5-1.2-2.6-1.5-3Z"/>
  <path class="st2" d="M421,424.9c-4.8-4.8-11.6-9.7-17-14,1.5-1.4,3.6-4.9,5-6,2.3-.1,2.6,1.5,3.6,2.9,3,4,5.7,8.6,7.9,13.1s2.5,3.4.5,4Z"/>
  <path class="st0" d="M354,407.9c14.7,7.7,16.5,35.4,17,50s.9,17.1,0,24c.9.3,1.9.9,1.8,1.7-1,5.3-2.4,10.6-4.6,15.6-8.8,11.1-6.5,19-.5,31.1l-.6,3.6,2.7,1.4c2.7,6.5,5.6,13.1,10.2,18.6v3.1s0,3,0,3c-5-8.2-11.3-15.9-16.4-24.1-2.5-4-11.2-21.4-13.1-22.9s-3.4-1.1-5.5-1c9.8-7.2,17.5-14.4,21-26.4s2.6-48.8-6.5-60.6c-14.3-18.5-43.4-11.4-62.7-6.7-10.7,2.6-33.7,7.8-42.8,11.7-4.1-2.6-6.4.4-8.8,4h-2.2c-.8-1.8-3.3-.5-4.6-.2-5.5,1.4-11.2,2.8-16.4,5.1,1.4-9.3,5-18.5,12-25,30.3-5.5,63.4-13,94.5-11s19.8,2,25.5,5Z"/>
  <path class="st114" d="M421,477.9c.5,11.7,2.8,25,2,36.5s-2.1,14.8-3.5,16.5c-2.3,2.9-12.3-2.7-16.5-.5l-23,26.5c-6.3-6.7-9.6-14.8-13-23-.3-5.5,7.9-13.7,12.2-17.6l2.8-.4c-1-2.4-.4-3,2-2l1.5-.7c6.6,7,11.3,5.3,14.3-5.3-2.3-2.2-3.6-4.2-3.8-6-2.3-1.3-1.7-2.4,1-2,2.3-6.5,6.7-11.2,13-14,3.1-3.4,6.1-6.9,9.5-10,.8.3,1.1,1.7,1.5,2Z"/>
  <path class="st26" d="M410,485.9c-4.3,4.7-8.6,9.3-13,14l-.9.9c-8.9-1.6-16.3,4.9-13.4,14l-.7,1.1c-4.5,6.2-11.3,11.4-15,18-2.4-5.7-7.5-16.4-7.1-22.5s5.9-10.8,7.5-15.6,3.1-10.5,3.5-14l6.4-1.9c6.5,1.6,13.2,1.7,19.8,3.1s7.5,4.3,12.8,2.7Z"/>
  <path class="st133" d="M442,545.9c.9,3.1,7.8,6.1,8.1,8.5s-5.3,10-8.1,11.5q-1.7-3.6,0,0c-5,2.7-9.9-3.7-13.5-7l3.5-11c5.1-2.1,2.5-3.6,10-2Z"/>
  <path class="st79" d="M195,495.9c6.1-1.4,17.4-8,23.2-6.8l4.8,2.8c1.4,6.1,4.6,13.8,8,19l.9,2.8-8.2,17.9c-1.5,1.7-3.1,3.4-4.7,5.4-1.4,2-2.3,4.5-4,6.5-6.3,7.4-13.6,16.9-23,7.5,1.7.3,3.3.7,5,1l1.9-1.5c4.7.3,8.6-2.4,11.5-8.1l2.6-.4c.1-.3,1.6-.5,1.9-1.7-5.4-13.2-12.5-26-18.6-39.1s-.7-4.3-1.2-5.3Z"/>
  <path class="st88" d="M241.7,478.1c19.3-3,35.2,14.4,14.6,23.6-7.6,3.4-20.1,3.7-26.4-2.3-9.3-8.8,2-19.8,11.8-21.3Z"/>
  <path class="st33" d="M336.7,469.1c7.6-1.3,23.7-.4,25.2,9.3,2.5,16-21.9,20.2-32.9,12.9-11.1-7.4-3.6-20.3,7.7-22.2Z"/>
  <path class="st117" d="M328.8,437.1c17.6-2.1,24.5,32.2,1.7,29.8-16-1.6-15.6-28.1-1.7-29.8Z"/>
  <path class="st117" d="M251.8,446.1c14.3-2.7,21.8,21.8,7.3,28.3-21.4,9.5-23.4-25.3-7.3-28.3Z"/>
  <path class="st65" d="M231,510.9c1.2,1.8,5,4.7,5,6.5l-8,26.5c-3.6-1-3.9-8.8-6.5-10-.4,1.4-1.8,2.1-2.5,3l12-26Z"/>
  <path class="st118" d="M303,483.9l-2,1c-3.9-2.5-8.5-.4-11.9,2l-2-1c-3.2-3.2-5.5-7.2-5-12,3.1,0,4.1,3.7,6.9,4.5,10.1,3.2,13.4-7.5,14.6-7.5,3.2-.2,1.1,10.3-.5,13Z"/>
  <path class="st81" d="M303,483.9c-4.3,7.2-10.1,7.9-16,2,4.6-3.6,10.9-6.3,16-2Z"/>
  <path class="st45" d="M339,428.9c-.7.6-13.4-6.8-13-8.5,1.6-7.4,13.5,3.5,13,8.5Z"/>
  <path class="st144" d="M254,429.9c-3.5,1.5-7.2,5.9-10.5,8-2.3,1-.6-3.8-.5-4,1.6-3.7,8.8-11.5,11-4Z"/>
  <path class="st37" d="M311,658.9c-3,.6-9.8,12.5-12,11s-4.4-7.6-6-9.5c-3.6-4.2-7.7-10.3-12-4.5,0-3.7,0-7.3,0-11,8,2.8,18.7-.5,26.5,1s2.8,9.2,3.5,13Z"/>
  <path class="st53" d="M204,574.9c4.2.8,7.2-.8,11-2,.6.6-.3,14.2,0,17-.4,2-2.6-1-3-1.5-3.6-3.7-7-8.2-8-13.5Z"/>
  <path class="st104" d="M213,541.9c-2.3,4-7.5,11.2-12.5,11.1s-2.6-.9-3.5-1.1c1.9-11.4-9.9-22.7-11.8-31.7s1.1-8.6.8-13.3c12.9,8.6,19.2,22.2,27,35Z"/>
  <path class="st121" d="M265,384.9c-2,.3-3.8.8-6,1-6.8-22.2-29.8-35.1-42-53.5-4.7-7-9.8-17.1-13.1-24.9s-4.5-9.8-4.8-14.7l20.2,35.3c14.2,19.8,37.1,33,45.8,56.7Z"/>
  <path class="st87" d="M397,499.9c-.4.4-.6,1.4-1,2-.2,2-2.5,2.3-7,1,2.4,2.6-.6,9.8-4,7,1,2.6.7,3.9-1,4-.8,1.3-1.7,1.6-2,2-6.6-9.7,5.2-20.2,15-16Z"/>
  <path class="st138" d="M396,501.9c.4,0,4.9,4.1,5,5.4s-1.6,5.2-2.4,6.6c-4.9,8.9-7.9,3.2-14.6,0,.1-.2-.1-1.9,1-4h2.1c3.5,5.1,6.7,4.6,9.4-1.5-4.2-1-6.7-2.8-7.5-5.5.3-.5,6.6-1.1,7-1Z"/>
  <path class="st66" d="M442,565.9c-2.8.5-2-2.2-4.6-3.9s-5-1.9-7.4-2.1c1.9-4.4,5.6-7.9,6-13,4.4,1.3,6.2,6.6,12,6-.3,4.8-6.1,7.2-6,13Z"/>
  <path class="st43" d="M324.6,443c5.1-1.7,7,5.4,2.7,6.8s-5.7-5.8-2.7-6.8Z"/>
  <path class="st93" d="M252,451.9c1.9,9.7-9.2,6.1-5.6.9s4-.9,5.6-.9Z"/>
  <path class="st77" d="M389,502.9c2.8,1.4,5.9,2.4,8.7,3.8s-4.3,6.8-3.8,10.2c-1.5.4-1.7-.4-2.5-1-2-1.3-6.1-3.7-6.5-6,.1-.2,1.4-.6,1.9-1.6.9-1.7,1.2-4.1,2.1-5.4Z"/>
</svg>