<svg width="515" height="778" viewBox="0 0 515 778" fill="none" xmlns="http://www.w3.org/2000/svg">
<path d="M333.957 759.457C328.704 767.365 329.534 778.242 318.406 776.308L279.53 678.519L275.521 677.724V771.819C275.521 777.102 266.018 774.582 262.528 775.065V658.284H284.61C290.415 673.961 296.566 689.741 303.443 704.969C304.687 707.697 307.21 709.837 307.97 711.495C309.214 714.154 310.113 715.259 310.942 717.02C315.262 726.136 317.404 736.598 322.899 745.231C331.296 728.415 337.793 710.701 344.981 693.367C346.95 688.601 348.851 683.871 350.821 679.071C354.034 679.727 353.551 677.552 354.38 675.549C356.73 669.817 359.633 664.327 361.222 658.318H383.304V775.1H370.311V681.005C370.311 680.832 368.756 677.586 368.375 677.759C365.68 680.107 364.367 683.456 362.916 686.564C353.516 706.419 345.672 728.518 339.175 749.133C338.035 752.758 335.547 757.178 333.991 759.526L333.957 759.457Z" fill="white"/>
<path d="M210.589 666.019C210.935 666.191 211.557 665.846 211.902 666.019C214.079 669.368 203.09 678.726 201.985 678.898C199.911 679.244 196.144 673.581 193.345 672.234C184.948 668.16 170.503 668.436 163.834 675.1C153.709 685.252 155.92 696.992 168.534 703.484C190.615 714.844 220.887 710.632 215.669 748.304C212.732 769.54 183.98 781.971 165.147 776.308C163.661 775.859 155.989 772.821 153.467 771.75C148.663 769.678 136.327 764.568 140.37 758.698C148.871 746.37 156.992 760.597 167.67 762.738C179.35 765.086 194.52 760.286 199.013 748.477C207.306 726.619 169.294 723.201 156.888 716.433C129.968 701.723 139.575 662.255 169.812 658.318C186.399 656.143 196.49 658.526 210.624 665.984L210.589 666.019Z" fill="white"/>
<path d="M91.0917 747.786L83.2819 758.801C64.8286 782.558 22.6693 780.348 8.32819 753.242C6.87681 750.479 2.76455 739.05 2.76455 736.736V658.215H15.7579V734.147C15.7579 734.699 18.8335 743.504 19.3864 744.782C29.5806 768.055 60.9582 770.714 73.9516 748.166C74.9883 746.336 79.377 736.702 79.377 735.424V658.215H92.3703V742.572C90.5043 744.022 91.4373 746.301 91.0572 747.752L91.0917 747.786Z" fill="white"/>
<path d="M218.364 31.457C218.192 26.899 217.57 27.9004 221.544 27.5551C226.209 27.1753 239.202 30.4557 241.172 27.6242C243.971 23.6187 239.029 10.808 240.446 5.49032C242.036 3.31491 253.405 21.098 256.653 21.098C260.351 21.098 268.403 7.04418 272.895 5.49032C274.208 9.97924 270.683 25.6214 273.448 27.6242C277.802 30.801 290.243 25.7595 296.29 27.5551C294.182 32.5275 282.018 38.1559 282.018 43.1282C282.018 46.6158 295.426 56.1461 298.536 59.6337L300.195 62.6033L274.208 61.2911L275.487 88.5355L256.653 69.095L237.82 88.5355L239.099 61.2911L213.112 62.5687L231.185 44.8893C231.392 43.7498 226.071 37.2926 224.827 35.946C221.993 32.9764 220.369 33.0109 218.295 31.4225L218.364 31.457Z" fill="white"/>
<path d="M336.549 458.388C317.508 469.991 283.85 490.536 262.528 495.37C254.442 497.2 249.984 494.472 242.692 491.814C212.766 480.937 176.24 459.977 150.426 441.262C130.037 426.483 79.4115 384.252 79.4115 357.802V114.502H436.556V351.345C436.556 360.185 426.154 382.422 420.764 390.053C414.474 398.927 398.647 413.845 389.801 419.473C377.499 435.046 353.931 447.822 336.549 458.388C354.104 447.857 372.246 430.661 389.801 419.473C399.131 407.664 412.988 397.892 421.524 384.321C425.913 377.312 433.964 359.218 433.964 351.345V117.748C433.964 117.748 432.167 115.814 432.029 115.814H80.7247V350.033C80.7247 400.585 178.348 459.977 219.228 478.968C226.693 482.421 250.018 493.368 256.722 493.54C264.083 493.713 287.547 482.698 295.495 478.968C308.592 472.857 324.557 465.605 336.583 458.388H336.549Z" fill="white"/>
<path d="M333.957 759.457C336.652 760.286 333.853 763.29 333.3 764.637C329.395 773.995 330.294 779.899 317.266 777.448L276.835 681.592V777.62H259.936V655.625H285.923L308.005 711.426C307.244 709.803 304.722 707.628 303.478 704.9C296.566 689.672 290.415 673.891 284.644 658.215H262.563V774.996C266.053 774.513 275.556 777.033 275.556 771.75V677.655L279.565 678.449L318.441 776.239C329.568 778.207 328.739 767.33 333.991 759.388L333.957 759.457Z" fill="white"/>
<path d="M458.845 429.694C459.225 429.97 465.791 431.351 467.07 432.387C472.426 436.704 476.435 441.572 472.772 448.513C471.7 450.55 463.96 459.735 461.886 459.735C459.364 459.735 433.55 434.77 430.37 430.488C437.8 423.099 445.022 410.288 455.459 421.994C457.843 424.687 458.5 429.418 458.845 429.659V429.694ZM445.161 426.034C438.077 427.277 445.264 436.358 448.893 436.013C455.631 435.391 448.478 425.447 445.161 426.034ZM454.733 438.948C454.076 443.782 459.191 446.061 461.886 449.307C469.074 444.197 462.094 435.495 454.733 438.948Z" fill="white"/>
<path d="M380.712 524.548C370.034 531.523 369.689 522.96 361.257 519.403C362.501 527.069 370.656 533.699 358.665 536.254C352.583 524.79 345.983 513.775 340.384 502.207C339.797 500.964 335.166 501.413 341.456 496.026C352.41 486.6 365.196 490.018 367.684 504.659C367.995 506.593 366.613 508.872 367.131 510.391C368.272 513.568 382.855 521.441 380.712 524.583V524.548ZM353.516 510.253C360.738 515.053 359.46 496.51 351.512 498.616C347.469 499.687 352.963 509.873 353.516 510.253Z" fill="white"/>
<path d="M414.578 489.673C413.714 490.881 416.513 494.058 416.859 495.681C418.241 502 412.539 503.278 408.669 498.582C402.379 490.881 398.647 473.996 392.565 465.225C391.874 461.116 397.852 457.387 401.412 459.01C404.522 463.361 432.133 483.078 432.617 485.046C432.997 486.565 429.126 490.363 427.813 490.709C424.185 491.641 423.148 486.876 420.314 486.945C419.831 486.945 414.716 489.431 414.543 489.707L414.578 489.673ZM407.183 474.721C405.386 469.68 404.798 472.684 405.973 475.343C406.664 476.862 410.293 484.321 411.26 484.355C418.276 478.969 411.468 478.243 407.183 474.721Z" fill="white"/>
<path d="M44.3364 193.68H35.2479V182.009C25.6757 180.835 25.4684 183.735 26.1595 192.402C12.9242 195.545 18.5224 183.493 17.0711 182.009C16.6564 181.594 9.74502 182.285 7.98262 182.009V193.714H0.20734V172.962H42.4012C42.4012 172.962 44.3364 174.757 44.3364 174.895V193.714V193.68Z" fill="white"/>
<path d="M350.855 679.002C354.034 671.302 357.801 663.74 359.944 655.66H385.93V775.687C385.93 778.863 371.969 777.309 369.032 777.62V684.838C369.032 684.596 366.924 682.524 366.44 682.904L339.14 749.098C345.637 728.484 353.516 706.384 362.881 686.53C364.367 683.422 365.68 680.072 368.341 677.724C368.721 677.552 370.276 680.763 370.276 680.97V775.065H383.269V658.284H361.188C359.633 664.292 356.695 669.782 354.345 675.514C353.516 677.517 354 679.693 350.786 679.036L350.855 679.002Z" fill="white"/>
<path d="M449.549 723.132L449.377 775.514C448.098 779.416 436.418 777.102 432.755 777.551L432.651 655.66H485.247C497.341 655.66 511.475 670.507 513.065 682.386C518.559 723.649 480.27 725.618 449.549 723.166C464.098 717.365 484.417 727.275 501.385 713.325C514.378 702.655 514.378 676.205 501.385 665.535C498.724 663.36 489.601 658.284 486.56 658.284H433.964V775.065H446.958L446.889 723.96C447.2 722.372 448.893 723.408 449.549 723.132Z" fill="white"/>
<path d="M257.345 549.237C257.552 550.86 259.66 553.07 259.971 556.351C260.558 562.221 259.625 566.951 254.822 570.612C250.502 569.299 246.908 571.199 243.073 571.302C242.727 568.54 238.2 569.368 237.785 567.918C235.366 559.389 241.656 539.569 240.446 529.762C246.114 529.762 255.271 528.485 258.727 534.217C262.701 540.812 256.722 544.334 257.345 549.237ZM245.664 546.648C250.882 551.689 259.418 532.974 246.874 535.736C245.803 537.221 245.042 546.061 245.664 546.648ZM250.502 563.153C253.647 559.32 251.85 550.757 246.321 551.827C241.828 552.725 244.213 570.853 250.502 563.153Z" fill="white"/>
<path d="M46.9281 388.327C48.5523 388.05 52.2153 386.393 53.2866 387.118C54.1851 387.74 56.293 394.162 55.4291 396.061C53.0793 401.275 27.6109 415.674 22.8075 421.994C19.9393 422.65 17.1747 415.778 19.0062 412.981C21.598 409.01 26.3668 412.878 20.976 403.9C20.6304 403.347 21.8053 401.31 20.2157 401.206C15.1704 400.93 13.719 406.42 11.8875 397.408C21.4943 395.889 32.4834 394.128 41.7792 391.607C43.8871 391.02 46.0988 390.675 46.9281 388.327ZM41.7446 397.408C36.6993 397.581 22.1509 400.205 31.8614 405.074L41.7446 397.408Z" fill="white"/>
<path d="M40.4315 120.994C39.4639 121.339 37.2522 122.168 36.5265 122.306C35.8008 120.2 32.4488 120.51 31.343 122.306L18.3497 126.173C21.909 125.068 21.9436 128.625 24.0861 128.867C33.0709 129.972 47.0664 123.687 44.3018 137.845C38.9455 137.465 1.72784 131.629 0.276453 129.937C-0.103671 129.488 -0.103671 121.546 0.276453 121.132C1.79695 119.405 7.08414 121.097 8.43186 120.925C9.33033 120.821 9.12299 118.749 10.1943 118.473C19.8356 116.194 30.5828 114.64 40.3969 113.19C42.0902 115.676 42.0902 118.542 40.3969 120.959L40.4315 120.994Z" fill="white"/>
<path d="M0.172785 236.497L1.48594 231.318H41.7446C42.9887 244.681 41.5373 253.832 25.572 250.724C22.5656 250.137 20.8032 247.064 17.7622 246.995C13.1661 246.925 5.56365 252.45 0.207342 252.07C-0.933032 241.055 9.26122 243.438 17.0711 240.365C15.1013 234.805 1.38227 240.158 0.207342 236.497H0.172785ZM36.5611 237.81H24.8809C23.1876 249.377 36.8721 248.445 36.5611 237.81Z" fill="white"/>
<path d="M291.106 527.173C290.692 525.653 288.446 523.443 290.001 520.888C290.519 520.059 306.277 513.74 307.97 514.776C309.352 515.64 311.357 520.612 310.458 521.855C308.143 525.066 299.02 521.268 302.061 529.831C305.102 538.395 310.527 528.588 314.329 531.213C314.847 531.558 316.091 536.945 315.849 538.05C315.538 539.673 309.387 540.639 307.936 541.468C304.929 543.264 308.419 550.032 310.493 551.275C311.219 551.724 323.624 546.233 322.208 552.483C321.897 553.795 308.005 560.011 306.588 559.079C303.823 555.349 303.132 550.515 301.301 546.406C300.921 545.543 299.469 545.439 298.985 544.3C296.739 539.189 296.497 530.764 291.072 527.173H291.106Z" fill="white"/>
<path d="M66.4182 446.717C62.1331 428.175 85.2171 422.201 90.366 436.393C92.163 441.296 91.1608 449.031 84.6642 447.304C77.1653 445.302 84.2495 441.296 80.6901 437.636C78.0638 434.943 73.7788 438.292 73.0876 441.158C71.809 446.648 80.6901 450.205 74.7809 459.632C66.9365 472.166 50.7294 464.397 54.0468 451.862C54.6343 449.583 54.1159 449.342 56.4313 449.514C62.997 449.963 57.8481 458.078 61.0964 460.426C67.8696 465.329 75.472 448.651 66.3836 446.717H66.4182Z" fill="white"/>
<path d="M162.452 489.673C164.214 492.193 144.033 519.438 145.726 521.855L154.745 525.895C155.609 527.034 151.843 533.94 149.147 533.492C148.11 533.319 133.009 523.65 132.905 522.649L153.57 487.118C156.957 485.978 159.445 488.706 162.417 489.673H162.452Z" fill="white"/>
<path d="M91.0917 747.786C90.366 750.652 89.0529 754.071 87.4633 756.557C70.254 783.352 28.302 785.493 9.50312 758.594C7.49883 755.728 1.48594 743.47 1.48594 740.673V655.66H18.3842V736.771C18.3842 737.254 21.4252 744.886 22.0472 746.094C29.2351 760.459 46.3407 764.361 60.6472 758.249C68.2151 755.037 76.8198 743.746 76.8198 735.493V655.694C80.6556 656.454 93.4761 653.726 94.8239 657.835C94.2709 680.452 96.1716 703.967 95.0658 726.481C94.8239 731.177 93.7872 738.152 92.4049 742.641V658.284H79.4115V735.493C79.4115 736.771 75.0228 746.405 73.9861 748.235C60.9927 770.783 29.6152 768.124 19.4209 744.851C18.868 743.573 15.7925 734.768 15.7925 734.216V658.284H2.7991V736.806C2.7991 739.119 6.91136 750.549 8.36275 753.311C22.7038 780.417 64.8631 782.627 83.3164 758.87L91.1263 747.855L91.0917 747.786Z" fill="white"/>
<path d="M501.488 131.387C501.316 130.386 499.449 128.97 500.728 127.451C502.49 125.379 504.875 127.865 506.706 122.306C506.776 122.099 508.607 121.995 506.845 120.338C491.467 112.534 498.171 131.871 483.346 133.459C468.625 135.048 467.45 114.502 480.72 114.537C482.448 118.957 472.703 120.752 478.128 124.896C480.616 126.795 483.381 126.311 485.903 124.896C492.573 121.132 490.672 108.805 506.741 113.812C518.525 117.472 512.477 139.537 501.488 131.387Z" fill="white"/>
<path d="M0.172783 298.79V289.708C7.08414 291.4 40.8116 286.255 44.2673 289.777C44.9238 290.434 43.9908 296.925 44.3364 298.79H0.172783Z" fill="white"/>
<path d="M184.81 551.62C183.324 549.065 199.427 519.645 200.913 514.224C201.915 509.735 210.036 514.431 210.313 516.088C210.831 519.541 195.246 546.578 193.795 552.518C192.62 556.04 185.605 552.932 184.844 551.585L184.81 551.62Z" fill="white"/>
<path d="M483.311 242.989C485.35 242.644 488.495 240.952 491.087 241.055C482.102 235.358 466.655 243.127 470.318 227.416C475.985 229.004 513.894 234.633 514.516 237.361C514.758 238.466 514.654 245.061 514.309 245.475C512.858 247.202 475.674 252.623 470.284 253.383C470.629 251.518 469.731 245.026 470.353 244.37C471.147 243.541 481.169 243.334 483.277 243.024C483.139 243.058 482.724 244.923 481.1 245.337C477.368 246.338 470.802 244.37 473.532 250.827L509.644 244.094C512.477 243.196 511.924 240.399 511.855 237.879C506.326 238.5 474.258 228.624 472.91 230.075C472.737 230.247 472.737 235.047 472.91 235.22C473.566 235.91 488.391 236.774 491.778 237.74C493.229 238.155 498.378 242.126 495.579 243.024C493.056 244.646 483.933 242.851 483.277 243.024L483.311 242.989Z" fill="white"/>
<path d="M476.815 328.624C477.16 330.316 476.262 335.668 476.884 336.359C479.648 339.328 510.68 336.462 511.89 337.74C512.063 337.913 512.132 342.919 511.89 342.919H478.785C476.78 342.919 476.538 348.928 476.849 350.723H472.979V330.592L470.387 332.526C470.664 328.21 472.184 325.896 476.884 328.624H476.815Z" fill="white"/>
<path d="M0.172785 345.509C1.41683 343.058 1.96974 343.023 4.59606 342.816C12.4404 342.263 27.991 344.542 34.3149 342.643C39.9822 340.951 35.0752 333.251 41.7101 335.116V354.591C35.1443 356.075 38.9801 351.034 37.8051 349.377C37.6669 349.204 35.8008 349.446 35.2134 349.377C34.7987 349.377 34.3495 349.377 33.9002 349.377C23.3258 346.407 11.0927 348.859 0.138229 348.064C-0.0345554 347.477 0.138229 346.269 0.138229 345.475L0.172785 345.509Z" fill="white"/>
<path d="M0.172785 236.497C-0.41468 234.702 0.55291 230.903 0.172785 228.694C6.39301 229.591 41.7446 227.036 43.7835 229.902C47.0318 234.564 43.9908 250.482 36.6302 252.761C26.4705 255.903 22.6693 249.757 17.7622 249.55C14.0992 249.377 6.04744 254.039 2.14252 254.626C-0.691135 255.075 0.414683 253.901 0.207342 252.036C5.56365 252.416 13.1661 246.891 17.7622 246.96C20.8032 246.995 22.5656 250.068 25.572 250.689C41.5373 253.832 43.0232 244.646 41.7446 231.283H1.48594L0.172785 236.497Z" fill="white"/>
<path d="M474.223 393.506C473.912 393.334 472.841 391.503 471.32 390.64C469.489 389.57 463.96 388.292 463.752 387.567C463.58 386.945 463.683 383.285 463.821 383.113C466.137 380.696 495.786 395.578 501.281 396.269L501.488 401.276C499.346 401.172 497.1 401.483 494.992 401.276C489.739 400.792 479.096 396.061 474.223 393.506Z" fill="white"/>
<path d="M165.112 776.343C152.706 775.928 143.514 769.92 135.255 761.426L148.94 749.133C154.227 753.553 159.169 758.732 166.322 760.217C178.14 762.669 195.211 759.63 197.285 745.542C199.911 727.759 172.784 725.79 160.758 720.369C143.618 712.669 134.08 696.474 141.095 677.759C150.115 653.76 187.954 649.824 207.375 662.186C209.069 663.256 211.177 663.291 210.555 666.088C196.421 658.595 186.365 656.247 169.743 658.422C139.506 662.358 129.899 701.861 156.819 716.536C169.225 723.304 207.272 726.723 198.943 748.58C194.451 760.39 179.281 765.189 167.6 762.841C156.922 760.7 148.802 746.439 140.301 758.801C136.257 764.671 148.594 769.747 153.398 771.854C155.886 772.924 163.592 775.963 165.078 776.412L165.112 776.343Z" fill="white"/>
<path d="M476.815 328.624C480.754 330.937 478.577 334.908 480.132 335.185C488.322 336.635 505.428 333.009 512.339 335.288C515.587 336.359 514.309 341.4 514.482 344.197H483.968C476.193 344.197 480.409 356.904 470.491 351.794C470.456 345.44 469.903 338.845 470.318 332.526L472.91 330.592V350.723H476.78C476.469 348.928 476.711 342.919 478.715 342.919H511.821C512.097 342.919 511.994 337.913 511.821 337.74C510.611 336.462 479.614 339.328 476.815 336.359C476.193 335.668 477.091 330.35 476.746 328.624H476.815Z" fill="white"/>
<path d="M80.7247 437.636C70.7723 439.604 78.6858 447.581 79.1351 452.864C79.688 459.563 69.8047 469.369 63.3081 468.782C58.2282 468.333 51.1786 461.427 50.8331 456.351C50.6948 454.245 53.7013 447.097 55.4637 446.717C56.5349 446.476 62.064 450.274 62.375 451.448C62.9625 453.52 58.09 462.636 66.4182 457.732C71.0142 455.039 67.1439 449.894 66.4182 446.683C75.5066 448.616 67.9041 465.295 61.131 460.391C57.8826 458.043 63.0316 449.929 56.4658 449.48C54.1505 449.307 54.6689 449.549 54.0814 451.828C50.7639 464.362 66.9711 472.132 74.8155 459.597C80.7247 450.17 71.8436 446.614 73.1222 441.123C73.7788 438.292 78.0984 434.942 80.7247 437.601V437.636Z" fill="white"/>
<path d="M0.172784 345.509C0.172784 344.197 0.138227 342.919 0.172784 341.607C2.97188 342.85 7.22237 340.295 8.6392 340.295H35.2479V332.491C37.0794 332.25 44.3364 332.181 44.3364 334.46V357.18C37.1831 357.836 34.1767 357.353 35.2479 349.411C35.8354 349.446 37.736 349.238 37.8397 349.411C39.0146 351.069 35.1788 356.11 41.7446 354.625V335.15C35.1097 333.285 40.0168 340.986 34.3495 342.678C28.0256 344.577 12.4404 342.298 4.63061 342.85C2.00429 343.023 1.45139 343.058 0.20734 345.544L0.172784 345.509Z" fill="white"/>
<path d="M257.344 549.237C256.722 544.334 262.666 540.847 258.727 534.217C255.271 528.45 246.148 529.762 240.446 529.762C241.621 539.534 235.366 559.355 237.785 567.918C238.2 569.369 242.727 568.54 243.073 571.302C240.654 571.371 234.813 572.096 234.122 569.265L239.34 527.38C244.109 527.104 256.273 527.691 259.245 531.144C262.424 534.804 262.701 546.613 257.344 549.272V549.237Z" fill="white"/>
<path d="M477.748 170.579C482.102 169.612 505.324 169.716 508.953 171.27C517.212 174.792 516.693 191.85 507.294 193.611C503.251 194.371 477.54 194.06 474.499 192.679C466.551 188.984 468.487 172.617 477.713 170.545L477.748 170.579ZM510.266 174.55C505.635 170.268 482.448 170.683 476.815 173.549C469.005 177.52 469.903 191.194 480.029 192.437C484.072 192.955 503.907 193.024 507.087 192.092C513.549 190.192 514.931 178.866 510.266 174.516V174.55Z" fill="white"/>
<path d="M218.364 31.457C216.256 29.8341 212.87 28.2112 213.181 24.9654L239.168 26.2775L237.854 0.310802C239.755 -1.83007 245.699 7.52761 246.908 8.7707C248.844 10.7735 255.859 18.4737 257.967 18.4737C262.493 12.7071 267.642 7.42402 272.549 1.93372C273.31 1.07047 272.48 -0.552453 275.521 0.276272C275.66 8.97788 275.798 17.645 274.243 26.2085L300.229 24.9308L291.867 35.359L282.053 43.0937C282.053 38.1214 294.217 32.493 296.325 27.5206C290.277 25.725 277.837 30.7664 273.483 27.5897C270.718 25.5869 274.277 9.94473 272.93 5.4558C268.472 7.00966 260.42 21.098 256.688 21.0635C253.405 21.0635 242.07 3.2804 240.481 5.4558C239.064 10.7735 244.006 23.5842 241.206 27.5897C239.237 30.4211 226.243 27.1062 221.578 27.5206C217.604 27.8659 218.226 26.8645 218.399 31.4225L218.364 31.457Z" fill="white"/>
<path d="M506.672 122.306C496.927 117.437 497.238 125.483 493.609 130.421C486.663 139.951 468.556 136.256 469.074 123.066C469.523 111.947 483.484 106.526 483.242 117.886C483.173 121.236 477.679 120.994 478.093 124.896C472.668 120.752 482.413 118.957 480.685 114.537C467.415 114.537 468.59 135.048 483.311 133.459C498.171 131.871 491.432 112.534 506.81 120.338C508.572 121.995 506.741 122.099 506.672 122.306Z" fill="white"/>
<path d="M485.903 124.896C488.46 103.349 521.324 107.216 513.894 130.179C512.201 135.393 506.223 135.738 501.488 135.255C501.177 134.012 501.661 132.527 501.488 131.422C512.477 139.571 518.525 117.506 506.741 113.846C490.672 108.839 492.573 121.167 485.903 124.93V124.896Z" fill="white"/>
<path d="M291.106 527.173C296.532 530.764 296.774 539.155 299.02 544.3C299.504 545.405 300.955 545.508 301.335 546.406C303.201 550.515 303.858 555.349 306.623 559.079C308.039 559.976 321.931 553.761 322.242 552.483C323.659 546.199 311.253 551.689 310.527 551.275C308.454 550.066 304.964 543.264 307.97 541.468C309.491 555.695 316.782 545.335 321.447 546.751C323.21 547.304 325.352 553.692 324.834 554.382C324.212 555.211 308.039 561.358 305.378 562.255C301.301 550.515 294.32 539.258 291.072 527.207L291.106 527.173Z" fill="white"/>
<path d="M46.9281 388.327C46.0988 390.675 43.8526 391.02 41.7792 391.607C32.4834 394.162 21.4598 395.889 11.8875 397.408C13.719 406.42 15.1704 400.93 20.2157 401.206C21.8053 401.275 20.6304 403.313 20.976 403.9C12.786 405.419 11.1618 404.556 9.29578 396.13C22.0127 394.369 34.3495 390.537 46.9627 388.327H46.9281Z" fill="white"/>
<path d="M211.868 666.019C220.472 670.369 203.643 676.792 202.123 681.626C199.635 681.488 195.833 676.101 192.481 674.375C182.633 669.299 173.579 671.06 163.834 675.1C170.503 668.401 184.948 668.125 193.345 672.234C196.144 673.615 199.911 679.278 201.984 678.898C203.09 678.691 214.079 669.368 211.902 666.019H211.868Z" fill="white"/>
<path d="M494.992 401.31C497.134 401.517 499.346 401.206 501.488 401.31L501.281 396.303C495.786 395.613 466.137 380.696 463.821 383.147C463.683 383.32 463.579 386.98 463.752 387.602C463.96 388.327 469.489 389.604 471.32 390.675C472.841 391.573 473.912 393.368 474.223 393.541C471.32 392.919 462.128 390.226 461.333 387.498C460.262 383.769 464.72 378.52 468.763 381.421C475.882 386.704 496.789 390.191 502.214 394.749C507.259 398.997 500.279 408.285 494.992 401.31Z" fill="white"/>
<path d="M33.9693 349.377C26.4705 349.169 18.7298 349.169 11.1964 349.308C7.56794 349.377 1.65873 352.83 0.20734 348.064C11.1618 348.859 23.395 346.407 33.9693 349.377Z" fill="white"/>
<path d="M40.4315 113.225C41.2608 113.121 42.1939 113.294 43.0232 113.225C42.7122 115.365 43.507 118.37 43.0923 120.269C42.7468 121.857 41.2954 120.718 40.4315 121.028C42.1247 118.577 42.1247 115.711 40.4315 113.259V113.225Z" fill="white"/>
<path d="M36.5611 122.306C34.9715 122.548 33.0363 122.133 31.3776 122.306C32.4834 120.51 35.8354 120.2 36.5611 122.306Z" fill="white"/>
<path d="M336.549 458.388C324.523 465.605 308.558 472.857 295.461 478.968C287.478 482.663 264.049 493.713 256.688 493.54C249.984 493.368 226.658 482.456 219.194 478.968C178.348 459.977 80.6901 400.55 80.6901 350.033V115.814H431.995C431.995 115.814 433.93 117.61 433.93 117.748V351.345C433.93 359.218 425.878 377.346 421.489 384.321C412.954 397.892 399.097 407.629 389.766 419.473C372.211 430.661 354.069 447.857 336.514 458.388H336.549ZM257.345 143.059V144.371C255.202 145.717 256.031 149.309 256.031 151.484C255.548 196.96 254.787 243.334 254.753 288.396L107.99 144.371V292.298H109.303L253.474 294.888C221.094 331.697 181.734 364.57 148.318 400.654C166.633 417.505 187.954 430.799 209.656 442.884C210.52 443.368 210.762 444.956 211.591 445.405C226.14 449.894 240.481 459.942 254.684 464.362C255.893 464.742 257.172 465.778 257.379 463.603L258.692 298.134L261.284 296.2C295.357 331.455 331.814 364.743 366.095 399.894C367.235 400.378 368.065 399.894 369.067 399.411C369.931 398.997 381.576 388.189 383.408 386.393C395.848 374.273 405.006 362.153 406.768 344.197L408.081 344.853C406.975 328.9 409.533 311.152 408.15 295.44C408.012 293.852 408.6 293.127 406.803 292.264C406.457 292.091 405.904 292.367 405.49 292.264C406.215 288.362 403.485 289.743 400.997 289.674C354.967 288.155 308.661 290.813 262.632 289.674L405.49 144.336V143.024H257.448L257.345 143.059Z" fill="white"/>
<path d="M449.549 723.131C448.893 723.408 447.2 722.337 446.889 723.96L446.958 775.065H433.964V658.249H486.56C489.566 658.249 498.724 663.325 501.385 665.501C514.378 676.17 514.378 702.586 501.385 713.29C484.417 727.241 464.132 717.33 449.549 723.131ZM487.216 672.51C476.124 665.811 459.364 668.505 446.958 669.92V708.214C446.958 708.214 448.755 710.148 448.893 710.148H476.158C478.059 710.148 485.903 708.18 487.182 706.246C498.205 701.308 498.827 677.483 487.182 672.51H487.216Z" fill="white"/>
<path d="M483.311 242.989C483.968 242.782 493.091 244.612 495.614 242.989C498.378 242.057 493.264 238.12 491.812 237.706C488.426 236.705 473.636 235.841 472.944 235.185C472.772 235.013 472.772 230.213 472.944 230.04C474.292 228.59 506.395 238.431 511.89 237.844C511.959 240.365 512.512 243.162 509.678 244.059L473.566 250.793C470.836 244.37 477.402 246.304 481.134 245.303C482.724 244.888 483.139 243.024 483.311 242.989Z" fill="white"/>
<path d="M510.266 174.55C514.931 178.866 513.549 190.227 507.087 192.126C503.907 193.058 484.072 192.955 480.029 192.471C469.903 191.228 469.005 177.52 476.815 173.583C482.448 170.717 505.635 170.303 510.266 174.585V174.55ZM478.128 179.384C477.333 182.389 478.301 184.322 480.72 185.876C484.279 188.155 501.696 187.913 505.393 185.876C505.601 185.738 506.568 184.806 506.706 184.564C513.134 172.927 479.061 175.931 478.128 179.384Z" fill="white"/>
<path d="M257.344 144.371V291.021L405.386 144.371L262.528 289.708C308.558 290.882 354.864 288.189 400.893 289.708C403.382 289.777 406.112 288.396 405.386 292.298H259.28C257.932 292.574 260.904 295.889 261.215 296.2L258.623 298.134L257.31 463.603C256.964 407.974 257.759 352.312 257.414 296.684C257.414 294.128 256.031 292.54 256.031 292.298C256.031 290.848 254.718 289.052 254.718 288.396C254.753 243.334 255.513 196.926 255.997 151.484C255.997 149.274 255.167 145.717 257.31 144.371H257.344Z" fill="white"/>
<path d="M256.031 292.298C256.135 293.887 254.062 294.163 253.44 294.888L109.269 292.298H256.031Z" fill="white"/>
<path d="M406.699 292.298C408.531 293.161 407.908 293.852 408.047 295.475C409.464 311.186 406.872 328.935 407.978 344.888L406.664 344.232C408.289 327.83 405.455 309.011 406.664 292.333L406.699 292.298Z" fill="white"/>
<path d="M487.216 672.51C486.663 672.269 477.99 669.92 477.471 669.92H450.206C450.206 669.92 448.271 671.716 448.271 671.854V708.836C459.294 707.973 477.195 710.735 487.216 706.246C485.938 708.145 478.093 710.148 476.193 710.148H448.927C448.927 710.148 446.992 708.353 446.992 708.214V669.92C459.398 668.505 476.158 665.811 487.251 672.51H487.216Z" fill="white"/>
<path d="M478.128 179.384C479.061 175.966 513.099 172.927 506.706 184.564C506.914 181.663 506.776 180.006 503.458 179.35C496.339 178.003 485.73 180.351 478.128 179.35V179.384Z" fill="white"/>
<path d="M505.393 185.876C501.696 187.913 484.279 188.155 480.72 185.876H505.393Z" fill="white"/>
</svg>
