<?xml version="1.0" encoding="UTF-8"?>
<svg id="Capa_1" data-name="Capa 1" xmlns="http://www.w3.org/2000/svg" width="2034.62" height="784.49" viewBox="0 0 2034.62 784.49">
  <g>
    <g>
      <path d="M856.36,572.17v-26.07h8.1v25.81c0,8.35,4.3,12.91,11.39,12.91s11.39-4.3,11.39-12.65v-26.07h8.1v25.81c0,13.67-7.59,20.5-19.49,20.5-12.15-.25-19.49-7.09-19.49-20.24Z" style="fill: #bd1714;"/>
      <path d="M924.18,546.11h7.34l24.29,31.38v-31.38h7.84v45.55h-6.58l-25.05-32.39v32.39h-7.84v-45.55Z" style="fill: #bd1714;"/>
      <path d="M994.28,546.11h8.1v45.55h-8.1v-45.55Z" style="fill: #bd1714;"/>
      <path d="M1028.7,546.11h8.86l13.67,34.92,13.67-34.92h8.6l-18.73,45.8h-7.09l-18.98-45.8Z" style="fill: #bd1714;"/>
      <path d="M1099.3,546.11h33.66v7.09h-25.81v11.89h22.78v7.09h-22.78v12.15h26.07v7.09h-33.91v-45.3h0Z" style="fill: #bd1714;"/>
      <path d="M1161.05,546.11h20.24c5.82,0,10.12,1.77,13.16,4.56,2.28,2.53,3.8,5.82,3.8,9.87v.25c0,7.34-4.56,11.89-10.88,13.67l12.15,17.21h-9.36l-11.13-15.94h-9.87v15.94h-8.1v-45.55Zm19.74,22.52c5.82,0,9.36-3.04,9.36-7.59v-.25c0-4.81-3.54-7.59-9.36-7.59h-11.64v15.18h11.64v.25Z" style="fill: #bd1714;"/>
      <path d="M1223.05,584.83l4.81-5.82c4.3,3.8,8.86,5.82,14.42,5.82,5.06,0,8.1-2.28,8.1-5.82v-.25c0-3.29-1.77-5.06-10.38-6.83-9.62-2.28-15.18-5.31-15.18-13.67v-.25c0-7.84,6.58-13.16,15.44-13.16,6.58,0,11.89,2.02,16.45,5.82l-4.3,6.07c-4.05-3.04-8.1-4.56-12.4-4.56-4.56,0-7.34,2.28-7.34,5.31v.25c0,3.54,2.02,5.06,10.88,7.09,9.62,2.28,14.42,5.82,14.42,13.41v.25c0,8.6-6.58,13.67-16.2,13.67-6.58,0-13.16-2.53-18.73-7.34Z" style="fill: #bd1714;"/>
      <path d="M1286.31,546.11h8.1v45.55h-8.1v-45.55Z" style="fill: #bd1714;"/>
      <path d="M1324.53,546.11h16.96c14.17,0,24.04,9.87,24.04,22.52v.25c0,12.91-9.87,22.78-24.04,22.78h-16.96v-45.55Zm8.1,7.34v30.87h8.86c9.62,0,15.69-6.33,15.69-15.44v-.25c0-8.86-6.33-15.44-15.69-15.44h-8.86v.25Z" style="fill: #bd1714;"/>
      <path d="M1406.52,545.85h7.34l19.99,45.8h-8.35l-4.56-10.88h-21.51l-4.56,10.88h-8.1l19.74-45.8Zm11.39,27.58l-7.84-18.22-7.84,18.22h15.69Z" style="fill: #bd1714;"/>
      <path d="M1459.91,546.11h16.96c14.17,0,24.04,9.87,24.04,22.52v.25c0,12.91-9.87,22.78-24.04,22.78h-16.96v-45.55Zm7.84,7.34v30.87h8.86c9.62,0,15.69-6.33,15.69-15.44v-.25c0-8.86-6.33-15.44-15.69-15.44h-8.86v.25Z" style="fill: #bd1714;"/>
      <path d="M1566.45,546.11h16.96c14.17,0,24.04,9.87,24.04,22.52v.25c0,12.91-9.87,22.78-24.04,22.78h-16.96v-45.55Zm8.1,7.34v30.87h8.86c9.62,0,15.69-6.33,15.69-15.44v-.25c0-8.86-6.33-15.44-15.69-15.44h-8.86v.25Z" style="fill: #bd1714;"/>
      <path d="M1635.29,546.11h33.66v7.09h-25.81v11.89h22.78v7.09h-22.78v12.15h26.07v7.09h-33.91v-45.3h0Z" style="fill: #bd1714;"/>
      <path d="M853.83,670.87l4.81-5.82c4.3,3.8,8.86,5.82,14.42,5.82,5.06,0,8.1-2.28,8.1-5.82v-.25c0-3.29-1.77-5.06-10.38-6.83-9.62-2.28-15.18-5.31-15.18-13.67v-.25c0-7.84,6.58-13.16,15.44-13.16,6.58,0,11.89,2.02,16.45,5.82l-4.3,6.07c-4.05-3.04-8.1-4.56-12.4-4.56-4.56,0-7.34,2.28-7.34,5.31v.25c0,3.54,2.02,5.06,10.88,7.09,9.62,2.28,14.42,5.82,14.42,13.41v.25c0,8.6-6.58,13.67-16.2,13.67-6.58,0-13.16-2.53-18.73-7.34Z" style="fill: #bd1714;"/>
      <path d="M931.77,631.64h7.34l19.99,45.8h-8.35l-4.56-10.88h-21.51l-4.56,10.88h-8.1l19.74-45.8Zm11.39,27.84l-7.84-18.22-7.84,18.22h15.69Z" style="fill: #bd1714;"/>
      <path d="M985.17,632.15h7.34l24.29,31.38v-31.38h7.84v45.55h-6.58l-25.05-32.39v32.39h-7.84v-45.55Z" style="fill: #bd1714;"/>
      <path d="M1092.22,632.15h8.6l13.92,21.51,13.92-21.51h8.6v45.55h-8.1v-32.64l-14.42,21.51h-.25l-14.17-21.26v32.39h-7.84v-45.55h-.25Z" style="fill: #bd1714;"/>
      <path d="M1182.81,631.64h7.34l19.99,45.8h-8.35l-4.56-10.88h-21.51l-4.56,10.88h-8.35l19.99-45.8Zm11.64,27.84l-7.84-18.22-7.84,18.22h15.69Z" style="fill: #bd1714;"/>
      <path d="M1236.21,632.15h20.24c5.82,0,10.12,1.77,13.16,4.56,2.28,2.53,3.8,5.82,3.8,9.87v.25c0,7.34-4.56,11.89-10.88,13.67l12.15,17.21h-9.36l-11.13-15.94h-9.87v15.94h-8.1v-45.55Zm19.74,22.52c5.82,0,9.36-3.04,9.36-7.59v-.25c0-4.81-3.54-7.59-9.36-7.59h-11.64v15.18h11.64v.25Z" style="fill: #bd1714;"/>
      <path d="M1312.38,639.49h-14.42v-7.34h36.95v7.34h-14.42v37.96h-8.1v-37.96Z" style="fill: #bd1714;"/>
      <path d="M1361.98,632.15h8.1v45.55h-8.1v-45.55Zm8.1-13.16l7.09,3.04-8.35,6.33h-6.07l7.34-9.36Z" style="fill: #bd1714;"/>
      <path d="M1400.19,632.15h7.34l24.29,31.38v-31.38h7.84v45.55h-6.58l-25.05-32.39v32.39h-7.84v-45.55Z" style="fill: #bd1714;"/>
      <path d="M1507.24,632.15h16.96c14.17,0,24.04,9.87,24.04,22.52v.25c0,12.91-9.87,22.78-24.04,22.78h-16.96v-45.55Zm8.1,7.09v30.87h8.86c9.62,0,15.69-6.33,15.69-15.44v-.25c0-8.86-6.33-15.44-15.69-15.44h-8.86v.25Z" style="fill: #bd1714;"/>
      <path d="M1576.32,632.15h33.66v7.09h-25.81v11.89h22.78v7.09h-22.78v12.15h26.07v7.09h-33.91v-45.3h0Z" style="fill: #bd1714;"/>
      <path d="M1675.52,632.15h17.97c10.63,0,17.21,6.07,17.21,15.18v.25c0,10.12-8.1,15.44-18.22,15.44h-9.11v14.68h-8.1v-45.55h.25Zm17.46,23.53c6.07,0,9.87-3.29,9.87-8.1v-.25c0-5.31-3.8-8.1-9.87-8.1h-9.36v16.45h9.36Z" style="fill: #bd1714;"/>
      <path d="M1735.25,654.92h0c0-12.91,9.87-23.53,23.79-23.53s23.79,10.63,23.79,23.28v.25c0,12.91-9.87,23.53-23.79,23.53-14.17-.25-23.79-10.63-23.79-23.53Zm38.97,0h0c0-8.86-6.33-16.2-15.44-16.2s-15.44,7.09-15.44,15.94v.25c0,8.86,6.33,16.2,15.44,16.2,9.11-.25,15.44-7.34,15.44-16.2Z" style="fill: #bd1714;"/>
      <path d="M1810.4,632.15h20.24c5.82,0,10.12,1.77,13.16,4.56,2.28,2.53,3.8,5.82,3.8,9.87v.25c0,7.34-4.56,11.89-10.88,13.67l12.15,17.21h-9.36l-11.13-15.94h-9.87v15.94h-8.1v-45.55h0Zm19.74,22.52c5.82,0,9.36-3.04,9.36-7.59v-.25c0-4.81-3.54-7.59-9.36-7.59h-11.64v15.18h11.64v.25Z" style="fill: #bd1714;"/>
      <path d="M1875.69,632.15h20.24c5.82,0,10.12,1.77,13.16,4.56,2.28,2.53,3.8,5.82,3.8,9.87v.25c0,7.34-4.56,11.89-10.88,13.67l12.15,17.21h-9.36l-11.13-15.94h-9.87v15.94h-8.1v-45.55h0Zm19.49,22.52c5.82,0,9.36-3.04,9.36-7.59v-.25c0-4.81-3.54-7.59-9.36-7.59h-11.64v15.18h11.64v.25Z" style="fill: #bd1714;"/>
      <path d="M1940.73,632.15h33.66v7.09h-25.81v11.89h22.78v7.09h-22.78v12.15h26.07v7.09h-33.91v-45.3h0Z" style="fill: #bd1714;"/>
      <path d="M1999.44,670.87l4.81-5.82c4.3,3.8,8.86,5.82,14.42,5.82,5.06,0,8.1-2.28,8.1-5.82v-.25c0-3.29-1.77-5.06-10.38-6.83-9.62-2.28-15.18-5.31-15.18-13.67v-.25c0-7.84,6.58-13.16,15.44-13.16,6.58,0,11.89,2.02,16.45,5.82l-4.3,6.07c-4.05-3.04-8.1-4.56-12.4-4.56-4.56,0-7.34,2.28-7.34,5.31v.25c0,3.54,2.02,5.06,10.88,7.09,9.62,2.28,14.42,5.82,14.42,13.41v.25c0,8.6-6.58,13.67-16.2,13.67-6.83,0-13.41-2.53-18.73-7.34Z" style="fill: #bd1714;"/>
    </g>
    <g>
      <g>
        <path d="M376.81,0l-25.05,27.84L326.7,0l2.02,37.45-37.96-2.02,27.84,25.05-27.84,25.05,37.45-2.02-1.77,37.96,25.05-27.84,25.05,27.84-2.02-37.45,37.45,2.02-27.84-25.05,27.84-25.05-37.45,2.02,2.28-37.96h0Z" style="fill: #bd1714;"/>
        <path d="M597.48,401.1V156.14H107.3V468.92c0,21,5.82,40.24,16.2,57.95,7.84,13.16,18.47,23.53,29.36,33.91,6.83,6.58,13.67,12.65,20.75,18.73,51.12,43.78,109.32,76.17,172.59,99.96,2.02,.76,3.8,1.01,5.82,1.27h0c2.02,0,3.8-.51,5.82-1.27,63.27-23.79,121.47-56.18,172.59-99.96,7.09-6.07,13.92-12.4,20.75-18.73,10.88-10.38,21.51-20.75,29.36-33.91,10.63-17.97,16.45-36.95,16.2-57.95,.76-22.27,.76-45.05,.76-67.82Zm-51.12,105.27c-5.06,8.6-13.92,16.96-22.52,25.31-7.09,6.58-14.17,13.16-21.51,19.23l-149.81-149.81v237.37c-57.95-22.78-107.05-51.62-149.81-87.56l149.81-149.81H148.04V196.63h0l204.47,204.47V196.88h204.47l-204.47,204.47h204.47v67.82c0,12.91-3.54,25.05-10.63,37.2Z" style="fill: #bd1714;"/>
      </g>
      <g>
        <path d="M0,176.89v-9.36c0-.51,.25-.76,.76-1.01l57.19-11.64c.51-.25,.76,0,.76,.76v9.87c0,.51-.25,1.01-.76,1.01l-37.2,6.07v.25l37.2,5.82c.51,0,.76,.25,.76,1.01v9.62c0,.51-.25,.76-.76,.76L.76,178.16C.25,177.65,0,177.4,0,176.89Z" style="fill: #bd1714;"/>
        <path d="M1.01,238.13H58.2c.51,0,.76,.25,.76,.76v25.81c0,.51-.25,.76-.76,.76h-8.6c-.51,0-.76-.25-.76-.76v-14.68c0-.25-.25-.51-.51-.51h-12.91c-.25,0-.51,.25-.51,.51v12.65c0,.51-.25,.76-.76,.76h-8.6c-.51,0-.76-.25-.76-.76v-12.65c0-.25-.25-.51-.51-.51H10.88c-.25,0-.51,.25-.51,.51v14.68c0,.51-.25,.76-.76,.76H1.01c-.51,0-.76-.25-.76-.76v-25.81c-.25-.25,0-.76,.76-.76Z" style="fill: #bd1714;"/>
        <path d="M0,348.47v-10.38c0-.51,.25-.76,.76-1.01l22.27-6.58v-3.29c0-.25-.25-.51-.51-.51H.76c-.51,0-.76-.25-.76-.76v-9.62c0-.51,.25-.76,.76-.76H57.95c.51,0,.76,.25,.76,.76v13.92c0,11.39-6.07,17.21-17.97,17.21-7.09,0-12.15-2.28-15.18-6.58L.51,348.97S0,348.97,0,348.47Zm32.9-18.98c0,2.28,.51,3.8,1.77,4.81s3.29,1.52,6.33,1.52,5.06-.51,6.33-1.52c1.27-1.01,1.77-2.53,1.77-4.81v-2.53c0-.25-.25-.51-.51-.51h-15.18c-.25,0-.51,.25-.51,.51v2.53Z" style="fill: #bd1714;"/>
        <path d="M1.01,398.07H58.2c.51,0,.76,.25,.76,.76v9.62c0,.51-.25,.76-.76,.76H1.01c-.51,0-.76-.25-.76-.76v-9.62c-.25-.51,0-.76,.76-.76Z" style="fill: #bd1714;"/>
        <path d="M.25,480.06L0,470.44c0-.51,.25-.76,.76-1.01l47.32-1.52c.25,0,.51-.25,.51-.51l-.25-9.36c0-.51,.25-.76,.76-1.01l8.6-.25c.51,0,.76,.25,1.01,.76l1.01,30.87c0,.51-.25,.76-.76,1.01l-8.6,.25c-.51,0-.76-.25-1.01-.76l-.25-9.36c0-.25-.25-.51-.51-.51l-47.32,1.77c-.76,0-1.01-.25-1.01-.76Z" style="fill: #bd1714;"/>
        <path d="M13.67,545.1l57.19-12.91c.51,0,1.01,0,1.27,.51l4.3,9.36c.25,.51,0,.76-.51,1.27l-46.31,35.93c-.51,.25-.76,.25-1.01-.25l-4.05-8.6c-.25-.51,0-.76,.51-1.27l8.86-6.33-4.81-10.12-10.38,2.78c-.51,.25-1.01,0-1.27-.51l-4.05-8.6c-.51-.76-.25-1.27,.25-1.27Zm24.29,5.06l3.29,7.09,16.96-12.15v-.25l-20.24,5.31Z" style="fill: #bd1714;"/>
        <path d="M100.72,635.44c-4.3,4.56-8.35,6.83-12.4,7.34-4.05,.51-7.84-1.52-12.15-5.31-7.59-7.34-7.84-14.68-.51-22.52,.51-.51,.76-.51,1.27-.25l7.59,5.31c.51,.25,.51,.76,.25,1.27-1.77,2.02-2.78,3.8-3.04,5.06-.25,1.52,.25,2.78,1.52,3.8s2.53,1.52,3.8,1.27,2.78-1.27,4.56-3.29c1.77-1.77,2.78-3.54,3.04-4.81,.25-1.27,0-3.04-1.01-5.31l-1.52-3.54c-1.77-4.05-2.53-7.59-2.02-10.38,.51-3.04,2.53-6.07,5.82-9.62,7.59-7.84,15.18-8.1,22.52-1.01,7.09,6.83,7.59,13.92,1.01,21.26-.51,.51-.76,.51-1.27,.25l-7.34-5.06c-.51-.25-.51-.76-.25-1.27,2.78-3.04,3.29-5.82,1.01-7.84-2.28-2.02-4.56-1.77-7.34,1.01-1.52,1.52-2.28,3.04-2.53,4.05s.25,3.04,1.27,5.06l1.52,3.54c1.77,4.05,2.53,7.34,2.02,10.38-.51,3.8-2.28,7.09-5.82,10.63Z" style="fill: #bd1714;"/>
        <path d="M182.71,717.94l29.1-49.09c.25-.51,.76-.51,1.27-.25l8.35,4.81c.51,.25,.51,.76,.25,1.27l-24.04,40.74c-.25,.25,0,.51,.25,.76l12.91,7.59c.51,.25,.51,.76,.25,1.27l-4.3,7.34c-.25,.51-.76,.51-1.27,.25l-22.27-13.16c-.51-.76-.76-1.01-.51-1.52Z" style="fill: #bd1714;"/>
        <path d="M253.31,755.9l24.04-51.88c.25-.51,.51-.76,1.27-.51l8.86,4.05c.51,.25,.76,.51,.51,1.27l-24.04,51.88c-.25,.51-.51,.76-1.27,.51l-8.86-4.05c-.76-.25-.76-.76-.51-1.27Z" style="fill: #bd1714;"/>
        <path d="M322.15,782.21l5.57-56.94c0-.51,.25-.76,1.01-.76l14.93,1.52c5.31,.51,9.36,2.28,11.64,4.81,2.28,2.78,3.29,6.83,2.53,11.89-.76,6.58-3.29,10.38-8.1,11.89v.25c4.81,2.02,6.83,6.58,6.07,13.92-.51,6.33-2.53,10.63-5.57,12.91s-7.59,3.29-13.41,2.53l-13.92-1.27c-.51,0-.76-.25-.76-.76Zm12.15-8.1c0,.25,0,.51,.51,.51l2.53,.25c2.53,.25,4.05-.25,5.06-1.27s1.77-3.04,2.02-6.33c.25-3.04,0-5.06-.76-6.33s-2.53-2.02-4.81-2.28l-2.53-.25c-.25,0-.51,0-.51,.51l-1.52,15.18Zm3.04-24.55l2.53,.25c2.28,.25,3.8,0,4.81-1.01s1.52-2.78,1.77-5.57c.25-2.78,0-4.81-.76-5.82s-2.28-1.77-4.3-2.02l-2.53-.25c-.25,0-.51,0-.51,.51l-1.27,13.41q-.25,.51,.25,.51Z" style="fill: #bd1714;"/>
        <path d="M419.32,770.32l-22.78-52.38c-.25-.51,0-1.01,.51-1.27l23.53-10.38c.51-.25,1.01,0,1.27,.51l3.29,7.84c.25,.51,0,1.01-.51,1.27l-13.41,5.82c-.25,.25-.51,.25-.25,.76l5.06,11.64c.25,.25,.25,.51,.76,.25l11.64-5.06c.51-.25,1.01,0,1.27,.51l3.29,7.84c.25,.51,0,1.01-.51,1.01l-11.64,5.06c-.25,.25-.51,.25-.25,.76l5.31,12.15c.25,.25,.25,.51,.76,.25l13.41-5.82c.51-.25,1.01,0,1.27,.51l3.29,7.84c.25,.51,0,1.01-.51,1.27l-23.53,10.38c-.76-.25-1.01-.25-1.27-.76Z" style="fill: #bd1714;"/>
        <path d="M521.56,719.2l-8.86,5.31c-.51,.25-.76,.25-1.27,0l-16.96-15.94-2.78,1.77c-.25,.25-.25,.51-.25,.76l10.88,18.73c.25,.51,.25,1.01-.25,1.27l-8.35,4.81c-.51,.25-1.01,.25-1.27-.25l-28.85-49.85c-.25-.51-.25-1.01,.25-1.27l12.15-7.09c9.87-5.82,17.97-3.54,24.04,6.83,3.54,6.07,4.3,11.64,2.02,16.45l19.49,17.46c.25,.51,.25,.76,0,1.01Zm-32.9-18.98c2.02-1.01,3.04-2.53,3.29-4.05s-.25-3.54-2.02-6.33c-1.52-2.53-3.04-4.05-4.3-4.56-1.52-.51-3.04-.25-5.06,1.01l-2.28,1.27c-.25,.25-.25,.51-.25,.76l7.59,12.91c.25,.25,.51,.25,.76,.25l2.28-1.27Z" style="fill: #bd1714;"/>
        <path d="M563.32,690.1l-25.05-52.89c-.25-.51-.25-1.01,.25-1.27l8.1-6.33c.51-.25,.76-.25,1.27,0l45.05,37.2c.51,.51,.51,.76,0,1.01l-7.59,5.82c-.51,.25-.76,.25-1.27,0l-8.1-7.34-8.86,6.83,5.06,9.62c.25,.51,.25,1.01-.25,1.27l-7.59,5.82c-.51,.76-.76,.76-1.01,.25Zm-.51-24.8l6.33-4.81-15.44-13.92-.25,.25,9.36,18.47Z" style="fill: #bd1714;"/>
        <path d="M632.4,631.39l-41.76-38.97c-.51-.51-.51-.76,0-1.27l10.12-10.88c3.8-4.05,7.34-6.07,10.88-6.07,3.54-.25,7.34,1.52,11.13,5.06,4.81,4.56,6.33,8.86,4.81,13.67h0c4.56-2.53,9.36-1.52,14.93,3.54,4.56,4.3,6.83,8.35,6.83,12.15s-2.02,8.1-6.07,12.4l-9.62,10.12c-.25,.51-.76,.51-1.27,.25Zm-16.7-31.89l1.77-1.77c1.52-1.77,2.28-3.04,2.02-4.3s-1.27-2.78-3.54-4.81c-2.02-2.02-3.8-3.04-5.06-3.04s-2.78,.76-4.3,2.28l-1.77,1.77c-.25,.25-.25,.51,0,.76l9.87,9.11c.76,.25,1.01,.25,1.01,0Zm17.71,17.21c.25,.25,.51,.25,.76,0l1.77-1.77c1.77-1.77,2.28-3.29,2.28-4.81-.25-1.52-1.52-3.29-3.8-5.31-2.28-2.02-4.05-3.29-5.57-3.29s-3.04,.76-4.56,2.53l-1.77,1.77c-.25,.25-.25,.51,0,.76l10.88,10.12Z" style="fill: #bd1714;"/>
        <path d="M686.3,554.46l-53.14-21c-.51-.25-.76-.51-.51-1.01l3.54-8.86c.25-.51,.51-.76,1.01-.51l53.14,21c.51,.25,.76,.51,.51,1.01l-3.54,8.86c-.25,.51-.51,.76-1.01,.51Z" style="fill: #bd1714;"/>
        <path d="M704.52,462.6v9.62c0,.51-.25,.76-.76,.76h-47.32c-.25,0-.51,.25-.51,.51v9.36c0,.51-.25,.76-.76,.76h-8.6c-.51,0-.76-.25-.76-.76v-30.87c0-.51,.25-.76,.76-.76h8.6c.51,0,.76,.25,.76,.76v9.36c0,.25,.25,.51,.51,.51h47.32c.25,0,.76,.25,.76,.76Z" style="fill: #bd1714;"/>
        <path d="M704.27,325.94v9.36c0,.51-.25,.76-.76,1.01l-57.19,11.64c-.51,.25-.76,0-.76-.76v-9.87c0-.51,.25-1.01,.76-1.01l37.2-6.07v-.25l-37.2-5.82c-.51,0-.76-.25-.76-1.01v-9.62c0-.76,.25-.76,.76-.76l57.19,11.89c.51,.51,.76,.76,.76,1.27Z" style="fill: #bd1714;"/>
        <path d="M705.03,250.53c0,7.84-3.29,12.91-9.87,15.18-1.27,.51-3.29,.76-5.57,1.01-2.28,.25-7.34,.25-14.68,.25s-12.15,0-14.68-.25c-2.28-.25-4.3-.51-5.57-1.01-6.58-2.28-9.87-7.34-9.87-15.18s3.29-12.91,9.87-15.18c1.27-.51,3.29-.76,5.57-1.01,2.28-.25,7.34-.25,14.68-.25s12.15,0,14.68,.25c2.28,.25,4.3,.51,5.57,1.01,6.58,2.28,9.87,7.34,9.87,15.18Zm-10.12,0c0-2.28-1.01-3.54-2.78-4.05-1.27-.51-7.09-.51-17.21-.51s-15.94,.25-17.21,.51c-2.02,.51-2.78,2.02-2.78,4.05,0,2.28,1.01,3.54,2.78,4.05,1.27,.51,7.09,.51,17.21,.51s15.94-.25,17.21-.51c1.77-.51,2.78-1.77,2.78-4.05Z" style="fill: #bd1714;"/>
        <path d="M686.81,153.61c6.07,0,10.88,1.27,13.67,3.8s4.56,6.83,4.56,12.4c0,10.38-5.31,15.69-15.69,15.94-.51,0-1.01-.25-1.01-.76l-1.52-9.36c0-.76,0-1.01,.76-1.01,2.78,0,4.56-.51,5.82-1.27s1.77-2.02,1.77-3.8-.51-2.78-1.52-3.54-2.78-1.01-5.57-1.01c-2.53,0-4.56,.25-5.57,1.01-1.27,.76-2.28,2.28-3.04,4.3l-1.27,3.54c-1.52,4.05-3.8,7.09-6.07,8.6-2.53,1.52-6.07,2.53-10.88,2.53-10.88,0-16.45-5.31-16.45-15.69s4.81-15.18,14.68-15.69c.51,0,1.01,.25,1.01,.76l1.27,8.86c0,.51,0,1.01-.76,1.01-4.3,0-6.33,1.77-6.33,4.56,0,3.04,2.02,4.56,5.82,4.56,2.28,0,3.8-.25,4.81-1.01s2.02-2.28,2.78-4.56l1.27-3.54c1.52-4.05,3.54-7.09,6.07-8.6,2.78-1.27,6.58-2.02,11.39-2.02Z" style="fill: #bd1714;"/>
      </g>
    </g>
  </g>
  <g>
    <path d="M884.2,197.64v166.51c0,8.6,1.27,17.46,3.54,26.82,2.28,9.36,6.33,17.97,11.64,25.81,5.57,7.84,12.65,14.17,21.51,19.23s19.74,7.34,32.9,7.34,24.04-2.53,32.9-7.34c8.86-5.06,16.2-11.39,21.51-19.23,5.57-7.84,9.36-16.45,11.64-25.81,2.28-9.36,3.54-18.22,3.54-26.82V197.64h38.21v172.34c0,16.2-2.78,30.87-8.35,44.03-5.57,13.16-13.16,24.55-22.78,34.42-9.62,9.62-21,17.21-34.16,22.27-13.16,5.31-27.08,7.84-42.26,7.84s-29.36-2.53-42.26-7.84c-13.16-5.31-24.55-12.65-34.16-22.27s-17.21-21-22.78-34.42c-5.57-13.16-8.35-27.84-8.35-44.03V197.64h37.71Z" style="fill: #bd1714;"/>
    <path d="M1344.26,395.54c0-16.2-3.54-28.85-10.12-38.21-6.83-9.11-15.18-16.7-25.31-22.02-9.87-5.31-21-9.62-32.9-12.65-11.64-3.04-22.78-6.33-32.65-10.12-9.87-3.8-18.22-8.6-24.8-14.42-6.58-5.82-9.87-14.42-9.87-25.56,0-3.8,.76-8.35,2.53-12.91,1.77-4.56,4.56-9.11,8.6-13.16s9.62-7.34,16.2-10.12c6.83-2.53,15.44-3.8,25.56-3.8,10.63,0,20.5,2.02,28.85,6.33,8.35,4.3,14.93,9.87,19.49,16.7l.51,.76,31.38-27.84-.51-.51c-10.38-12.4-22.52-20.5-36.44-24.55-12.91-3.8-26.32-5.57-40.24-5.82h-3.29c-16.7,0-31.13,2.53-43.02,7.34s-21.51,11.13-29.1,18.22c-7.59,7.34-13.16,15.44-16.7,24.29-3.54,8.86-5.31,17.21-5.31,25.05,0,13.16,2.02,24.29,5.82,33.4,1.27,3.04,2.78,5.82,4.56,8.6,6.83,10.12,15.18,18.47,25.31,24.55,9.87,6.07,21,10.88,32.9,14.17,11.64,3.29,22.52,6.83,32.65,10.63,9.87,3.54,18.22,8.1,24.8,13.41s9.87,12.91,9.87,23.03c0,7.09-1.77,13.41-5.06,18.73-3.29,5.31-7.59,10.12-12.91,13.67-5.31,3.8-11.13,6.58-17.46,8.35s-12.65,2.78-18.98,2.78c-11.13,0-21.76-2.28-32.14-6.83s-18.98-11.64-25.56-21.26l-.51-.51-32.14,26.57,.25,.25c9.36,12.65,22.02,22.02,37.96,27.84,11.89,4.56,24.55,7.34,37.71,8.6,4.3,.51,8.6,.51,13.16,.51,13.16,0,25.81-2.02,37.45-5.57,5.57-1.77,10.63-4.05,15.44-6.33,5.57-2.78,10.63-6.07,15.18-9.87,8.6-7.09,15.44-15.69,20.5-26.07s7.59-22.02,7.59-34.67q.76-.76,.76-1.01h0Z" style="fill: #bd1714;"/>
    <path d="M1448.27,197.64h56.18l88.32,210.29h1.52l87.31-210.29h56.18V478.54h-37.71V246.99h-.76l-95.15,231.55h-22.27l-95.15-231.55h-.76v231.55h-37.71V197.64Z" style="fill: #bd1714;"/>
    <path d="M1847.86,197.64h97.68c17.71,0,32.39,2.53,44.03,7.34,11.39,4.81,20.5,10.88,27.33,18.47,6.58,7.34,11.39,15.94,13.92,25.05,2.53,9.36,3.8,18.22,3.8,26.82s-1.27,17.46-3.8,26.82c-2.53,9.36-7.34,17.71-13.92,25.05s-15.69,13.67-27.33,18.47c-11.39,4.81-26.07,7.34-44.03,7.34h-59.98v125.77h-37.71V197.64h0Zm37.71,122.23h49.35c7.34,0,14.68-.51,21.76-1.77s13.67-3.29,19.23-6.58c5.57-3.04,10.12-7.59,13.41-13.41,3.29-5.82,5.06-13.41,5.06-23.03s-1.77-16.96-5.06-23.03c-3.29-5.82-7.84-10.38-13.41-13.41-5.57-3.04-12.15-5.31-19.23-6.58s-14.42-1.77-21.76-1.77h-49.35v89.58Z" style="fill: #bd1714;"/>
  </g>
</svg>