<?xml version="1.0" encoding="UTF-8"?>
<svg id="Capa_1" data-name="Capa 1" xmlns="http://www.w3.org/2000/svg" xmlns:xlink="http://www.w3.org/1999/xlink" viewBox="0 0 464.94 412.92">
  <defs>
    <style>
      .cls-1 {
        fill: none;
      }

      .cls-2 {
        fill: rgba(155, 199, 174, .2);
      }

      .cls-3 {
        fill: rgba(111, 143, 122, .2);
      }

      .cls-4 {
        clip-path: url(#clippath);
      }
    </style>
    <clipPath id="clippath">
      <rect class="cls-1" y=".03" width="464.94" height="412.89"/>
    </clipPath>
  </defs>
  <g class="cls-4">
    <g>
      <path class="cls-3" d="M464.94,76.11v336.81H0V108.43c4.64,2.61,9.09,3.09,14.13,4.15.81.17,2-.42,2.66-.28,3.29.68,8.39,3.81,12.23,4.88,1.85.51,3.96-.06,5.2.3,4.35,1.23,7.34,1.6,11.62,2.58,1.59.37,3.47.9,5.17,1.3,2.78.64,6.27,1.72,9.04,2.58,10.81,3.36,22.91,11.17,34.19,13.93,5.01,1.23,10.93,1.42,16.18,2.55,15.4,3.3,29.1,9.35,45.53,9.44,10.21.06,22.14-2.46,32.29-1.35,4.78.52,9.42,3.61,14.82,3.91,17.09.92,41.17-21.27,59.76-24.58,2.19-.4,4.85-.49,7.11-.64,13.94-1.02,26.65-2.49,39.83-8.28,3.98-1.75,8.12-5.59,11.82-7.23,1.04-.46,2.51-.72,3.87-1.3,4.29-1.78,8.28-2.48,12.72-5.05,9.81-5.66,11.38-10.54,23.45-14.34,3.44-1.09,6.9-2.13,10.34-3.23,8.02-2.57,14.73-4.65,22.6-7.76,2.83-1.12,11.06-5.18,13.24-5.18,3.6,0,7.09,3.73,10.35,3.94,2.72.18,6.4-1.37,9.02-1.34,1.86.02,3.99,1.04,5.89,1.21,7.52.68,18.06-1.86,25.76-2.49,2.03-.17,4.1.09,6.13,0v-.02Z"/>
      <path class="cls-2" d="M392.46,80.79c-7.87,3.11-14.58,5.18-22.6,7.76l-12.32-11.9c-6.29-2.88-13.73-4.66-19.74-8.03-6.9-3.87-11.26-10.23-17.31-14.34-11.76-7.98-28.04-12.21-38.78-22.59l-11.6-12.31c3.37,1.45,5.87,4.49,8.77,6.73,5.91,4.56,11.99,9.33,18.19,13.46,6.56,4.37,13.64,7.75,20.18,12.13,2.89-.35-1.19-2.53-1.88-3.29-14.08-15.28-22.01-20.16-39.08-31.34-3.69-2.41-12.47-9.75-15.57-10.91-1.19-.45-3.97-.84-3.77,1.17,4.27,5.93,7.5,12.86,11.53,18.86,5.59,8.33,10.59,8.75,18.43,13.87,13.47,8.8,27.56,18.9,38.74,30.39,1.26,1.29,2.78,4.26,4.02,5.2,4.78,3.63,17.55,8.01,23.84,11.51,1.73.96,5.6,2.69,6.03,4.64-12.06,3.81-13.63,8.69-23.45,14.34-4.44,2.56-8.43,3.26-12.72,5.05-7.98-7.36-12.84-16.57-18.78-25.49l-26.43-12c12.74,13.98,27.18,26.27,41.33,38.78-3.7,1.65-7.85,5.49-11.82,7.23-13.19,5.79-25.9,7.26-39.84,8.28-.96-4.03-3.13-7.64-4.19-11.64-.49-1.87-1.62-6.43-1.62-8.07v-17.78l29.69,17.79c-13.4-19.56-28.4-37.91-42.77-56.73-1.66-8.76-2.67-17.78-1.81-26.62l-5.13-13.3c-1.6,6.39,2.83,12.67,2.62,18.43-.23,6.29-4.33,14.09-4.57,20.06-.23,5.51,1.99,12.35,1.99,18.07,0,6.15-3.73,18.77-.98,23.56,3.41,5.95,13.24,14.05,15.93,19.61,2.06,4.27,2.15,12.44,3.73,17.27-18.59,3.32-42.68,25.5-59.76,24.58-5.41-.29-10.04-3.38-14.82-3.91-10.14-1.11-22.09,1.41-32.29,1.36-16.41-.09-30.13-6.13-45.53-9.44-5.25-1.13-11.17-1.33-16.18-2.55-11.29-2.76-23.38-10.56-34.19-13.93.42-1.95,2.46-3.56,3.86-4.86,14.61-13.5,28.15-17.42,43.49-28.22,22.56-15.89,44.75-33.85,64.71-52.89.59-.56,4.24-3.86,3.53-4.54l-22.55,12.64c-19.27,20.48-47.15,28.96-70.86,42.19-9.9,5.52-19.74,12.95-29.72,18.74-6.07,3.51-12.79,6.09-18.28,10.47-1.24-.35-3.35.22-5.2-.3-3.85-1.07-8.95-4.19-12.23-4.88,7.3-3.1,14.59-6.45,21.97-9.37,6.05-2.39,13.18-4.19,18.95-6.89,7.95-3.72,16.05-9.94,23.87-14.24,8.74-4.8,18.71-8.59,27.24-13.44,18.41-10.48,40.03-25.61,58.12-37.5,15.49-10.18,29.82-22.17,45.81-31.65,6.05,1.41,14.04,5.22,20.13,5.55,2.46.13,9.28-.75,12.17-1.08,3.39-.38,15.73-3.3,17.56-2.76,1.38.42,2.99,2.01,4.48,2.68,24.01,10.88,45.85,31.57,68.48,45.22,8.8,5.3,19.95,9.07,29.28,14,10.1,5.33,19.47,12.05,29.69,17.14v.04ZM214.88,3.23c-2.25-.1-4.07-.15-6.27.5-13.59,4.02-16.68,21.74-24.73,31.48l-20.63,18.12c7.05-2.51,13.02-7.65,19.05-11.96,1.28-.24,1.2.41.64,1.3-4.21,6.81-19.92,13.81-26.47,19.4-9.29,7.93-16.47,20.51-28.76,26.16l-13.88,28.11c7.5-6.69,14.95-13.47,22.29-20.34,7.34-6.87,10.88-13.7,22.54-14.29l24.23-19.7c2.9-5.59,2.85-12.9,5.41-18.51,2.27-4.99,10.7-19.15,14.05-23.43,4.2-5.35,12.05-9.48,12.54-16.86ZM222.63,9.68c-3.84,3.07-8.93,7.12-11.96,10.98-4.99,6.39-8.45,21.17-11.45,29.25-1.58,4.24-3.38,8.52-5.63,12.45.6.45,1.55-.86,1.94-1.29,4.38-4.65,13.15-14.15,16.28-19.25,1.26-2.05,10.82-20.29,10.82-21.49v-10.66ZM194.85,135.74c.07-.06.19-1.06.65-1.59,9.61-11.12,17.69-23.72,26.84-35.23,1.37-7.03-.16-16.79,1.1-23.48.53-2.89,3.24-6.47,4.19-9.38,1.22-3.72,1.36-8.02,2.43-11.79,2.22-7.82,6.3-16.62,6.2-24.88-.05-3.44-1.96-7.16-2-10.67-.93-.15-.87,1.12-1.1,1.8-3.23,10.03-7.53,19.31-10.53,28.9-3.02,9.64-3.58,21.7-9.41,30.01-2.23,3.19-10.96,11.37-11.75,14.09-1.22,4.16,1.91,14.24,1.11,19.22l-8.89,22.13c-.56,1.1.89,1.11,1.18.85v.02ZM175.18,32.97l-.96.96c0,.68,1.61-.39.96-.96ZM261.38,42.66l11.6,15.86c11.58,11.18,26.56,18.18,38.46,28.08,1.84,1.53,4,3.08,6.11,4.22l-28.07-32.66-28.08-15.51h0ZM172.91,89.19l21.92-8.76,11-20.01-32.92,28.77ZM158.38,113.11v.64c.41-.22.41-.44,0-.64ZM157.08,113.77v.64c.42-.22.42-.44,0-.64ZM115.43,133.15l29.21-10.51,11.46-7.91-23.68,7.96c-5.48,3.72-11.91,6.27-16.99,10.47h0ZM114.79,133.16c-.79-.15-3.3.95-2.58,1.29.79.15,3.3-.95,2.58-1.29ZM193.57,136.39h-1.28v1.94c.94-.22,1.48-1.05,1.28-1.94Z"/>
      <path class="cls-3" d="M32.14,118.29c5.49-4.38,12.21-6.95,18.28-10.47,9.97-5.78,19.82-13.21,29.72-18.74,23.72-13.23,51.59-21.7,70.86-42.19l22.55-12.64c.71.68-2.93,3.97-3.53,4.54-19.96,19.03-42.14,37-64.71,52.89-15.33,10.79-28.88,14.72-43.49,28.22-1.4,1.3-3.45,2.91-3.86,4.86-2.78-.86-6.27-1.94-9.04-2.58,2.7-2.55,6.04-5.24,8.4-8.08.6-.73,1.56-1.05,1.28-2.27l-14.85,9.05c-4.28-.98-7.27-1.37-11.62-2.58h0ZM60.23,110.54l-.96.96c0,.68,1.61-.39.96-.96Z"/>
      <path class="cls-3" d="M359.53,91.78c-.42-1.95-4.29-3.67-6.03-4.64-6.3-3.49-19.06-7.87-23.84-11.51-1.24-.94-2.77-3.92-4.02-5.2-11.18-11.48-25.27-21.59-38.74-30.39-7.84-5.12-12.84-5.54-18.43-13.87-4.03-6-7.26-12.93-11.53-18.86-.2-2.01,2.57-1.62,3.77-1.17,3.1,1.16,11.89,8.5,15.57,10.91,17.08,11.18,25,16.06,39.08,31.34.7.76,4.76,2.95,1.88,3.29-6.53-4.38-13.62-7.76-20.18-12.13-6.21-4.14-12.28-8.9-18.19-13.46-2.91-2.25-5.41-5.27-8.77-6.73l11.6,12.31c10.74,10.39,27.02,14.61,38.78,22.59,6.06,4.12,10.42,10.48,17.31,14.34,6.02,3.37,13.45,5.15,19.74,8.03l12.32,11.9c-3.44,1.1-6.89,2.15-10.34,3.23h.01Z"/>
      <path class="cls-3" d="M323.37,111.17c-1.36.56-2.84.83-3.87,1.3-14.15-12.5-28.59-24.8-41.33-38.78l26.43,12c5.94,8.91,10.78,18.12,18.78,25.49h-.01Z"/>
      <path class="cls-3" d="M43.76,120.87l14.85-9.05c.28,1.22-.68,1.53-1.28,2.27-2.35,2.84-5.7,5.53-8.4,8.08-1.69-.4-3.58-.93-5.17-1.3Z"/>
      <path class="cls-3" d="M194.85,135.74c-.29.26-1.75.25-1.18-.85l8.89-22.13c.8-4.99-2.32-15.06-1.11-19.22.8-2.72,9.52-10.91,11.75-14.09,5.83-8.31,6.38-20.38,9.41-30.01,3-9.58,7.3-18.87,10.53-28.9.22-.67.16-1.95,1.1-1.8.04,3.5,1.95,7.22,2,10.67.12,8.25-3.97,17.06-6.2,24.88-1.07,3.76-1.22,8.06-2.43,11.79-.95,2.92-3.66,6.49-4.19,9.38-1.24,6.69.28,16.44-1.1,23.48-9.15,11.51-17.22,24.11-26.84,35.23-.46.53-.58,1.53-.65,1.59v-.02Z"/>
      <path class="cls-3" d="M261.38,42.66l28.08,15.51,28.07,32.66c-2.1-1.15-4.26-2.7-6.11-4.22-11.9-9.89-26.89-16.9-38.46-28.08l-11.6-15.86h0Z"/>
      <path class="cls-3" d="M222.63,9.68v10.66c0,1.21-9.57,19.45-10.82,21.49-3.13,5.1-11.91,14.6-16.28,19.25-.4.42-1.33,1.73-1.94,1.29,2.25-3.94,4.05-8.21,5.63-12.45,3.01-8.08,6.46-22.87,11.45-29.25,3.02-3.87,8.1-7.91,11.96-10.98Z"/>
      <path class="cls-3" d="M172.91,89.19l32.92-28.77-11,20.01-21.92,8.76Z"/>
      <path class="cls-3" d="M115.43,133.15c5.08-4.2,11.51-6.74,16.99-10.47l23.68-7.96-11.46,7.91-29.21,10.51h0Z"/>
      <path class="cls-3" d="M193.57,136.39c.2.89-.35,1.72-1.28,1.94v-1.94h1.28Z"/>
      <path class="cls-3" d="M114.79,133.16c.73.34-1.79,1.44-2.58,1.29-.73-.34,1.79-1.43,2.58-1.29Z"/>
      <path class="cls-3" d="M175.18,32.97c.65.58-.98,1.64-.96.96l.96-.96Z"/>
      <path class="cls-3" d="M260.73,128.63c-1.58-4.82-1.67-13-3.73-17.27-2.69-5.56-12.52-13.66-15.93-19.61-2.75-4.8.98-17.41.98-23.56,0-5.73-2.21-12.55-1.99-18.07.25-5.98,4.34-13.77,4.57-20.06.21-5.76-4.21-12.04-2.62-18.43l5.13,13.3c-.86,8.84.16,17.87,1.81,26.62,14.37,18.84,29.36,37.18,42.77,56.73l-29.69-17.79v17.78c0,1.64,1.13,6.2,1.62,8.07,1.06,4.01,3.23,7.62,4.19,11.64-2.24.17-4.91.26-7.1.64h0Z"/>
      <path class="cls-3" d="M158.38,113.11c.41.22.41.44,0,.64v-.64Z"/>
      <path class="cls-3" d="M157.08,113.77c.42.22.42.44,0,.64v-.64Z"/>
      <path class="cls-3" d="M214.88,3.22c-.49,7.38-8.34,11.52-12.54,16.86-3.35,4.27-11.78,18.44-14.05,23.43-2.56,5.61-2.5,12.92-5.41,18.51l-24.23,19.7c-11.66.57-15.01,7.24-22.54,14.28-7.53,7.04-14.79,13.65-22.29,20.34l13.88-28.11c12.28-5.65,19.47-18.22,28.76-26.16,6.55-5.59,22.26-12.59,26.47-19.4.55-.89.64-1.53-.64-1.3-6.02,4.31-12,9.44-19.05,11.96l20.63-18.12c8.05-9.73,11.15-27.46,24.73-31.48,2.21-.65,4.03-.59,6.27-.5ZM184.86,40.08l-.96.96c0,.68,1.61-.39.96-.96Z"/>
      <path class="cls-3" d="M60.23,110.54c.65.58-.98,1.64-.96.96l.96-.96Z"/>
      <path class="cls-3" d="M184.86,40.08c.65.58-.98,1.64-.96.96l.96-.96Z"/>
    </g>
  </g>
</svg>