<svg width="393" height="287" viewBox="0 0 393 287" fill="none" xmlns="http://www.w3.org/2000/svg">
<g clip-path="url(#clip0_450_2659)">
<path d="M433 76.8418V417H-37V109.483C-32.305 112.12 -27.8098 112.6 -22.7152 113.679C-21.8961 113.849 -20.6973 113.259 -20.0281 113.399C-16.7016 114.089 -11.5471 117.246 -7.66121 118.325C-5.7932 118.845 -3.65547 118.265 -2.4068 118.625C1.98852 119.864 5.0153 120.243 9.3407 121.232C10.949 121.602 12.847 122.142 14.5651 122.541C17.3722 123.191 20.8984 124.28 23.7054 125.149C34.6338 128.546 46.8608 136.429 58.2687 139.216C63.3333 140.455 69.3169 140.655 74.6213 141.794C90.1847 145.131 104.04 151.236 120.642 151.326C130.961 151.386 143.028 148.838 153.288 149.957C158.122 150.486 162.807 153.604 168.272 153.903C185.543 154.833 209.887 132.422 228.677 129.075C230.895 128.676 233.582 128.586 235.86 128.426C249.955 127.397 262.801 125.908 276.127 120.063C280.153 118.295 284.338 114.418 288.074 112.76C289.123 112.29 290.611 112.031 291.99 111.451C296.325 109.653 300.361 108.943 304.846 106.356C314.766 100.641 316.354 95.7151 328.551 91.8685C332.027 90.7694 335.524 89.7204 339 88.6014C347.111 86.0037 353.894 83.9055 361.846 80.7683C364.703 79.6393 373.024 75.533 375.231 75.533C378.868 75.533 382.404 79.2996 385.69 79.5094C388.437 79.6893 392.163 78.1307 394.811 78.1606C396.689 78.1806 398.846 79.2097 400.764 79.3795C408.366 80.0689 419.025 77.5012 426.807 76.8618C428.854 76.6919 430.952 76.9517 433 76.8618V76.8418Z" fill="#6F8F7A" fill-opacity="0.2"/>
<path d="M359.728 81.5676C351.776 84.7048 344.994 86.803 336.882 89.4007L324.426 77.3813C318.062 74.4739 310.55 72.6755 304.467 69.2685C297.494 65.362 293.089 58.9377 286.965 54.7814C275.078 46.7186 258.626 42.4523 247.767 31.9616L236.04 19.5327C239.446 21.0014 241.973 24.0686 244.91 26.3266C250.884 30.9326 257.027 35.7483 263.301 39.9246C269.933 44.3407 277.086 47.7476 283.699 52.1737C286.616 51.824 282.5 49.616 281.801 48.8467C267.566 33.4104 259.555 28.4847 242.293 17.1947C238.567 14.7569 229.686 7.34349 226.55 6.17453C225.341 5.72493 222.534 5.32528 222.734 7.35348C227.049 13.3382 230.316 20.342 234.391 26.3966C240.045 34.8091 245.1 35.2287 253.021 40.4042C266.637 49.2963 280.882 59.4972 292.18 71.0969C293.448 72.3958 294.987 75.4031 296.245 76.3522C301.08 80.019 313.987 84.4451 320.35 87.9719C322.098 88.9411 326.014 90.6895 326.443 92.6578C314.256 96.5044 312.668 101.43 302.739 107.145C298.253 109.733 294.218 110.442 289.882 112.24C281.811 104.807 276.906 95.5053 270.902 86.4933L244.181 74.374C257.057 88.4915 271.652 100.91 285.956 113.539C282.22 115.208 278.025 119.084 274.009 120.843C260.673 126.688 247.827 128.176 233.742 129.205C232.773 125.139 230.575 121.492 229.507 117.446C229.007 115.557 227.868 110.952 227.868 109.293V91.339L257.886 109.303C244.341 89.5505 229.177 71.017 214.652 52.0039C212.974 43.1617 211.955 34.0498 212.824 25.1177L207.64 11.6896C206.021 18.1439 210.497 24.4883 210.287 30.3031C210.057 36.6575 205.912 44.5305 205.672 50.5651C205.442 56.1302 207.68 63.0341 207.68 68.8189C207.68 75.0334 203.904 87.7721 206.691 92.6178C210.137 98.6225 220.077 106.805 222.794 112.42C224.881 116.736 224.971 124.989 226.57 129.865C207.78 133.222 183.426 155.622 166.164 154.693C160.7 154.403 156.015 151.276 151.18 150.746C140.931 149.627 128.854 152.175 118.535 152.115C101.942 152.025 88.077 145.921 72.5135 142.583C67.2092 141.445 61.2255 141.245 56.1609 140.006C44.753 137.218 32.526 129.335 21.5977 125.938C22.0172 123.97 24.085 122.341 25.5035 121.033C40.2678 107.395 53.9632 103.438 69.4668 92.5279C92.2725 76.4821 114.699 58.3382 134.877 39.1153C135.477 38.5458 139.163 35.2188 138.443 34.5294L115.648 47.298C96.1683 67.9797 67.9883 76.5421 44.0138 89.9102C34.0045 95.4853 24.0551 102.989 13.9658 108.833C7.83232 112.38 1.03954 114.988 -4.51455 119.404C-5.76322 119.054 -7.90095 119.624 -9.76896 119.104C-13.6648 118.025 -18.8193 114.868 -22.1358 114.179C-14.7537 111.051 -7.39149 107.664 0.0705719 104.717C6.18407 102.299 13.3964 100.481 19.2302 97.7633C27.2716 94.0066 35.4529 87.7222 43.3645 83.386C52.1951 78.5403 62.2744 74.7137 70.9052 69.8081C89.5154 59.2275 111.372 43.941 129.653 31.9317C145.316 21.6508 159.801 9.54154 175.963 -0.0299683C182.077 1.39876 190.158 5.24535 196.312 5.57506C198.799 5.70494 205.692 4.81573 208.619 4.48602C212.045 4.10636 224.522 1.14899 226.37 1.6985C227.768 2.11813 229.397 3.7267 230.895 4.4061C255.169 15.3963 277.246 36.2878 300.121 50.0756C309.022 55.4308 320.29 59.2374 329.72 64.213C339.929 69.5982 349.399 76.3822 359.738 81.5277L359.728 81.5676ZM180.219 3.22714C177.941 3.12723 176.103 3.07727 173.876 3.73669C160.14 7.79309 157.014 25.6972 148.872 35.5285L128.014 53.8322C135.137 51.2945 141.18 46.1091 147.274 41.753C148.573 41.5132 148.483 42.1626 147.923 43.0618C143.668 49.9357 127.785 57.0094 121.162 62.6544C111.772 70.6673 104.509 83.366 92.0927 89.071L78.0576 117.466C85.6395 110.712 93.1715 103.858 100.594 96.924C108.016 89.9902 111.592 83.0863 123.379 82.4968L147.873 62.6045C150.81 56.9595 150.75 49.576 153.338 43.911C155.635 38.8755 164.156 24.5682 167.542 20.252C171.788 14.8468 179.719 10.6805 180.219 3.22714ZM188.051 9.75135C184.165 12.8486 179.02 16.945 175.963 20.8415C170.919 27.2958 167.423 42.2225 164.386 50.3853C162.787 54.6715 160.969 58.9877 158.692 62.9641C159.301 63.4137 160.26 62.0949 160.65 61.6653C165.075 56.9695 173.946 47.378 177.112 42.2225C178.381 40.1544 188.051 21.7307 188.051 20.5218V9.75135ZM159.97 137.058C160.04 136.998 160.16 135.989 160.63 135.45C170.349 124.22 178.511 111.491 187.761 99.8714C189.149 92.7677 187.601 82.9164 188.87 76.1624C189.409 73.245 192.146 69.6282 193.105 66.6908C194.334 62.9342 194.484 58.588 195.563 54.7814C197.81 46.8884 201.936 37.9963 201.826 29.6537C201.776 26.1768 199.848 22.4201 199.808 18.8733C198.869 18.7234 198.929 20.0023 198.699 20.6916C195.433 30.8227 191.087 40.1943 188.051 49.8757C184.994 59.6071 184.434 71.7963 178.541 80.1889C176.283 83.406 167.462 91.6687 166.663 94.4162C165.435 98.6225 168.591 108.793 167.782 113.829L158.792 136.179C158.222 137.288 159.691 137.298 159.98 137.038L159.97 137.058ZM140.082 33.2705L139.113 34.2396C139.103 34.929 140.741 33.85 140.082 33.2705ZM227.219 43.0518L238.946 59.0676C250.654 70.3576 265.798 77.4313 277.825 87.4224C279.683 88.9711 281.871 90.5297 283.999 91.6886L255.619 58.7079L227.229 43.0418L227.219 43.0518ZM137.794 90.0501L159.95 81.2079L171.069 60.9959L137.794 90.0501ZM123.1 114.209V114.858C123.519 114.638 123.519 114.418 123.1 114.209ZM121.791 114.868V115.518C122.211 115.298 122.211 115.078 121.791 114.868ZM79.6859 134.441L109.214 123.83L120.802 115.837L96.8676 123.88C91.3235 127.637 84.8304 130.214 79.6959 134.451L79.6859 134.441ZM79.0366 134.461C78.2374 134.311 75.7001 135.42 76.4293 135.76C77.2285 135.909 79.7658 134.8 79.0366 134.461ZM158.672 137.718H157.373V139.676C158.322 139.456 158.872 138.617 158.672 137.718Z" fill="#9BC7AE" fill-opacity="0.2"/>
<path d="M-4.51456 119.434C1.03954 115.008 7.83231 112.41 13.9658 108.863C24.0451 103.029 34.0045 95.5252 44.0138 89.9402C67.9883 76.582 96.1683 68.0196 115.648 47.328L138.443 34.5593C139.163 35.2487 135.477 38.5658 134.877 39.1453C114.699 58.3682 92.2825 76.5121 69.4667 92.5579C53.9732 103.458 40.2678 107.425 25.5035 121.063C24.085 122.371 22.0172 124 21.5977 125.968C18.7907 125.099 15.2644 124.01 12.4574 123.361C15.1845 120.783 18.5609 118.065 20.9484 115.198C21.5577 114.458 22.5267 114.139 22.247 112.91L7.23294 122.052C2.90755 121.063 -0.119232 120.673 -4.51456 119.444V119.434ZM23.8852 111.611L22.9163 112.58C22.9063 113.269 24.5445 112.19 23.8852 111.611Z" fill="#6F8F7A" fill-opacity="0.2"/>
<path d="M326.443 92.6678C326.024 90.6995 322.108 88.9611 320.35 87.9819C313.977 84.4551 301.08 80.029 296.245 76.3623C294.997 75.4131 293.448 72.4058 292.18 71.1069C280.882 59.5172 266.637 49.3063 253.021 40.4142C245.1 35.2388 240.045 34.8191 234.391 26.4066C230.316 20.352 227.049 13.3482 222.734 7.36349C222.534 5.33529 225.331 5.72494 226.55 6.18453C229.686 7.3535 238.567 14.7669 242.293 17.2048C259.554 28.4947 267.566 33.4204 281.801 48.8567C282.51 49.626 286.616 51.834 283.699 52.1837C277.096 47.7576 269.933 44.3507 263.301 39.9346C257.027 35.7583 250.884 30.9426 244.91 26.3367C241.973 24.0687 239.446 21.0114 236.039 19.5427L247.767 31.9717C258.625 42.4623 275.078 46.7286 286.965 54.7914C293.089 58.9477 297.494 65.372 304.467 69.2785C310.55 72.6855 318.062 74.4839 324.425 77.3913L336.882 89.4107C333.406 90.5197 329.92 91.5788 326.433 92.6778L326.443 92.6678Z" fill="#6F8F7A" fill-opacity="0.2"/>
<path d="M289.882 112.25C288.504 112.82 287.015 113.09 285.966 113.559C271.662 100.93 257.067 88.5115 244.191 74.394L270.912 86.5132C276.916 95.5152 281.811 104.817 289.892 112.26L289.882 112.25Z" fill="#6F8F7A" fill-opacity="0.2"/>
<path d="M7.23294 122.042L22.247 112.9C22.5267 114.129 21.5577 114.448 20.9483 115.188C18.5709 118.055 15.1845 120.773 12.4574 123.351C10.7492 122.951 8.84123 122.411 7.23294 122.042Z" fill="#6F8F7A" fill-opacity="0.2"/>
<path d="M159.97 137.058C159.681 137.318 158.202 137.308 158.782 136.199L167.772 113.849C168.581 108.813 165.425 98.6425 166.653 94.4362C167.463 91.6887 176.273 83.416 178.531 80.2088C184.424 71.8163 184.984 59.6271 188.041 49.8957C191.077 40.2243 195.423 30.8426 198.689 20.7116C198.909 20.0322 198.849 18.7434 199.798 18.8932C199.838 22.4301 201.766 26.1868 201.816 29.6737C201.936 38.0063 197.8 46.9084 195.553 54.8014C194.474 58.598 194.324 62.9441 193.095 66.7108C192.136 69.6582 189.399 73.265 188.86 76.1824C187.601 82.9364 189.139 92.7877 187.751 99.8914C178.501 111.511 170.339 124.24 160.62 135.47C160.15 136.009 160.03 137.018 159.96 137.078L159.97 137.058Z" fill="#6F8F7A" fill-opacity="0.2"/>
<path d="M227.219 43.0518L255.609 58.7179L283.989 91.6987C281.871 90.5397 279.683 88.9711 277.815 87.4324C265.788 77.4413 250.634 70.3676 238.936 59.0776L227.209 43.0618L227.219 43.0518Z" fill="#6F8F7A" fill-opacity="0.2"/>
<path d="M188.051 9.75134V20.5218C188.051 21.7407 178.381 40.1644 177.112 42.2225C173.946 47.378 165.075 56.9694 160.65 61.6653C160.25 62.0849 159.301 63.4137 158.692 62.9641C160.969 58.9877 162.787 54.6715 164.386 50.3853C167.433 42.2225 170.919 27.2858 175.963 20.8415C179.02 16.935 184.155 12.8486 188.051 9.75134Z" fill="#6F8F7A" fill-opacity="0.2"/>
<path d="M137.794 90.0501L171.069 60.9959L159.951 81.208L137.794 90.0501Z" fill="#6F8F7A" fill-opacity="0.2"/>
<path d="M79.6859 134.441C84.8204 130.204 91.3235 127.637 96.8576 123.87L120.792 115.827L109.204 123.82L79.6759 134.431L79.6859 134.441Z" fill="#6F8F7A" fill-opacity="0.2"/>
<path d="M158.672 137.718C158.872 138.617 158.322 139.456 157.373 139.676V137.718H158.672Z" fill="#6F8F7A" fill-opacity="0.2"/>
<path d="M79.0365 134.461C79.7758 134.8 77.2285 135.909 76.4293 135.76C75.6901 135.42 78.2374 134.311 79.0365 134.461Z" fill="#6F8F7A" fill-opacity="0.2"/>
<path d="M140.082 33.2705C140.741 33.86 139.093 34.929 139.113 34.2396L140.082 33.2705Z" fill="#6F8F7A" fill-opacity="0.2"/>
<path d="M226.57 129.885C224.971 125.019 224.881 116.756 222.794 112.44C220.077 106.825 210.137 98.6425 206.691 92.6378C203.914 87.7921 207.68 75.0534 207.68 68.8389C207.68 63.054 205.442 56.1602 205.672 50.5851C205.922 44.5505 210.057 36.6774 210.287 30.3231C210.497 24.5082 206.031 18.1639 207.64 11.7096L212.824 25.1377C211.955 34.0698 212.984 43.1817 214.652 52.0238C229.177 71.0469 244.331 89.5705 257.886 109.323L227.868 91.3589V109.313C227.868 110.972 229.007 115.577 229.506 117.466C230.575 121.512 232.773 125.159 233.742 129.225C231.474 129.395 228.777 129.485 226.56 129.875L226.57 129.885Z" fill="#6F8F7A" fill-opacity="0.2"/>
<path d="M123.1 114.209C123.519 114.428 123.519 114.648 123.1 114.858V114.209Z" fill="#6F8F7A" fill-opacity="0.2"/>
<path d="M121.791 114.868C122.211 115.088 122.211 115.308 121.791 115.518V114.868Z" fill="#6F8F7A" fill-opacity="0.2"/>
<path d="M180.219 3.22713C179.719 10.6805 171.788 14.8568 167.542 20.252C164.156 24.5682 155.635 38.8755 153.338 43.911C150.75 49.576 150.81 56.9595 147.873 62.6044L123.379 82.4968C111.592 83.0763 108.206 89.8103 100.594 96.924C92.9817 104.038 85.6396 110.712 78.0576 117.466L92.0927 89.071C104.509 83.366 111.772 70.6673 121.162 62.6544C127.785 57.0094 143.668 49.9357 147.923 43.0618C148.483 42.1626 148.573 41.5132 147.274 41.7529C141.19 46.1091 135.147 51.2845 128.014 53.8322L148.872 35.5285C157.014 25.6972 160.14 7.79308 173.876 3.73668C176.113 3.07727 177.951 3.13721 180.219 3.22713ZM149.871 40.4441L148.902 41.4132C148.892 42.1026 150.531 41.0236 149.871 40.4441Z" fill="#6F8F7A" fill-opacity="0.2"/>
<path d="M23.8852 111.611C24.5445 112.2 22.8963 113.269 22.9163 112.58L23.8852 111.611Z" fill="#6F8F7A" fill-opacity="0.2"/>
<path d="M149.871 40.4441C150.53 41.0336 148.882 42.1026 148.902 41.4132L149.871 40.4441Z" fill="#6F8F7A" fill-opacity="0.2"/>
</g>
<defs>
<clipPath id="clip0_450_2659">
<rect width="470" height="417" fill="white" transform="translate(-37)"/>
</clipPath>
</defs>
</svg>
