<svg width="78" height="77" viewBox="0 0 78 77" fill="none" xmlns="http://www.w3.org/2000/svg">
<g clip-path="url(#clip0_320_2482)">
<path d="M14.7459 25.6597C16.2243 27.0861 19.212 26.0851 21.2506 26.3469C24.6291 26.9033 26.8487 27.0496 29.923 29.0959C30.7546 35.4082 36.0081 42.8389 37.8831 49.0279C40.0604 49.5438 39.0093 48.0692 39.3173 47.6554C39.402 47.5399 39.889 47.7632 40.0392 47.6554C43.3079 45.301 45.1021 41.6723 48.3285 38.7C50.6116 36.5959 54.3173 34.7921 56.3213 32.5552C57.4244 31.3251 58.7026 27.9736 58.9413 27.8331C60.3581 26.9937 65.0303 29.1633 64.6087 26.3469C65.2401 26.5163 66.5799 25.9061 66.8129 26.7165C66.8244 32.8671 64.0696 38.2707 59.5612 42.502C63.0301 44.9699 65.8465 47.3781 67.4423 51.3515C62.7375 55.4172 55.6899 58.7398 49.1312 57.9063C45.7643 57.4789 40.994 53.8887 38.9496 53.8906C37.346 53.8906 35.0841 56.064 33.3169 56.732C25.2124 59.7986 16.5554 56.7859 10.4645 51.3534C12.1413 48.0173 14.5033 45.0315 17.6354 42.8466C17.8086 42.9678 19.0291 42.7503 19.7221 43.2393C23.4972 45.9055 25.9439 47.357 30.4639 48.8604C31.1743 49.0972 36.6723 51.5112 35.6963 49.386C34.8492 47.5399 28.4754 43.6994 26.5599 41.9187C23.7782 39.3314 20.881 35.3812 18.1051 32.7766C16.1877 30.9767 11.7389 29.3019 11.8544 26.3488C12.2067 26.1525 14.1991 25.7155 14.7459 25.6616V25.6597Z" fill="#45AE54"/>
<path d="M48.7115 29.0961C44.1742 33.2965 41.9989 42.0401 40.0392 47.6555C39.889 47.7633 39.402 47.54 39.3173 47.6555L37.8716 39.7513V26.6898C37.8716 26.4472 38.5646 25.5443 38.6223 24.653C38.913 20.1908 39.0612 15.6823 39.3173 11.2219C44.0856 11.5877 50.4826 24.6357 48.7115 29.0941V29.0961Z" fill="#048C38"/>
<path d="M39.3173 11.2238C39.0613 15.6841 38.913 20.1926 38.6223 24.6549C38.5646 25.5462 37.8716 26.4471 37.8716 26.6916V39.7531L39.3173 47.6574C39.0093 48.0713 40.0604 49.5459 37.8831 49.03C36.0081 42.8409 30.7546 35.4083 29.923 29.0979C29.7036 27.4347 29.7382 24.2853 29.9865 22.6259C30.4524 19.5304 35.7271 10.9504 39.3173 11.2257V11.2238Z" fill="#09A23B"/>
<path d="M11.8544 26.3469C11.7389 29.3 16.1877 30.9748 18.1051 32.7747C20.881 35.3812 23.7782 39.3295 26.5599 41.9168C28.4734 43.6975 34.8492 47.5379 35.6962 49.3841C36.6703 51.5093 31.1724 49.0953 30.4639 48.8585C25.9439 47.3531 23.4972 45.9036 19.7221 43.2374C19.0291 42.7484 17.8086 42.9659 17.6354 42.8447C17.3293 42.629 14.0259 37.441 13.6216 36.696C12.636 34.8788 9.6021 27.604 11.8544 26.3469Z" fill="#09A23B"/>
<path d="M64.6106 26.3469C65.0322 29.1652 60.3601 26.9957 58.9432 27.8331C58.7045 27.9736 57.4263 31.3251 56.3232 32.5552C54.3173 34.7922 50.6135 36.5959 48.3304 38.7C45.104 41.6723 43.3079 45.301 40.0411 47.6554C41.9989 42.04 44.1761 33.2964 48.7135 29.0959C52.604 25.4922 59.7595 25.0514 64.6125 26.3469H64.6106Z" fill="#09A23B"/>
<path d="M21.2506 26.347C19.212 26.0852 16.2262 27.0862 14.7458 25.6598C17.5661 25.3845 18.9521 25.9678 21.2506 26.347Z" fill="#9164A6"/>
<path d="M57.0413 29.8467C57.1395 30.0045 59.2127 30.5917 60.1887 31.8122C62.3294 34.4918 62.4719 38.2784 60.1926 40.9697C59.1646 42.1844 57.1298 42.7619 57.022 42.912C56.3021 43.9188 59.7537 48.0596 56.6505 52.5046C53.2566 57.3634 49.932 54.3796 46.5478 55.2112C46.0858 55.3248 45.3235 57.7542 44.8095 58.4338C43.3522 60.353 40.7977 61.304 38.4029 61.1789C33.4305 60.919 32.6585 55.7656 31.2937 55.3075C29.923 54.8493 28.7391 55.7002 27.6149 55.6617C23.8187 55.5346 19.9878 52.493 19.8954 48.5197C19.8608 47.0451 21.2256 44.4579 20.8271 43.2123C20.4344 41.9861 15.9009 40.6 16.0665 36.1647C16.232 31.7294 20.3651 31.0287 21.1833 29.3885C21.5702 28.6127 20.342 26.5067 21.7338 24.0465C24.0535 19.948 28.1539 19.6766 32.1773 21.311C33.4035 16.0979 38.5569 13.5203 43.2309 16.9989C44.5419 17.9768 45.9549 21.1127 46.5132 21.2475C48.1572 21.6421 50.2747 18.4619 54.531 21.8539C58.3176 24.8704 56.1173 28.3644 57.0432 29.8448L57.0413 29.8467ZM44.925 44.8178C51.2218 39.1717 46.6999 29.4424 38.3625 29.9064C32.568 30.2278 29.5573 35.3581 30.695 40.8484C31.3995 44.2519 35.5962 47.1087 38.9881 47.1106C40.5147 47.1106 43.7892 45.8381 44.9269 44.8178H44.925Z" fill="#FBF3A5"/>
<path d="M44.925 44.8177C43.7873 45.838 40.5147 47.1105 38.9862 47.1105C35.5962 47.1105 31.3995 44.2518 30.693 40.8483C29.5553 35.3599 32.5661 30.2297 38.3605 29.9063C46.698 29.4442 51.2199 39.1735 44.923 44.8177H44.925Z" fill="#F5BC21"/>
</g>
<defs>
<clipPath id="clip0_320_2482">
<rect x="0.741089" y="0.285645" width="76.4286" height="76.4286" rx="25" fill="white"/>
</clipPath>
</defs>
</svg>
