<svg width="77" height="77" viewBox="0 0 77 77" fill="none" xmlns="http://www.w3.org/2000/svg">
<g clip-path="url(#clip0_320_2454)">
<path d="M35.4009 33.3986C31.1985 33.1964 27.0885 31.999 24.2125 28.7765C20.1237 24.1929 23.5753 23.4556 28.103 22.6914C24.6071 14.9315 26.9788 11.7494 34.423 16.8585C34.2343 15.1202 36.9082 10.0284 38.5638 10.0322C40.4215 10.038 42.8432 15.0836 42.7027 16.8585C45.1475 15.305 47.4229 14.0017 50.4837 14.4233C50.5915 17.3763 50.6859 20.1176 49.0226 22.6914C53.2443 23.3613 56.9769 24.0178 53.1615 28.5378C50.4568 31.743 46.2756 33.1348 42.2118 33.3986C40.7487 33.4948 37.0372 33.4775 35.4009 33.3986Z" fill="#45AE54"/>
<path d="M55.8315 40.6946C56.6189 40.7889 58.234 41.2336 57.7778 42.1537C57.7566 42.6389 57.7874 43.1278 57.7778 43.6129C57.747 45.2281 57.7682 46.8624 57.7778 48.4776C57.7778 48.6393 57.7778 48.801 57.7778 48.9646H57.2907C47.4075 48.8972 37.4992 49.0551 27.616 48.9646C27.2926 48.9607 26.9673 48.9684 26.6438 48.9646C24.867 48.9434 23.0652 49.03 21.2922 48.9646C20.5395 48.9357 19.3055 49.2957 18.8339 48.647C18.4393 47.9674 18.7569 43.4416 18.8358 42.3559C18.882 41.7187 19.3363 41.2721 19.344 41.1816H24.6957C24.6514 42.1576 24.5282 48.3621 24.944 48.4814C26.0721 48.8048 25.6447 47.4361 25.6678 46.7797C25.7371 44.8681 26.0452 42.9084 26.1549 41.1816C34.6694 41.1412 43.1974 41.2259 51.7177 41.2047C52.7977 41.2028 55.1597 40.6156 55.8296 40.6946H55.8315Z" fill="#36AA6B"/>
<path d="M27.616 58.2087C37.3876 58.2087 47.575 57.8352 57.2907 58.2087V65.5066C47.2188 66.0302 35.8379 65.6644 25.6698 65.5066L26.6419 58.2087H27.6141H27.616Z" fill="#89569E"/>
<path d="M34.9139 34.8577C37.274 34.927 39.8613 34.8674 42.2118 34.8577C42.5352 34.8577 42.8605 34.8577 43.1839 34.8577L43.4265 35.3351L43.669 34.8577C44.1561 34.8577 44.6412 34.8616 45.1282 34.8577L45.854 35.3409L46.1023 34.8577C46.9128 34.8481 47.7251 34.8712 48.5356 34.8577L48.7781 35.3351L49.0207 34.8577C49.9929 34.8481 50.9689 34.8481 51.9391 34.8577L52.6648 35.3409L52.9132 34.8577C53.4002 34.8654 53.8872 34.8462 54.3724 34.8577L54.6149 35.3351L54.8575 34.8577C55.1809 34.8693 55.5081 34.8366 55.8296 34.8577V40.6964C55.1597 40.6156 52.7977 41.2027 51.7177 41.2066C43.1974 41.2277 34.6694 41.143 26.1549 41.1835C26.2877 39.0967 26.0606 36.9483 26.153 34.8558C29.0636 34.9232 32.0032 34.773 34.912 34.8577H34.9139Z" fill="#89569E"/>
<path d="M26.6438 48.9646V58.2087L25.6717 65.5066C25.3483 65.5008 25.0229 65.5105 24.6995 65.5066C24.3857 64.3111 24.9382 59.3195 24.4955 58.6611C23.9988 57.9219 22.1507 58.253 21.2941 58.2087V48.9646C23.0671 49.0301 24.8689 48.9434 26.6458 48.9646H26.6438Z" fill="#F9B71B"/>
<path d="M21.2922 58.2087C22.1489 58.2529 23.995 57.9218 24.4936 58.661C24.9363 59.3194 24.3858 64.3092 24.6976 65.5065C23.1018 65.4873 21.4058 65.624 19.833 65.5065V58.2087C20.3085 58.1817 20.8167 58.1836 21.2922 58.2087Z" fill="#89569E"/>
<path d="M58.2648 48.4794C61.8666 48.7355 60.3727 49.39 60.3246 51.6519C60.2996 52.8705 60.6942 55.4193 60.5614 56.4472C60.4401 57.379 59.3794 58.0701 59.2389 58.6938C58.927 58.5975 58.5362 58.2414 58.2667 58.2067C58.2706 55.1305 57.7989 51.7636 57.7797 48.9626C57.7797 48.8009 57.7797 48.6392 57.7797 48.4756H58.2667L58.2648 48.4794Z" fill="#F9B71B"/>
<path d="M24.6976 34.8577L25.1847 35.3447C25.3849 36.3958 25.2694 38.8137 25.2039 40.0072C25.1693 40.6328 24.7015 41.118 24.6976 41.1834H21.7792C22.1469 39.1775 20.8109 35.9011 22.7514 34.8596C23.3597 34.8769 24.1759 34.7537 24.6976 34.8596V34.8577Z" fill="#89569E"/>
<path d="M19.833 58.2087V65.5065C19.2401 65.4623 18.3777 65.6721 17.8656 65.2948C16.8453 64.5402 17.6538 59.6659 17.3978 58.2067C18.2044 58.1721 19.0264 58.2549 19.833 58.2087Z" fill="#9C74AF"/>
<path d="M55.8315 34.8578C56.6362 34.9097 57.4621 34.8154 58.2667 34.8558C58.1686 36.8829 58.3919 38.9504 58.2841 40.9794C58.2513 41.6089 57.7797 42.0921 57.7778 42.1576C58.234 41.2374 56.6189 40.7927 55.8315 40.6984V34.8597V34.8578Z" fill="#9C74AF"/>
<path d="M42.2118 33.3984V34.8576C39.8632 34.8673 37.274 34.9269 34.9139 34.8576L35.4009 33.3984C37.0372 33.4774 40.7487 33.4947 42.2118 33.3984Z" fill="#F9B71B"/>
<path d="M22.7514 34.8578C20.809 35.8992 22.145 39.1757 21.7792 41.1816H19.346C19.3883 40.7022 19.2998 40.1998 19.346 39.7224C19.7156 40.0111 21.1574 40.5925 21.2941 39.9611C21.5405 38.8253 20.449 39.4856 20.3123 38.9235C19.7541 36.6384 21.2575 36.7039 21.3018 36.5653C21.9217 34.646 19.5635 35.3294 19.346 35.8318C18.8551 34.3322 21.3769 34.8193 22.7514 34.8597V34.8578Z" fill="#9C74AF"/>
<path d="M58.2648 58.2087C58.2629 60.6362 58.2648 63.0791 58.2648 65.5065C57.9433 65.5258 57.6141 65.4892 57.2927 65.5065V58.2087C57.6122 58.2202 57.9549 58.1702 58.2648 58.2087Z" fill="#9C74AF"/>
<path d="M59.237 58.6958C58.954 59.9451 59.5565 65.0831 59.237 65.5105C58.9155 65.5355 58.5863 65.4874 58.2648 65.5066C58.2648 63.0791 58.2629 60.6362 58.2648 58.2087C58.5343 58.2434 58.9251 58.5976 59.237 58.6958Z" fill="#89569E"/>
<path d="M19.3459 35.8298C19.5635 35.3274 21.9217 34.644 21.3018 36.5633C21.2575 36.7019 19.7541 36.6364 20.3123 38.9215C20.449 39.4836 21.5405 38.8233 21.2941 39.9591C21.1574 40.5924 19.7136 40.0091 19.3459 39.7204C19.4249 38.9176 19.2689 36.007 19.3459 35.8279V35.8298Z" fill="#89569E"/>
<path d="M58.2648 48.4794H57.7778C57.7682 46.8642 57.747 45.2299 57.7778 43.6147C58.8154 44.7698 58.055 46.9509 58.2648 48.4794Z" fill="#9C74AF"/>
<path d="M46.1023 34.8578L45.854 35.341L45.1282 34.8578C45.4516 34.854 45.777 34.8617 46.1004 34.8578H46.1023Z" fill="#9C74AF"/>
<path d="M52.9132 34.8578L52.6648 35.341L51.9391 34.8578C52.2625 34.8617 52.5878 34.854 52.9112 34.8578H52.9132Z" fill="#9C74AF"/>
<path d="M25.1846 35.3428L24.6976 34.8557C25.0634 34.9308 25.1134 34.9712 25.1846 35.3428Z" fill="#9C74AF"/>
<path d="M43.1839 34.8577C43.3456 34.8577 43.5073 34.8577 43.671 34.8577L43.4284 35.3351L43.1859 34.8577H43.1839Z" fill="#9C74AF"/>
<path d="M48.5356 34.8578C48.6973 34.8559 48.859 34.8578 49.0226 34.8578L48.7801 35.3352L48.5375 34.8578H48.5356Z" fill="#9C74AF"/>
<path d="M54.3723 34.8579C54.534 34.8617 54.6977 34.8521 54.8594 34.8579L54.6168 35.3353L54.3743 34.8579H54.3723Z" fill="#9C74AF"/>
<path d="M57.2927 48.9645V58.2087C47.5769 57.8352 37.3876 58.2087 27.6179 58.2087V48.9645C37.5012 49.055 47.4094 48.8972 57.2927 48.9645Z" fill="#F9B71B"/>
<path d="M27.616 48.9645V58.2086H26.6438V48.9645C26.9672 48.9683 27.2926 48.9606 27.616 48.9645Z" fill="#6D551C"/>
<path d="M58.2648 58.2087C57.9549 58.1702 57.6103 58.2203 57.2927 58.2087V48.9646H57.7797C57.799 51.7636 58.2687 55.1306 58.2667 58.2087H58.2648Z" fill="#6D551C"/>
</g>
<defs>
<clipPath id="clip0_320_2454">
<rect width="76.4286" height="76.4286" fill="white" transform="translate(0.0357056 0.285645)"/>
</clipPath>
</defs>
</svg>
