<svg width="77" height="77" viewBox="0 0 77 77" fill="none" xmlns="http://www.w3.org/2000/svg">
<g clip-path="url(#clip0_320_2495)">
<path d="M39.7233 23.2976C39.9293 24.3891 47.3831 34.0279 48.5343 35.3042C51.0138 38.0493 59.178 44.3558 60.1867 46.585C60.2887 46.8102 60.5005 48.3387 60.8932 49.4071C61.0241 49.7614 60.77 50.4351 60.8932 50.8182L61.5997 51.5247C61.9096 52.6682 63.4689 58.1219 63.0127 58.5781C58.6563 58.453 54.2575 58.7494 49.8973 58.6128C48.9636 58.5839 48.286 57.8774 48.1936 57.8755C49.4314 57.4289 48.3476 55.6231 47.9972 54.8993C45.1578 49.0645 42.1258 43.2681 39.3672 37.4044C38.0967 37.3005 37.7174 38.6134 37.2227 39.4931C35.4593 42.6271 30.4369 52.647 29.4686 55.7309C29.2414 56.4567 29.0046 57.0881 29.1452 57.8697C35.2457 57.991 41.3904 57.7176 47.489 57.8735L14.3241 58.5762C13.9873 58.2374 16.0394 50.5564 16.4417 49.4071C16.6862 48.7103 18.4264 47.5437 17.8528 45.8785C22.1379 42.6117 36.52 28.0679 37.6096 23.2976H39.7272H39.7233Z" fill="#49AE54"/>
<path d="M47.4852 57.8736C41.3866 57.7177 35.2418 57.991 29.1413 57.8698C29.0008 57.0882 29.2356 56.4568 29.4647 55.731C30.433 52.6471 35.4555 42.6272 37.2188 39.4932C37.7136 38.6134 38.0928 37.3005 39.3634 37.4045C42.122 43.2701 45.1539 49.0665 47.9934 54.8994C48.3457 55.6213 49.4295 57.4289 48.1897 57.8755C47.9549 57.8698 47.72 57.8813 47.4832 57.8755L47.4852 57.8736Z" fill="#1B2740"/>
<path d="M17.8489 45.8787C18.4226 47.5419 16.6823 48.7085 16.4379 49.4073C16.2588 48.1348 14.5109 49.9656 14.1143 50.2601C12.94 51.1321 7.90986 55.5405 7.49789 55.6502C6.24276 55.9871 4.86249 55.1517 5.14933 54.0024C5.30333 53.3864 14.0296 47.7537 15.4927 46.666C16.2473 46.1039 17.5563 46.1039 17.8508 45.8806L17.8489 45.8787Z" fill="#E7EAEA"/>
<path d="M60.8912 49.4071C60.4985 48.3387 60.2868 46.8102 60.1848 46.585C61.8807 46.737 72.0277 53.3092 72.1778 54.0041C72.4435 55.2419 71.017 55.9677 69.8312 55.6501C67.8638 55.1226 64.4295 48.7506 60.8912 49.4071Z" fill="#E7EAEA"/>
<path d="M39.7233 21.8866L37.6058 22.5931C37.806 21.3052 37.4575 19.7113 37.6096 18.3618C41.9891 18.1751 39.7156 20.4062 39.7233 21.8866Z" fill="#E4E7E7"/>
<path d="M39.7233 21.8867C39.7252 22.3429 39.6482 22.8993 39.7233 23.2978H37.6058C37.6558 23.0783 37.5692 22.8242 37.6058 22.5913L39.7233 21.8848V21.8867Z" fill="#68B874"/>
<path d="M61.5977 51.5229L60.8912 50.8164C60.9278 50.9319 61.4996 51.1648 61.5977 51.5229Z" fill="#E7EAEA"/>
</g>
<defs>
<clipPath id="clip0_320_2495">
<rect width="76.4286" height="76.4286" fill="white" transform="translate(0.446411 0.285645)"/>
</clipPath>
</defs>
</svg>
