<svg width="76" height="77" viewBox="0 0 76 77" fill="none" xmlns="http://www.w3.org/2000/svg">
<g clip-path="url(#clip0_320_2448)">
<path d="M64.4848 63.3063H17.0706C15.8425 28.9401 65.8304 28.7399 64.4848 63.3063Z" fill="#C7DFAF"/>
<path d="M40.1232 13.8478C54.6073 12.7197 56.5401 36.1707 41.0203 36.3786C26.7671 36.5711 25.7873 14.9643 40.1232 13.8478Z" fill="#C7DFAF"/>
<path d="M21.8429 41.6706C21.5733 41.9113 17.1611 41.8227 16.3122 41.7091C12.6815 41.2279 9.41662 37.4124 9.53212 33.6759C9.84205 33.3717 14.1157 34.211 14.9146 34.4844C16.3661 34.983 17.2381 36.1804 18.6877 36.3632C18.4586 33.774 18.7358 31.7123 19.7773 29.3618C23.4965 29.9721 24.7863 35.1235 23.5812 38.2941C23.4599 38.6156 21.9872 41.5416 21.8467 41.6687L21.8429 41.6706Z" fill="#45AE54"/>
</g>
<defs>
<clipPath id="clip0_320_2448">
<rect x="0.330353" y="0.285645" width="76.4286" height="76.4286" rx="25" fill="white"/>
</clipPath>
</defs>
</svg>
